<svg width="20" height="20" viewBox="0 0 20 20" fill="none" xmlns="http://www.w3.org/2000/svg">
<mask id="mask0_64_451" style="mask-type:alpha" maskUnits="userSpaceOnUse" x="0" y="0" width="20" height="20">
<rect width="20" height="20" fill="#D9D9D9"/>
</mask>
<g mask="url(#mask0_64_451)">
<path d="M10 18.3333C9.54167 18.3333 9.14931 18.1701 8.82292 17.8437C8.49653 17.5173 8.33333 17.125 8.33333 16.6666H11.6667C11.6667 17.125 11.5035 17.5173 11.1771 17.8437C10.8507 18.1701 10.4583 18.3333 10 18.3333ZM7.5 15.8333C7.26389 15.8333 7.06597 15.7534 6.90625 15.5937C6.74653 15.434 6.66667 15.2361 6.66667 15C6.66667 14.7638 6.74653 14.5659 6.90625 14.4062C7.06597 14.2465 7.26389 14.1666 7.5 14.1666H12.5C12.7361 14.1666 12.934 14.2465 13.0938 14.4062C13.2535 14.5659 13.3333 14.7638 13.3333 15C13.3333 15.2361 13.2535 15.434 13.0938 15.5937C12.934 15.7534 12.7361 15.8333 12.5 15.8333H7.5ZM6.875 13.3333C5.91667 12.7638 5.15625 12 4.59375 11.0416C4.03125 10.0833 3.75 9.04163 3.75 7.91663C3.75 6.18051 4.35764 4.70482 5.57292 3.48954C6.78819 2.27426 8.26389 1.66663 10 1.66663C11.7361 1.66663 13.2118 2.27426 14.4271 3.48954C15.6424 4.70482 16.25 6.18051 16.25 7.91663C16.25 9.04163 15.9688 10.0833 15.4062 11.0416C14.8438 12 14.0833 12.7638 13.125 13.3333H6.875Z" fill="#2D2E87"/>
</g>
</svg>
