<svg width="20" height="20" viewBox="0 0 20 20" fill="none" xmlns="http://www.w3.org/2000/svg">
<mask id="mask0_64_466" style="mask-type:alpha" maskUnits="userSpaceOnUse" x="0" y="0" width="20" height="20">
<rect width="20" height="20" fill="#D9D9D9"/>
</mask>
<g mask="url(#mask0_64_466)">
<path d="M9.99984 13.3333C10.6665 13.3333 11.2603 13.1354 11.7811 12.7395C12.3019 12.3437 12.6804 11.8333 12.9165 11.2083H7.08317C7.31928 11.8333 7.69775 12.3437 8.21859 12.7395C8.73942 13.1354 9.33317 13.3333 9.99984 13.3333ZM7.9165 9.99996C8.26373 9.99996 8.55887 9.87843 8.80192 9.63538C9.04498 9.39232 9.1665 9.09718 9.1665 8.74996C9.1665 8.40274 9.04498 8.1076 8.80192 7.86454C8.55887 7.62149 8.26373 7.49996 7.9165 7.49996C7.56928 7.49996 7.27414 7.62149 7.03109 7.86454C6.78803 8.1076 6.6665 8.40274 6.6665 8.74996C6.6665 9.09718 6.78803 9.39232 7.03109 9.63538C7.27414 9.87843 7.56928 9.99996 7.9165 9.99996ZM12.0832 9.99996C12.4304 9.99996 12.7255 9.87843 12.9686 9.63538C13.2116 9.39232 13.3332 9.09718 13.3332 8.74996C13.3332 8.40274 13.2116 8.1076 12.9686 7.86454C12.7255 7.62149 12.4304 7.49996 12.0832 7.49996C11.7359 7.49996 11.4408 7.62149 11.1978 7.86454C10.9547 8.1076 10.8332 8.40274 10.8332 8.74996C10.8332 9.09718 10.9547 9.39232 11.1978 9.63538C11.4408 9.87843 11.7359 9.99996 12.0832 9.99996ZM6.354 5.33329L8.68734 2.31246C8.854 2.09024 9.05192 1.92704 9.28109 1.82288C9.51025 1.71871 9.74984 1.66663 9.99984 1.66663C10.2498 1.66663 10.4894 1.71871 10.7186 1.82288C10.9478 1.92704 11.1457 2.09024 11.3123 2.31246L13.6457 5.33329L17.1873 6.52079C17.5484 6.6319 17.8332 6.83676 18.0415 7.13538C18.2498 7.43399 18.354 7.76385 18.354 8.12496C18.354 8.29163 18.3297 8.45829 18.2811 8.62496C18.2325 8.79163 18.1526 8.95135 18.0415 9.10413L15.7498 12.3541L15.8332 15.7708C15.8471 16.2569 15.6873 16.6666 15.354 17C15.0207 17.3333 14.6318 17.5 14.1873 17.5C14.1596 17.5 14.0068 17.4791 13.729 17.4375L9.99984 16.3958L6.27067 17.4375C6.20123 17.4652 6.12484 17.4826 6.0415 17.4895C5.95817 17.4965 5.88178 17.5 5.81234 17.5C5.36789 17.5 4.979 17.3333 4.64567 17C4.31234 16.6666 4.15262 16.2569 4.1665 15.7708L4.24984 12.3333L1.979 9.10413C1.86789 8.95135 1.78803 8.79163 1.73942 8.62496C1.69081 8.45829 1.6665 8.29163 1.6665 8.12496C1.6665 7.77774 1.7672 7.45482 1.96859 7.15621C2.16998 6.8576 2.45123 6.64579 2.81234 6.52079L6.354 5.33329Z" fill="#2D2E87"/>
</g>
</svg>
