<svg width="28" height="28" viewBox="0 0 28 28" fill="none" xmlns="http://www.w3.org/2000/svg">
<g clip-path="url(#clip0_61_1013)">
<path fill-rule="evenodd" clip-rule="evenodd" d="M21.0005 3.50049C21.9287 3.50049 22.819 3.86924 23.4754 4.52561C24.1317 5.18199 24.5005 6.07223 24.5005 7.00049V21.0005C24.5005 21.9287 24.1317 22.819 23.4754 23.4754C22.819 24.1317 21.9287 24.5005 21.0005 24.5005H7.00049C6.07223 24.5005 5.18199 24.1317 4.52561 23.4754C3.86924 22.819 3.50049 21.9287 3.50049 21.0005V7.00049C3.50049 6.07223 3.86924 5.18199 4.52561 4.52561C5.18199 3.86924 6.07223 3.50049 7.00049 3.50049H21.0005ZM9.33382 11.6672C9.0244 11.6672 8.72766 11.7901 8.50886 12.0089C8.29007 12.2277 8.16715 12.5244 8.16715 12.8338V18.6672C8.16715 18.9766 8.29007 19.2733 8.50886 19.4921C8.72766 19.7109 9.0244 19.8338 9.33382 19.8338C9.64324 19.8338 9.93999 19.7109 10.1588 19.4921C10.3776 19.2733 10.5005 18.9766 10.5005 18.6672V12.8338C10.5005 12.5244 10.3776 12.2277 10.1588 12.0089C9.93999 11.7901 9.64324 11.6672 9.33382 11.6672ZM12.8338 10.5005C12.5244 10.5005 12.2277 10.6234 12.0089 10.8422C11.7901 11.061 11.6672 11.3577 11.6672 11.6672V18.6672C11.6672 18.9766 11.7901 19.2733 12.0089 19.4921C12.2277 19.7109 12.5244 19.8338 12.8338 19.8338C13.1432 19.8338 13.44 19.7109 13.6588 19.4921C13.8776 19.2733 14.0005 18.9766 14.0005 18.6672V14.3972C14.3563 13.9958 14.9572 13.5245 15.6257 13.2387C16.0142 13.073 16.5987 13.0053 17.0047 13.1337C17.1393 13.1678 17.2593 13.2448 17.3465 13.353C17.4072 13.4347 17.5005 13.6167 17.5005 14.0005V18.6672C17.5005 18.9766 17.6234 19.2733 17.8422 19.4921C18.061 19.7109 18.3577 19.8338 18.6672 19.8338C18.9766 19.8338 19.2733 19.7109 19.4921 19.4921C19.7109 19.2733 19.8338 18.9766 19.8338 18.6672V14.0005C19.8338 13.2188 19.6355 12.5235 19.2225 11.9658C18.8425 11.4601 18.3106 11.0893 17.7047 10.9077C16.6523 10.5775 15.4868 10.7607 14.7087 11.0943C14.4595 11.2015 14.2168 11.323 13.9818 11.4583C13.9329 11.1895 13.7912 10.9464 13.5814 10.7713C13.3716 10.5963 13.107 10.5004 12.8338 10.5005ZM9.33382 8.16715C9.0244 8.16715 8.72766 8.29007 8.50886 8.50886C8.29007 8.72766 8.16715 9.0244 8.16715 9.33382C8.16715 9.64324 8.29007 9.93999 8.50886 10.1588C8.72766 10.3776 9.0244 10.5005 9.33382 10.5005C9.64324 10.5005 9.93999 10.3776 10.1588 10.1588C10.3776 9.93999 10.5005 9.64324 10.5005 9.33382C10.5005 9.0244 10.3776 8.72766 10.1588 8.50886C9.93999 8.29007 9.64324 8.16715 9.33382 8.16715Z" fill="#FEFEFE"/>
</g>
<defs>
<clipPath id="clip0_61_1013">
<rect width="28" height="28" fill="white"/>
</clipPath>
</defs>
</svg>
