<svg width="357" height="264" viewBox="0 0 357 264" fill="none" xmlns="http://www.w3.org/2000/svg">
<path d="M321.159 245.133H297.523V245.311H321.159V245.133Z" fill="#EBEBEB"/>
<path d="M236.463 247.074H230.261V247.252H236.463V247.074Z" fill="#EBEBEB"/>
<path d="M296.809 238.51H283.114V238.688H296.809V238.51Z" fill="#EBEBEB"/>
<path d="M68.3481 239.709H37.5254V239.887H68.3481V239.709Z" fill="#EBEBEB"/>
<path d="M79.2232 239.709H74.7058V239.887H79.2232V239.709Z" fill="#EBEBEB"/>
<path d="M160.766 242.72H93.9109V242.899H160.766V242.72Z" fill="#EBEBEB"/>
<path d="M170.221 201.821H32.4148C31.3341 201.821 30.2976 201.392 29.5334 200.627C28.7692 199.863 28.3398 198.827 28.3398 197.746V4.03927C28.3493 2.96472 28.7827 1.93739 29.5459 1.18088C30.3091 0.424382 31.3402 -4.11963e-05 32.4148 2.99916e-09H170.221C170.756 2.99916e-09 171.286 0.105401 171.781 0.310187C172.275 0.514972 172.724 0.815133 173.103 1.19353C173.481 1.57192 173.781 2.02114 173.986 2.51554C174.191 3.00994 174.296 3.53982 174.296 4.07496V197.746C174.296 198.281 174.191 198.811 173.986 199.305C173.781 199.8 173.481 200.249 173.103 200.627C172.724 201.006 172.275 201.306 171.781 201.511C171.286 201.716 170.756 201.821 170.221 201.821ZM32.4148 0.142731C31.382 0.144618 30.3919 0.55575 29.6616 1.28609C28.9313 2.01642 28.5201 3.00643 28.5183 4.03927V197.746C28.5201 198.779 28.9313 199.769 29.6616 200.499C30.3919 201.23 31.382 201.641 32.4148 201.643H170.221C171.254 201.641 172.244 201.23 172.974 200.499C173.705 199.769 174.116 198.779 174.118 197.746V4.03927C174.116 3.00643 173.705 2.01642 172.974 1.28609C172.244 0.55575 171.254 0.144618 170.221 0.142731H32.4148Z" fill="#EBEBEB"/>
<path d="M324.585 201.821H186.779C185.698 201.821 184.661 201.392 183.897 200.627C183.133 199.863 182.704 198.827 182.704 197.746V4.03927C182.713 2.96472 183.146 1.93739 183.91 1.18088C184.673 0.424382 185.704 -4.11963e-05 186.779 2.99916e-09H324.585C325.666 2.99917e-09 326.702 0.429325 327.466 1.19353C328.231 1.95773 328.66 2.99421 328.66 4.07496V197.746C328.66 198.827 328.231 199.863 327.466 200.627C326.702 201.392 325.666 201.821 324.585 201.821ZM186.779 0.142731C185.746 0.144618 184.756 0.55575 184.025 1.28609C183.295 2.01642 182.884 3.00643 182.882 4.03927V197.746C182.884 198.779 183.295 199.769 184.025 200.499C184.756 201.23 185.746 201.641 186.779 201.643H324.585C325.618 201.641 326.608 201.23 327.338 200.499C328.068 199.769 328.48 198.779 328.481 197.746V4.03927C328.48 3.00643 328.068 2.01642 327.338 1.28609C326.608 0.55575 325.618 0.144618 324.585 0.142731H186.779Z" fill="#EBEBEB"/>
<path d="M356.913 233.65H0.0869141V233.828H356.913V233.65Z" fill="#EBEBEB"/>
<path d="M282.907 196.64H300.927C301.697 196.641 302.46 196.49 303.171 196.196C303.883 195.902 304.53 195.47 305.075 194.926C305.619 194.382 306.052 193.736 306.347 193.025C306.641 192.313 306.793 191.551 306.793 190.781V164.44C306.793 164.156 306.68 163.884 306.48 163.683C306.279 163.482 306.007 163.369 305.723 163.369C305.439 163.369 305.167 163.482 304.966 163.683C304.765 163.884 304.652 164.156 304.652 164.44V190.781C304.65 191.768 304.257 192.713 303.559 193.41C302.86 194.107 301.914 194.499 300.927 194.499H282.907V196.64Z" fill="#E0E0E0"/>
<path d="M277.755 221.896V197.361L276.328 196.904C275.537 196.656 274.847 196.163 274.357 195.495C273.866 194.828 273.602 194.021 273.602 193.193H287.19C287.19 194.021 286.925 194.828 286.435 195.495C285.944 196.163 285.254 196.656 284.463 196.904L283.036 197.361V221.896L294.326 226.942V229.082L280.389 224.215L266.458 229.082V226.942L277.755 221.896Z" fill="#E0E0E0"/>
<path d="M262.618 194.499H298.165C299.187 194.499 300.168 194.093 300.892 193.371C301.616 192.648 302.024 191.668 302.026 190.645C302.026 189.621 301.619 188.639 300.895 187.915C300.171 187.191 299.189 186.784 298.165 186.784H262.618C261.594 186.784 260.612 187.191 259.888 187.915C259.164 188.639 258.757 189.621 258.757 190.645C258.759 191.668 259.166 192.648 259.89 193.371C260.614 194.093 261.595 194.499 262.618 194.499Z" fill="#F0F0F0"/>
<path d="M304.437 173.71L306.357 146.299C306.428 145.28 306.092 144.275 305.423 143.503C304.754 142.731 303.807 142.256 302.789 142.181C301.771 142.11 300.766 142.446 299.996 143.115C299.225 143.784 298.751 144.732 298.678 145.749L296.758 173.182C296.686 174.201 297.021 175.208 297.69 175.98C298.359 176.752 299.307 177.227 300.327 177.3C301.348 177.369 302.354 177.029 303.125 176.356C303.896 175.683 304.368 174.731 304.437 173.71Z" fill="#EBEBEB"/>
<path d="M291.893 230.617C291.893 231.1 292.036 231.572 292.305 231.973C292.573 232.375 292.955 232.688 293.401 232.872C293.848 233.057 294.339 233.105 294.812 233.01C295.286 232.915 295.721 232.682 296.062 232.34C296.403 231.998 296.635 231.562 296.728 231.088C296.822 230.615 296.772 230.124 296.586 229.678C296.401 229.232 296.087 228.851 295.684 228.584C295.282 228.317 294.809 228.175 294.326 228.176C293.68 228.178 293.061 228.436 292.605 228.893C292.149 229.351 291.893 229.971 291.893 230.617Z" fill="#E0E0E0"/>
<path d="M264.017 230.617C264.017 231.099 264.16 231.571 264.429 231.973C264.697 232.374 265.078 232.687 265.524 232.872C265.97 233.056 266.461 233.105 266.934 233.01C267.408 232.916 267.843 232.684 268.184 232.343C268.525 232.001 268.758 231.566 268.852 231.093C268.946 230.619 268.898 230.129 268.713 229.683C268.528 229.237 268.215 228.856 267.814 228.587C267.413 228.319 266.941 228.176 266.458 228.176C265.811 228.176 265.19 228.433 264.732 228.891C264.274 229.349 264.017 229.969 264.017 230.617Z" fill="#E0E0E0"/>
<path d="M71.6365 196.64H53.6096C52.8396 196.641 52.0769 196.49 51.3653 196.196C50.6536 195.902 50.0068 195.47 49.462 194.926C48.9172 194.382 48.485 193.736 48.1901 193.025C47.8952 192.313 47.7434 191.551 47.7434 190.781V164.44C47.7434 164.156 47.8562 163.884 48.0569 163.683C48.2577 163.482 48.53 163.369 48.8139 163.369C49.0978 163.369 49.3701 163.482 49.5708 163.683C49.7716 163.884 49.8844 164.156 49.8844 164.44V190.781C49.8863 191.768 50.2796 192.713 50.978 193.41C51.6764 194.107 52.6229 194.499 53.6096 194.499H71.6294L71.6365 196.64Z" fill="#E0E0E0"/>
<path d="M76.7905 221.896V197.361L78.2178 196.904C79.0081 196.656 79.6987 196.163 80.1891 195.495C80.6794 194.828 80.9439 194.021 80.944 193.193H67.3846C67.3846 194.021 67.6491 194.828 68.1394 195.495C68.6298 196.163 69.3204 196.656 70.1107 196.904L71.538 197.361V221.896L60.2195 226.942V229.082L74.1571 224.215L88.0948 229.082V226.942L76.7905 221.896Z" fill="#E0E0E0"/>
<path d="M91.9269 194.499H56.3799C55.3572 194.499 54.3762 194.093 53.6524 193.371C52.9285 192.648 52.5209 191.668 52.519 190.645C52.519 189.621 52.9258 188.639 53.6499 187.915C54.3739 187.191 55.3559 186.784 56.3799 186.784H91.9269C92.9509 186.784 93.9329 187.191 94.657 187.915C95.381 188.639 95.7878 189.621 95.7878 190.645C95.7859 191.668 95.3783 192.648 94.6545 193.371C93.9306 194.093 92.9497 194.499 91.9269 194.499Z" fill="#F0F0F0"/>
<path d="M50.106 173.71L48.1863 146.299C48.1156 145.28 48.4513 144.275 49.1201 143.503C49.7888 142.731 50.7361 142.256 51.7545 142.181C52.7725 142.11 53.777 142.446 54.5476 143.115C55.3182 143.784 55.792 144.732 55.8652 145.749L57.7849 173.182C57.8575 174.201 57.5224 175.208 56.8533 175.98C56.1842 176.752 55.2358 177.227 54.2166 177.3C53.1956 177.369 52.1892 177.029 51.4184 176.356C50.6476 175.683 50.1756 174.731 50.106 173.71Z" fill="#EBEBEB"/>
<path d="M62.6519 230.617C62.6519 231.1 62.5086 231.572 62.2401 231.973C61.9716 232.375 61.59 232.688 61.1436 232.872C60.6972 233.057 60.2061 233.105 59.7324 233.01C59.2588 232.915 58.8239 232.682 58.4828 232.34C58.1418 231.998 57.9099 231.562 57.8165 231.088C57.7232 230.615 57.7725 230.124 57.9583 229.678C58.1442 229.232 58.4581 228.851 58.8604 228.584C59.2627 228.317 59.7353 228.175 60.2183 228.176C60.8644 228.178 61.4834 228.436 61.9396 228.893C62.3957 229.351 62.6519 229.971 62.6519 230.617Z" fill="#E0E0E0"/>
<path d="M90.5274 230.617C90.5274 231.1 90.3841 231.572 90.1156 231.973C89.847 232.375 89.4654 232.688 89.019 232.872C88.5727 233.057 88.0815 233.105 87.6079 233.01C87.1343 232.915 86.6994 232.682 86.3583 232.34C86.0173 231.998 85.7854 231.562 85.692 231.088C85.5987 230.615 85.648 230.124 85.8338 229.678C86.0197 229.232 86.3336 228.851 86.7359 228.584C87.1382 228.317 87.6108 228.175 88.0938 228.176C88.7399 228.178 89.3589 228.436 89.815 228.893C90.2712 229.351 90.5274 229.971 90.5274 230.617Z" fill="#E0E0E0"/>
<path d="M148.22 233.857H134.297L132.87 207.466H149.648L148.22 233.857Z" fill="#EBEBEB"/>
<path d="M137.508 233.857H131.799V232.687L137.508 231.973V233.857Z" fill="#E0E0E0"/>
<path d="M134.968 205.325H147.5C148.067 205.325 148.612 205.551 149.013 205.952C149.415 206.354 149.64 206.898 149.64 207.466H132.87C132.87 206.898 133.095 206.354 133.497 205.952C133.898 205.551 134.443 205.325 135.011 205.325H134.968Z" fill="#E0E0E0"/>
<path d="M119.666 165.418H97.3933V162.749L119.666 161.321V165.418Z" fill="#E0E0E0"/>
<path d="M152.616 168.136H86.7241V177.257H152.616V168.136Z" fill="#F0F0F0"/>
<path d="M166.274 165.418H73.2998V170.856H166.274V165.418Z" fill="#FAFAFA"/>
<path d="M157.64 233.857H161.836L154.571 170.856H149.647L157.64 233.857Z" fill="#E6E6E6"/>
<path d="M89.9287 170.856H85.0045L77.7324 233.857H81.9358L89.9287 170.856Z" fill="#E6E6E6"/>
<path d="M142.232 164.062C140.329 154.608 138.426 145.154 136.523 135.701C136.244 134.345 134.182 134.923 134.453 136.265L139.891 163.277H128.116C127.832 163.277 127.56 163.389 127.359 163.59C127.158 163.791 127.045 164.063 127.045 164.347C127.045 164.631 127.158 164.903 127.359 165.104C127.56 165.305 127.832 165.417 128.116 165.417H141.197C141.361 165.414 141.522 165.373 141.668 165.299C141.814 165.225 141.941 165.118 142.041 164.988C142.14 164.858 142.209 164.707 142.242 164.547C142.275 164.386 142.272 164.22 142.232 164.062Z" fill="#E0E0E0"/>
<path d="M128.9 156.454L132.569 104.008C133.922 104.977 135.005 106.277 135.713 107.784C136.422 109.29 136.732 110.954 136.615 112.614L134.11 148.497C133.993 150.158 133.452 151.761 132.541 153.153C131.629 154.546 130.376 155.683 128.9 156.454Z" fill="#FAFAFA"/>
<path d="M157.483 150.174H151.517C150.374 150.174 149.448 151.101 149.448 152.244V163.348C149.448 164.491 150.374 165.418 151.517 165.418H157.483C158.626 165.418 159.553 164.491 159.553 163.348V152.244C159.553 151.101 158.626 150.174 157.483 150.174Z" fill="#F5F5F5"/>
<path d="M153.444 144.493C151.867 144.493 150.589 144.886 150.589 145.371C150.589 145.856 151.874 145.2 153.444 145.2C153.651 145.2 153.851 145.2 154.051 145.2V148.661H154.95V145.335C155.763 145.492 156.299 145.649 156.299 145.335C156.299 144.871 155.021 144.493 153.444 144.493Z" fill="#E0E0E0"/>
<path d="M156.106 147.562H152.887V150.781H156.106V147.562Z" fill="#F0F0F0"/>
<path d="M201.929 177.257H267.821V168.137H201.929V177.257Z" fill="#F0F0F0"/>
<path d="M188.276 170.856H281.25V165.418H188.276V170.856Z" fill="#FAFAFA"/>
<path d="M196.906 233.857H192.709L199.974 170.856H204.899L196.906 233.857Z" fill="#E6E6E6"/>
<path d="M264.624 170.856H269.541L276.813 233.857H272.61L264.624 170.856Z" fill="#E6E6E6"/>
<path d="M248.809 165.418H271.082V162.749L248.809 161.321V165.418Z" fill="#E0E0E0"/>
<path d="M204 117.546V165.418H207.09L207.803 161.136C207.934 160.385 208.326 159.704 208.909 159.213C209.493 158.722 210.231 158.453 210.993 158.452H239.803C240.566 158.453 241.304 158.722 241.887 159.213C242.471 159.704 242.862 160.385 242.993 161.136L243.707 165.418H246.797V117.546H204Z" fill="#F5F5F5"/>
<path d="M217.844 164.062C219.747 154.608 221.65 145.154 223.553 135.701C223.832 134.345 225.894 134.923 225.623 136.265L220.185 163.277H231.96C232.244 163.277 232.516 163.389 232.717 163.59C232.918 163.791 233.031 164.063 233.031 164.347C233.031 164.631 232.918 164.903 232.717 165.104C232.516 165.305 232.244 165.417 231.96 165.417H218.879C218.715 165.414 218.554 165.373 218.408 165.299C218.262 165.225 218.135 165.118 218.036 164.988C217.936 164.858 217.867 164.707 217.834 164.547C217.801 164.386 217.805 164.22 217.844 164.062Z" fill="#E0E0E0"/>
<path d="M231.175 156.454L227.506 104.008C226.153 104.977 225.07 106.277 224.361 107.784C223.653 109.29 223.343 110.954 223.46 112.614L225.965 148.497C226.081 150.158 226.621 151.761 227.533 153.155C228.445 154.548 229.699 155.684 231.175 156.454Z" fill="#E0E0E0"/>
<path d="M155.421 66.3269H38.5029V137.571H155.421V66.3269Z" fill="#EBEBEB"/>
<path d="M156.291 66.2983H155.435V137.542H156.291V66.2983Z" fill="#E0E0E0"/>
<path d="M42.7483 69.4172H42.0417V133.525H42.7483V69.4172Z" fill="#E0E0E0"/>
<path d="M151.609 69.4172H41.9709V133.525H151.609V69.4172Z" fill="white"/>
<path d="M80.8079 97.6563V100.711H87.9301V97.6563H80.8079Z" fill="#F5F5F5"/>
<path d="M82.1995 120.643V123.02H89.3217V120.643H82.1995Z" fill="#F5F5F5"/>
<path d="M83.3561 96.6572H60.2195V129.171H83.3561V96.6572Z" fill="#F0F0F0"/>
<path d="M80.6001 125.896V128.272H87.7224V125.896H80.6001Z" fill="#F5F5F5"/>
<path d="M81.7854 104.158V106.534H88.9077V104.158H81.7854Z" fill="#F5F5F5"/>
<path d="M80.2227 110.06V112.436H87.3449V110.06H80.2227Z" fill="#F5F5F5"/>
<path d="M78.718 100.654H62.9463V103.451H78.718V100.654Z" fill="#E6E6E6"/>
<path d="M78.9678 112.607H63.1961L62.9463 111.337H78.7109L78.9678 112.607Z" fill="#E6E6E6"/>
<path d="M68.5413 106.249H62.9463V109.046H68.5413V106.249Z" fill="#E6E6E6"/>
<path d="M116.191 90.7837H107.156V103.758H116.191V90.7837Z" fill="#F5F5F5"/>
<path d="M56.2868 111.344H47.252V124.318H56.2868V111.344Z" fill="#F5F5F5"/>
<path d="M57.5139 74.063H48.479V83.0978H57.5139V74.063Z" fill="#F5F5F5"/>
<path d="M100.348 115.483H91.3127V124.518H100.348V115.483Z" fill="#F5F5F5"/>
<path d="M144.722 91.9043H121.586V124.418H144.722V91.9043Z" fill="#F5F5F5"/>
<path d="M141.376 96.6072H124.755V96.964H141.376V96.6072Z" fill="#E0E0E0"/>
<path d="M133.24 96.9568H132.883V121.035H133.24V96.9568Z" fill="#E0E0E0"/>
<path d="M140.877 96.9568H140.52V121.035H140.877V96.9568Z" fill="#E0E0E0"/>
<path d="M126.461 96.9568H126.104V121.035H126.461V96.9568Z" fill="#E0E0E0"/>
<path d="M125.268 96.9568H124.911V121.035H125.268V96.9568Z" fill="#E0E0E0"/>
<path d="M140.519 98.2271H125.09V98.5839H140.519V98.2271Z" fill="#E0E0E0"/>
<path d="M175.061 263.131C251.481 263.131 313.431 259.514 313.431 255.052C313.431 250.591 251.481 246.974 175.061 246.974C98.6411 246.974 36.6907 250.591 36.6907 255.052C36.6907 259.514 98.6411 263.131 175.061 263.131Z" fill="#F5F5F5"/>
<path d="M196.483 107.098C196.483 111.302 194.815 115.334 191.844 118.308C188.874 121.283 184.844 122.957 180.64 122.962H174.874V138.077H159.231V144.279C159.143 148.427 157.433 152.376 154.468 155.279C151.503 158.182 147.519 159.807 143.37 159.807C139.221 159.807 135.236 158.182 132.271 155.279C129.307 152.376 127.597 148.427 127.509 144.279V138.077H112.9V122.962H106.263C102.056 122.962 98.0207 121.291 95.0455 118.316C92.0704 115.341 90.3989 111.305 90.3989 107.098C90.3989 102.89 92.0704 98.8551 95.0455 95.8799C98.0207 92.9048 102.056 91.2333 106.263 91.2333H112.9V76.1182H128.016V82.7837C127.971 84.8949 128.348 86.9938 129.125 88.9573C129.902 90.9208 131.063 92.7095 132.54 94.2184C134.018 95.7274 135.781 96.9262 137.728 97.7446C139.674 98.5631 141.765 98.9846 143.876 98.9846C145.988 98.9846 148.079 98.5631 150.025 97.7446C151.972 96.9262 153.735 95.7274 155.213 94.2184C156.69 92.7095 157.851 90.9208 158.628 88.9573C159.405 86.9938 159.782 84.8949 159.737 82.7837V76.1467H174.853V91.2619H180.64C184.839 91.2675 188.865 92.9375 191.834 95.9059C194.804 98.8743 196.476 102.899 196.483 107.098Z" fill="#33A852"/>
<g opacity="0.5">
<path d="M196.483 107.098C196.483 111.302 194.815 115.334 191.844 118.308C188.874 121.283 184.844 122.957 180.64 122.962H174.874V138.077H159.231V144.279C159.143 148.427 157.433 152.376 154.468 155.279C151.503 158.182 147.519 159.807 143.37 159.807C139.221 159.807 135.236 158.182 132.271 155.279C129.307 152.376 127.597 148.427 127.509 144.279V138.077H112.9V122.962H106.263C102.056 122.962 98.0207 121.291 95.0455 118.316C92.0704 115.341 90.3989 111.305 90.3989 107.098C90.3989 102.89 92.0704 98.8551 95.0455 95.8799C98.0207 92.9048 102.056 91.2333 106.263 91.2333H112.9V76.1182H128.016V82.7837C127.971 84.8949 128.348 86.9938 129.125 88.9573C129.902 90.9208 131.063 92.7095 132.54 94.2184C134.018 95.7274 135.781 96.9262 137.728 97.7446C139.674 98.5631 141.765 98.9846 143.876 98.9846C145.988 98.9846 148.079 98.5631 150.025 97.7446C151.972 96.9262 153.735 95.7274 155.213 94.2184C156.69 92.7095 157.851 90.9208 158.628 88.9573C159.405 86.9938 159.782 84.8949 159.737 82.7837V76.1467H174.853V91.2619H180.64C184.839 91.2675 188.865 92.9375 191.834 95.9059C194.804 98.8743 196.476 102.899 196.483 107.098Z" fill="white"/>
</g>
<path d="M180.698 122.884H174.061V137.999H236.021V122.884H241.78C245.987 122.884 250.022 121.213 252.998 118.237C255.973 115.262 257.644 111.227 257.644 107.019C257.644 102.812 255.973 98.7767 252.998 95.8016C250.022 92.8264 245.987 91.155 241.78 91.155H236.021V76.0398H220.905V69.4028C220.905 65.1953 219.234 61.1601 216.259 58.1849C213.284 55.2098 209.248 53.5383 205.041 53.5383C200.833 53.5383 196.798 55.2098 193.823 58.1849C190.848 61.1601 189.176 65.1953 189.176 69.4028V76.0398H174.061V91.155H180.698C184.906 91.155 188.941 92.8264 191.916 95.8016C194.891 98.7767 196.563 102.812 196.563 107.019C196.563 111.227 194.891 115.262 191.916 118.237C188.941 121.213 184.906 122.884 180.698 122.884Z" fill="#33A852"/>
<g opacity="0.3">
<path d="M180.698 122.884H174.061V137.999H236.02V122.884H241.78C245.987 122.884 250.022 121.213 252.997 118.237C255.973 115.262 257.644 111.227 257.644 107.019C257.644 102.812 255.973 98.7767 252.997 95.8016C250.022 92.8264 245.987 91.155 241.78 91.155H236.02V76.0398H220.905V69.4028C220.905 65.1953 219.234 61.1601 216.259 58.1849C213.283 55.2098 209.248 53.5383 205.041 53.5383C200.833 53.5383 196.798 55.2098 193.823 58.1849C190.848 61.1601 189.176 65.1953 189.176 69.4028V76.0398H174.061V91.155H180.698C184.906 91.155 188.941 92.8264 191.916 95.8016C194.891 98.7767 196.563 102.812 196.563 107.019C196.563 111.227 194.891 115.262 191.916 118.237C188.941 121.213 184.906 122.884 180.698 122.884Z" fill="white"/>
</g>
<path d="M184.48 69.0317L183.145 68.6963C181.709 68.4007 180.309 67.9484 178.97 67.3475L178.792 67.2618C177.479 66.6267 175.838 65.8345 175.488 63.0727C175.482 62.8984 175.415 62.7318 175.299 62.6015C175.183 62.4712 175.025 62.3855 174.853 62.359C162.621 61.7667 158.36 55.2939 158.353 48.086C158.353 41.0208 162.999 34.3482 176.194 34.1912C188.426 34.0413 194.549 41.5703 194.178 49.3277C193.936 54.2805 190.053 61.0673 182.667 62.6088C181.761 62.9157 180.148 62.9728 179.584 63.7863C179.458 63.9835 179.392 64.2126 179.392 64.4465C179.392 64.6804 179.458 64.9094 179.584 65.1066C179.849 65.5121 180.174 65.8754 180.548 66.1842C181.861 67.3118 184.48 69.0317 184.48 69.0317Z" fill="white"/>
<path d="M184.481 69.3883H184.395L183.061 69.0601C181.599 68.7561 180.176 68.2943 178.814 67.6827L178.643 67.5971C177.323 66.9619 175.51 66.0913 175.139 63.1296C175.139 63.0654 175.075 62.7157 174.832 62.7014C160.195 61.9878 158.004 53.2455 157.997 48.1001C157.997 43.8824 159.76 34.0483 176.195 33.827C183.953 33.7485 188.327 36.596 190.668 39.0224C191.99 40.383 193.016 42.0018 193.683 43.7776C194.35 45.5533 194.643 47.4476 194.543 49.3418C194.299 52.5714 193.024 55.6372 190.907 58.0883C188.79 60.5395 185.942 62.2465 182.782 62.9583C182.483 63.0547 182.178 63.1309 181.869 63.1867C181.105 63.3437 180.242 63.5221 179.92 63.9931C179.833 64.1306 179.786 64.2903 179.786 64.4534C179.786 64.6165 179.833 64.7762 179.92 64.9137C180.167 65.289 180.467 65.6257 180.813 65.9128C182.09 67.0119 184.681 68.7104 184.709 68.7318C184.779 68.7772 184.83 68.846 184.854 68.9258C184.877 69.0056 184.871 69.0911 184.838 69.1671C184.809 69.237 184.759 69.296 184.695 69.3358C184.631 69.3755 184.556 69.3939 184.481 69.3883ZM176.566 34.5407H176.202C160.402 34.7334 158.704 44.0679 158.711 48.1001C158.711 52.9957 160.816 61.3098 174.868 61.9878C175.131 62.0154 175.375 62.1377 175.555 62.332C175.735 62.5263 175.838 62.7793 175.846 63.044C176.174 65.6131 177.644 66.3268 178.95 66.9548L179.128 67.0404C180.253 67.557 181.43 67.9517 182.639 68.2179C181.847 67.6684 180.941 67.0047 180.32 66.4695C179.92 66.1364 179.574 65.7441 179.292 65.3062C179.125 65.0535 179.035 64.7568 179.035 64.4534C179.035 64.15 179.125 63.8534 179.292 63.6006C179.771 62.887 180.784 62.6871 181.683 62.5016C182.004 62.4302 182.318 62.366 182.554 62.2875C185.574 61.6227 188.301 60.0037 190.33 57.6698C192.359 55.336 193.584 52.4111 193.822 49.3276C193.918 47.5303 193.641 45.7327 193.008 44.0477C192.376 42.3627 191.402 40.8267 190.147 39.5362C187.949 37.2383 183.81 34.5407 176.566 34.5407Z" fill="#33A852"/>
<path d="M169.936 66.0344C170.785 65.0709 171.184 64.1075 170.97 63.2226C170.528 61.3599 168.879 61.3885 167.816 61.0317C160.43 59.483 156.547 54.1306 156.305 49.1779C155.934 41.4205 162.057 33.8843 174.289 34.0342C187.491 34.1983 192.13 40.871 192.13 47.929C192.13 55.1155 187.848 61.5883 175.63 62.2021C175.224 62.2021 175.038 62.5946 174.988 62.9157C174.646 65.6775 173.004 66.484 171.691 67.1048L171.513 67.1905C170.173 67.7883 168.774 68.2405 167.338 68.5393L166.003 68.8676C166.003 68.8676 168.772 67.3332 169.936 66.0344Z" fill="white"/>
<path d="M165.983 69.2242C165.911 69.2253 165.841 69.2047 165.781 69.1653C165.721 69.1258 165.675 69.0693 165.647 69.003C165.616 68.9227 165.614 68.8336 165.643 68.7523C165.672 68.6709 165.729 68.6028 165.804 68.5605C165.804 68.5605 168.559 67.0261 169.644 65.7915C170.45 64.8638 170.771 64.0288 170.6 63.3009C170.293 62.0092 169.358 61.7879 168.374 61.5524C168.131 61.4953 167.888 61.4382 167.66 61.3669C159.881 59.7397 156.142 54.0733 155.906 49.192C155.807 47.2967 156.1 45.4014 156.767 43.6245C157.433 41.8477 158.46 40.2275 159.781 38.8654C162.122 36.4461 166.497 33.5701 174.254 33.67C190.668 33.877 192.459 43.704 192.452 47.9431C192.452 53.0885 190.254 61.8379 175.617 62.5444C175.375 62.5444 175.317 62.9012 175.31 62.9726C174.939 65.9271 173.126 66.8049 171.806 67.4401L171.635 67.5257C170.261 68.1365 168.825 68.5982 167.353 68.903L166.011 69.2313L165.983 69.2242ZM173.897 34.3837C166.647 34.3837 162.479 37.0813 160.338 39.3792C159.083 40.6697 158.109 42.2057 157.477 43.8907C156.844 45.5757 156.567 47.3733 156.663 49.1705C156.884 53.7807 160.445 59.1617 167.888 60.6889C168.124 60.7674 168.345 60.8174 168.602 60.8745C169.587 61.11 170.943 61.4311 171.349 63.1439C171.578 64.1144 171.207 65.1635 170.236 66.2768C169.61 66.9284 168.911 67.5055 168.152 67.9967C169.267 67.7353 170.352 67.3624 171.392 66.8834L171.571 66.7978C172.87 66.1698 174.347 65.4561 174.675 62.8869C174.679 62.6213 174.781 62.3666 174.962 62.1717C175.142 61.9768 175.388 61.8553 175.653 61.8307C189.698 61.1528 191.803 52.8387 191.81 47.9359C191.81 43.9323 190.119 34.5978 174.311 34.3765L173.897 34.3837Z" fill="#33A852"/>
<path d="M170.215 48.6352L173.327 51.7467L180.356 46.0518" fill="white"/>
<path d="M173.326 52.4607C173.232 52.4612 173.139 52.4432 173.052 52.4077C172.965 52.3722 172.886 52.3198 172.819 52.2537L169.708 49.1422C169.633 49.0782 169.572 48.9995 169.529 48.9109C169.487 48.8224 169.463 48.726 169.459 48.6277C169.455 48.5294 169.472 48.4314 169.507 48.3398C169.543 48.2482 169.598 48.165 169.667 48.0955C169.737 48.0259 169.82 47.9715 169.912 47.9357C170.003 47.8998 170.101 47.8832 170.199 47.887C170.298 47.8908 170.394 47.9149 170.483 47.9577C170.571 48.0005 170.65 48.0612 170.714 48.1359L173.376 50.7907L179.906 45.5026C179.978 45.4379 180.062 45.3885 180.154 45.3574C180.245 45.3264 180.342 45.3142 180.439 45.3217C180.535 45.3293 180.629 45.3563 180.714 45.4013C180.8 45.4462 180.876 45.508 180.937 45.5831C180.998 45.6581 181.043 45.7448 181.069 45.8378C181.096 45.9308 181.103 46.0282 181.091 46.1241C181.078 46.2201 181.047 46.3125 180.998 46.3958C180.949 46.4791 180.883 46.5515 180.805 46.6087L173.776 52.3179C173.646 52.4151 173.488 52.4654 173.326 52.4607Z" fill="#33A852"/>
<path d="M264.224 31.7077C264.409 31.7745 264.61 31.7793 264.798 31.7214C264.986 31.6634 265.15 31.5459 265.266 31.3866L270.675 23.8362C270.745 23.7411 270.795 23.633 270.822 23.5182C270.85 23.4035 270.854 23.2845 270.835 23.1681C270.815 23.0518 270.773 22.9405 270.71 22.8407C270.647 22.741 270.565 22.6548 270.468 22.5873C270.275 22.4502 270.035 22.395 269.801 22.4337C269.567 22.4725 269.358 22.6021 269.219 22.7942L263.81 30.3447C263.74 30.4398 263.69 30.5479 263.663 30.6626C263.635 30.7773 263.631 30.8963 263.65 31.0127C263.67 31.129 263.712 31.2404 263.775 31.3401C263.838 31.4399 263.92 31.526 264.017 31.5936C264.08 31.6412 264.15 31.6796 264.224 31.7077Z" fill="#33A852"/>
<path d="M270.618 41.6489C270.764 41.7024 270.922 41.7172 271.075 41.6917L280.046 40.2073C280.267 40.1544 280.46 40.0196 280.586 39.8302C280.711 39.6407 280.761 39.4105 280.724 39.1861C280.687 38.9617 280.566 38.7597 280.386 38.6208C280.206 38.4819 279.98 38.4164 279.753 38.4375L270.782 39.9219C270.588 39.9556 270.41 40.0523 270.276 40.197C270.142 40.3417 270.06 40.5264 270.041 40.7227C270.022 40.919 270.069 41.116 270.173 41.2834C270.277 41.4507 270.434 41.5792 270.618 41.6489Z" fill="#33A852"/>
<path d="M243.057 35.4045C243.26 35.476 243.482 35.4724 243.683 35.3943C243.883 35.3161 244.049 35.1687 244.15 34.9786C244.251 34.7886 244.281 34.5687 244.233 34.3587C244.186 34.1487 244.065 33.9627 243.892 33.8344L236.113 28.2608C235.924 28.159 235.704 28.1292 235.494 28.177C235.284 28.2248 235.098 28.347 234.971 28.5209C234.844 28.6948 234.784 28.9088 234.803 29.1233C234.821 29.3378 234.917 29.5384 235.071 29.6881L242.85 35.2617C242.912 35.3194 242.982 35.3675 243.057 35.4045Z" fill="#33A852"/>
<path d="M275.3 58.5194C275.504 58.595 275.728 58.5944 275.931 58.5176C276.134 58.4407 276.303 58.2929 276.405 58.1015C276.508 57.91 276.538 57.6879 276.489 57.4761C276.441 57.2643 276.318 57.0772 276.142 56.9494L268.827 51.704C268.731 51.6351 268.622 51.5859 268.507 51.559C268.392 51.5321 268.273 51.5282 268.156 51.5474C268.039 51.5666 267.928 51.6086 267.827 51.671C267.727 51.7334 267.64 51.8149 267.571 51.911C267.502 52.007 267.453 52.1157 267.426 52.2308C267.399 52.346 267.395 52.4652 267.414 52.5819C267.434 52.6985 267.476 52.8102 267.538 52.9106C267.6 53.011 267.682 53.0981 267.778 53.167L275.093 58.4052C275.157 58.4513 275.227 58.4897 275.3 58.5194Z" fill="#33A852"/>
<path d="M252.828 29.2599C252.975 29.3141 253.134 29.3289 253.288 29.3028C253.443 29.2766 253.588 29.2105 253.709 29.111C253.831 29.0114 253.924 28.8819 253.979 28.7352C254.035 28.5886 254.051 28.4299 254.027 28.275L252.478 18.9191C252.467 18.7961 252.43 18.6769 252.37 18.5687C252.311 18.4606 252.23 18.3659 252.132 18.2905C252.034 18.2151 251.922 18.1606 251.802 18.1305C251.683 18.1003 251.558 18.0952 251.436 18.1153C251.314 18.1355 251.198 18.1805 251.094 18.2475C250.991 18.3146 250.902 18.4023 250.834 18.5051C250.765 18.608 250.719 18.7238 250.697 18.8453C250.676 18.9669 250.68 19.0916 250.708 19.2116L252.257 28.5462C252.279 28.7056 252.344 28.8561 252.444 28.9817C252.545 29.1074 252.677 29.2035 252.828 29.2599Z" fill="#33A852"/>
<g opacity="0.5">
<path d="M264.224 31.7077C264.409 31.7745 264.61 31.7793 264.798 31.7214C264.986 31.6634 265.15 31.5459 265.266 31.3866L270.675 23.8362C270.745 23.7411 270.795 23.633 270.822 23.5182C270.85 23.4035 270.854 23.2845 270.835 23.1681C270.815 23.0518 270.773 22.9405 270.71 22.8407C270.647 22.741 270.565 22.6548 270.468 22.5873C270.275 22.4502 270.035 22.395 269.801 22.4337C269.567 22.4725 269.358 22.6021 269.219 22.7942L263.81 30.3447C263.74 30.4398 263.69 30.5479 263.663 30.6626C263.635 30.7773 263.631 30.8963 263.65 31.0127C263.67 31.129 263.712 31.2404 263.775 31.3401C263.838 31.4399 263.92 31.526 264.017 31.5936C264.08 31.6412 264.15 31.6796 264.224 31.7077Z" fill="white"/>
<path d="M270.618 41.6489C270.764 41.7024 270.922 41.7172 271.075 41.6917L280.046 40.2073C280.267 40.1544 280.46 40.0196 280.586 39.8302C280.711 39.6407 280.761 39.4105 280.724 39.1861C280.687 38.9617 280.566 38.7597 280.386 38.6208C280.206 38.4819 279.98 38.4164 279.753 38.4375L270.782 39.9219C270.588 39.9556 270.41 40.0523 270.276 40.197C270.142 40.3417 270.06 40.5264 270.041 40.7227C270.022 40.919 270.069 41.116 270.173 41.2834C270.277 41.4507 270.434 41.5792 270.618 41.6489Z" fill="white"/>
<path d="M243.057 35.4045C243.26 35.476 243.482 35.4724 243.683 35.3943C243.883 35.3161 244.049 35.1687 244.15 34.9786C244.251 34.7886 244.281 34.5687 244.233 34.3587C244.186 34.1487 244.065 33.9627 243.892 33.8344L236.113 28.2608C235.924 28.159 235.704 28.1292 235.494 28.177C235.284 28.2248 235.098 28.347 234.971 28.5209C234.844 28.6948 234.784 28.9088 234.803 29.1233C234.821 29.3378 234.917 29.5384 235.071 29.6881L242.85 35.2617C242.912 35.3194 242.982 35.3675 243.057 35.4045Z" fill="white"/>
<path d="M275.3 58.5194C275.504 58.595 275.728 58.5944 275.931 58.5176C276.134 58.4407 276.303 58.2929 276.405 58.1015C276.508 57.91 276.538 57.6879 276.489 57.4761C276.441 57.2643 276.318 57.0772 276.142 56.9494L268.827 51.704C268.731 51.6351 268.622 51.5859 268.507 51.559C268.392 51.5321 268.273 51.5282 268.156 51.5474C268.039 51.5666 267.928 51.6086 267.827 51.671C267.727 51.7334 267.64 51.8149 267.571 51.911C267.502 52.007 267.453 52.1157 267.426 52.2308C267.399 52.346 267.395 52.4652 267.414 52.5819C267.434 52.6985 267.476 52.8102 267.538 52.9106C267.6 53.011 267.682 53.0981 267.778 53.167L275.093 58.4052C275.157 58.4513 275.227 58.4897 275.3 58.5194Z" fill="white"/>
<path d="M252.828 29.2599C252.975 29.3141 253.134 29.3289 253.288 29.3028C253.443 29.2766 253.588 29.2105 253.709 29.111C253.831 29.0114 253.924 28.8819 253.979 28.7352C254.035 28.5886 254.051 28.4299 254.027 28.275L252.478 18.9191C252.467 18.7961 252.43 18.6769 252.37 18.5687C252.311 18.4606 252.23 18.3659 252.132 18.2905C252.034 18.2151 251.922 18.1606 251.802 18.1305C251.683 18.1003 251.558 18.0952 251.436 18.1153C251.314 18.1355 251.198 18.1805 251.094 18.2475C250.991 18.3146 250.902 18.4023 250.834 18.5051C250.765 18.608 250.719 18.7238 250.697 18.8453C250.676 18.9669 250.68 19.0916 250.708 19.2116L252.257 28.5462C252.279 28.7056 252.344 28.8561 252.444 28.9817C252.545 29.1074 252.677 29.2035 252.828 29.2599Z" fill="white"/>
</g>
<path d="M245.033 37.9593C246.986 35.5461 249.791 33.9735 252.868 33.5653C255.946 33.1571 259.063 33.9444 261.578 35.7652C264.093 37.5859 265.814 40.3014 266.387 43.3528C266.96 46.4041 266.341 49.5591 264.659 52.1681C261.804 56.1004 256.758 56.4929 252.526 58.1771C251.213 58.6981 248.673 62.352 248.673 62.352L240.352 56.3216C240.352 56.3216 243.028 52.7533 243.113 51.3617C243.392 46.8157 242.186 41.8915 245.033 37.9593Z" fill="#33A852"/>
<path opacity="0.4" d="M245.033 37.9593C246.986 35.5461 249.791 33.9735 252.868 33.5653C255.946 33.1571 259.063 33.9444 261.578 35.7652C264.093 37.5859 265.814 40.3014 266.387 43.3528C266.96 46.4041 266.341 49.5591 264.659 52.1681C261.804 56.1004 256.758 56.4929 252.526 58.1771C251.213 58.6981 248.673 62.352 248.673 62.352L240.352 56.3216C240.352 56.3216 243.028 52.7533 243.113 51.3617C243.392 46.8157 242.186 41.8915 245.033 37.9593Z" fill="white"/>
<path d="M240.587 60.9961L244.156 63.5653C244.469 63.7927 244.824 63.9561 245.201 64.0462C245.577 64.1363 245.968 64.1512 246.351 64.0903C246.733 64.0293 247.1 63.8936 247.43 63.6908C247.759 63.4881 248.046 63.2223 248.273 62.9087L239.945 56.8855C239.488 57.5169 239.3 58.3031 239.42 59.073C239.54 59.8429 239.96 60.5341 240.587 60.9961Z" fill="#263238"/>
<path d="M240.588 64.7856C241.104 65.1585 241.747 65.3116 242.375 65.2113C243.004 65.111 243.568 64.7654 243.942 64.2503L240.052 61.4314C239.68 61.9475 239.526 62.5904 239.627 63.2191C239.727 63.8479 240.073 64.4112 240.588 64.7856Z" fill="#263238"/>
<path opacity="0.5" d="M240.588 64.7856C241.104 65.1585 241.747 65.3116 242.375 65.2113C243.004 65.111 243.568 64.7654 243.942 64.2503L240.052 61.4314C239.68 61.9475 239.526 62.5904 239.627 63.2191C239.727 63.8479 240.073 64.4112 240.588 64.7856Z" fill="white"/>
<g opacity="0.7">
<path d="M240.587 60.9961L244.156 63.5653C244.469 63.7927 244.824 63.9561 245.201 64.0462C245.577 64.1363 245.968 64.1512 246.351 64.0903C246.733 64.0293 247.1 63.8936 247.43 63.6908C247.759 63.4881 248.046 63.2223 248.273 62.9087L239.945 56.8855C239.488 57.5169 239.3 58.3031 239.42 59.073C239.54 59.8429 239.96 60.5341 240.587 60.9961Z" fill="white"/>
</g>
<path opacity="0.3" d="M247.51 36.9745C243.064 43.1762 241.915 52.9817 246.704 56.4073C251.492 59.8328 260.977 54.7659 264.845 49.3992C267.214 46.095 265.259 40.6284 260.47 37.2029C255.681 33.7773 249.865 33.6703 247.51 36.9745Z" fill="white"/>
<path opacity="0.4" d="M246.232 45.1956C245.439 46.2999 244.991 47.6146 244.946 48.9734C244.9 50.3322 245.258 51.6741 245.975 52.8293C246.692 53.9845 247.736 54.901 248.974 55.463C250.212 56.0249 251.588 56.2071 252.93 55.9863C254.272 55.7655 255.518 55.1518 256.51 54.2228C257.503 53.2937 258.198 52.0911 258.507 50.7671C258.816 49.4431 258.725 48.0572 258.246 46.7847C257.767 45.5122 256.922 44.4103 255.817 43.6185C254.336 42.5577 252.495 42.128 250.698 42.4237C248.901 42.7195 247.295 43.7164 246.232 45.1956Z" fill="white"/>
<path opacity="0.4" d="M246.932 47.8149C245.376 49.9559 246.661 51.897 248.83 53.4528C251 55.0085 253.219 55.5937 254.775 53.4528C256.331 51.3118 255.018 49.3992 252.855 47.8435C250.693 46.2877 248.481 45.674 246.932 47.8149Z" fill="white"/>
<path d="M76.2048 62.9798L78.6384 65.0066L92.7116 52.9816L110.681 56.6141L124.376 43.6969L125.604 45.3812L128.851 38.0591L120.887 38.9083L122.114 40.5925L110.096 53.9022L92.105 50.4053L76.2048 62.9798Z" fill="#33A852"/>
<g opacity="0.3">
<path d="M76.2048 62.9798L78.6384 65.0066L92.7116 52.9816L110.681 56.6141L124.376 43.6969L125.604 45.3812L128.851 38.0591L120.887 38.9083L122.114 40.5925L110.096 53.9022L92.105 50.4053L76.2048 62.9798Z" fill="white"/>
</g>
<path d="M209.258 168.222C209.672 174.688 208.073 183.009 206.546 189.211C205.283 194.335 204.405 195.748 204.07 198.017C203.706 200.601 204.491 204.44 204.291 207.687C203.527 220.533 198.303 246.51 198.303 246.51L193.921 246.231L194.036 195.94L196.89 147.212L214.182 151.822C215.909 161.285 209.258 168.222 209.258 168.222Z" fill="#DD8C6A"/>
<path d="M231.51 247.402L227.528 247.288L216.473 198.188L205.297 150.681L223.217 150.145C227.499 158.709 223.153 167.273 223.153 167.273C225.387 173.36 226.236 181.789 226.543 188.176C226.8 193.443 226.336 195.055 226.678 197.318C227.078 199.901 228.334 203.334 229.083 206.524C232.024 219.184 231.51 247.402 231.51 247.402Z" fill="#DD8C6A"/>
<path d="M173.148 106.755L175.232 109.496C177.308 110.138 177.266 113.228 177.266 113.228C177.715 113.578 181.94 116.247 182.925 117.11L180.434 119.794C179.357 118.145 175.61 115.355 175.61 115.355C175.61 115.355 170.514 112.236 169.679 111.123C168.844 110.009 170.236 106.698 170.236 106.698L173.148 106.755Z" fill="#DD8C6A"/>
<path d="M178.914 113.506C182.332 115.997 187.378 119.815 187.378 119.815C190.065 116.846 192.899 114.014 195.87 111.33C197.712 109.582 199.82 108.136 202.115 107.048L201.237 117.317C198.532 119.644 190.054 126.68 186.743 126.395C184.009 126.159 178.935 120.3 176.038 116.675L178.914 113.506Z" fill="#263238"/>
<path opacity="0.2" d="M192.881 123.683C194.686 120.636 199.639 112.636 199.639 112.636L200.824 115.326L200.024 118.281C198.768 119.337 194.693 122.363 192.881 123.683Z" fill="black"/>
<path d="M225.395 112.243C224.669 121.647 223.319 130.993 221.355 140.218C221.355 140.218 231.81 148.782 228.421 183.958C228.421 183.958 217.844 188.64 192.881 183.073L197.626 140.061C197.626 140.061 196.527 112.108 199.496 108.989C202.122 106.22 213.577 102.566 222.333 106.905C223.316 107.39 224.132 108.157 224.677 109.108C225.223 110.058 225.472 111.15 225.395 112.243Z" fill="#33A852"/>
<path opacity="0.4" d="M225.395 112.243C224.669 121.647 223.319 130.993 221.355 140.218C221.355 140.218 231.81 148.782 228.421 183.958C228.421 183.958 217.844 188.64 192.881 183.073L197.626 140.061C197.626 140.061 196.527 112.108 199.496 108.989C202.122 106.22 213.577 102.566 222.333 106.905C223.316 107.39 224.132 108.157 224.677 109.108C225.223 110.058 225.472 111.15 225.395 112.243Z" fill="black"/>
<path opacity="0.3" d="M213.24 139.276C213.24 139.276 205.582 140.604 200.201 139.276V142.559C200.201 142.559 204.205 143.137 213.24 142.559V139.276Z" fill="black"/>
<path d="M217.693 94.9155C216.68 97.7701 215.36 102.873 216.445 105.806C216.574 106.147 216.583 106.521 216.47 106.868C216.357 107.215 216.129 107.512 215.824 107.711C213.618 109.303 210.029 110.566 207.331 110.302C203.87 109.924 204.769 107.447 205.654 106.127C205.89 105.77 206.261 105.263 206.682 105.185C210.086 104.607 210.735 102.052 210.471 99.4758L217.693 94.9155Z" fill="#DD8C6A"/>
<path opacity="0.3" d="M214.755 96.7783L210.473 99.4545C210.53 100.086 210.53 100.721 210.473 101.353C211.331 101.327 212.169 101.092 212.916 100.667C213.662 100.243 214.293 99.6431 214.755 98.9193C215.254 98.0129 215.104 96.9425 214.755 96.7783Z" fill="black"/>
<path d="M206.455 96.3787L204.521 99.8541C205.12 99.9041 205.662 100.104 206.262 100.154C206.562 99.6829 206.918 99.219 207.218 98.7266C207.104 99.2119 206.711 99.7328 206.59 100.211C207.654 100.407 208.734 100.509 209.816 100.518C209.87 100.358 209.891 100.189 209.878 100.021C209.864 99.8527 209.816 99.6891 209.737 99.5401C209.164 98.2495 208.153 97.203 206.883 96.5856L206.455 96.3787Z" fill="#263238"/>
<path d="M219.043 90.227C217.794 94.6731 217.288 97.3635 214.511 99.162C210.337 101.902 205.234 98.6267 205.113 93.9023C205.02 89.6204 207.082 83.0834 211.878 82.2484C213.519 81.9572 215.208 82.3275 216.576 83.2784C217.944 84.2293 218.88 85.6833 219.179 87.3225C219.356 88.2883 219.31 89.2819 219.043 90.227Z" fill="#DD8C6A"/>
<path d="M208.615 90.2271C208.078 91.0647 207.43 91.8258 206.688 92.4893C206.864 92.6734 207.077 92.8177 207.314 92.9125C207.55 93.0072 207.804 93.0503 208.058 93.0388L208.615 90.2271Z" fill="#FF5652"/>
<path d="M213.505 88.5927C213.541 88.5998 213.577 88.5998 213.612 88.5927C213.664 88.5665 213.704 88.5218 213.724 88.4675C213.743 88.4132 213.742 88.3533 213.719 88.3001C213.579 87.9794 213.363 87.697 213.091 87.4761C212.82 87.2552 212.499 87.1022 212.157 87.0298C212.099 87.0216 212.04 87.0365 211.994 87.0712C211.947 87.106 211.916 87.1578 211.907 87.2153C211.899 87.273 211.913 87.3316 211.948 87.3784C211.983 87.4251 212.035 87.4563 212.092 87.4651C212.363 87.5272 212.614 87.6519 212.828 87.8291C213.041 88.0064 213.209 88.2313 213.32 88.4856C213.339 88.5182 213.366 88.5452 213.398 88.564C213.431 88.5828 213.468 88.5927 213.505 88.5927Z" fill="#263238"/>
<path d="M206.49 86.4945C206.522 86.514 206.559 86.5243 206.597 86.5243C206.635 86.5243 206.672 86.514 206.704 86.4945C206.938 86.3506 207.204 86.2646 207.478 86.2435C207.752 86.2224 208.027 86.2669 208.281 86.3732C208.333 86.398 208.393 86.4015 208.448 86.3828C208.502 86.3641 208.548 86.3248 208.574 86.2732C208.587 86.248 208.595 86.2204 208.598 86.1919C208.601 86.1634 208.598 86.1346 208.589 86.1074C208.58 86.0801 208.566 86.0548 208.548 86.033C208.529 86.0113 208.506 85.9935 208.481 85.9806C208.159 85.8405 207.809 85.779 207.459 85.8014C207.109 85.8237 206.769 85.9292 206.468 86.1091C206.443 86.1226 206.421 86.1408 206.403 86.1629C206.386 86.1849 206.372 86.2103 206.364 86.2375C206.356 86.2647 206.354 86.2933 206.357 86.3214C206.36 86.3496 206.369 86.3769 206.383 86.4017C206.409 86.4418 206.446 86.4739 206.49 86.4945Z" fill="#263238"/>
<path d="M216.282 104.35L211.286 108.218C211.073 108.384 210.825 108.498 210.561 108.552C210.297 108.605 210.024 108.597 209.764 108.528C209.504 108.459 209.263 108.331 209.06 108.153C208.857 107.976 208.698 107.754 208.596 107.504L207.461 104.907L206.134 105.249C205.982 105.285 205.843 105.363 205.733 105.475C205.624 105.586 205.547 105.725 205.513 105.877C205.249 107.098 204.278 110.081 204.335 112.757C204.335 112.757 207.397 108.661 209.124 111.608C209.124 111.608 211.379 108.946 213.199 113.549C214.364 111.875 215.395 110.112 216.282 108.275C217.217 106.091 217.845 104.907 217.845 104.907L216.282 104.35Z" fill="white"/>
<path d="M216.881 104.572C214.693 114.022 213.202 123.62 212.421 133.289C211.414 147.762 211.207 152.136 216.931 151.508C222.654 150.88 227.343 150.16 226.508 148.076C225.673 145.992 222.554 141.303 222.747 138.912C222.94 136.522 224.931 117.888 225.159 115.069C225.388 112.25 227.086 106.334 216.881 104.572Z" fill="#263238"/>
<path d="M217.858 143.987C217.786 143.601 219.156 142.21 220.712 141.239C221.749 140.62 222.85 140.115 223.995 139.733C223.995 139.733 227.192 135.972 228.077 134.952L230.546 137.093C228.938 138.574 227.406 140.136 225.958 141.774L224.63 144.579C224.153 145.256 223.512 145.801 222.768 146.163C221.93 146.552 221.058 146.86 220.163 147.084C219.991 147.129 219.808 147.118 219.643 147.053C219.477 146.987 219.337 146.871 219.242 146.72C218.646 145.883 218.179 144.962 217.858 143.987Z" fill="#DD8C6A"/>
<path d="M206.839 105.057C206.839 105.057 202.15 113.877 201.844 128.607C201.537 143.337 202.179 151.144 199.453 151.594C196.727 152.044 196.12 150.167 196.12 150.167C196.12 150.167 196.927 142.174 196.927 140.225C196.927 138.277 196.07 126.48 196.927 118.052C197.783 109.624 196.927 110.138 198.354 109.196C199.781 108.254 203.014 105.835 206.839 105.057Z" fill="#263238"/>
<path opacity="0.2" d="M223.566 130.948L220.755 114.812C220.755 114.812 223.074 117.174 224.794 118.987C224.466 122.284 223.98 126.937 223.566 130.948Z" fill="black"/>
<path d="M222.291 106.42C222.291 106.42 220.385 111.28 220.756 114.812C220.913 116.311 231.561 127.73 231.561 127.73L223.532 138.377L227.671 141.946C227.671 141.946 239.09 130.641 239.183 127.58C239.275 124.518 226.58 107.712 222.291 106.42Z" fill="#263238"/>
<path d="M211.885 89.699C211.813 90.0701 211.557 90.3271 211.314 90.2842C211.071 90.2414 210.928 89.8989 211.007 89.5206C211.085 89.1424 211.335 88.8926 211.578 88.9354C211.821 88.9782 211.956 89.3208 211.885 89.699Z" fill="#263238"/>
<path d="M207.682 88.8712C207.61 89.2423 207.353 89.5063 207.111 89.4564C206.868 89.4064 206.733 89.071 206.804 88.6999C206.875 88.3288 207.132 88.0648 207.375 88.1147C207.617 88.1647 207.76 88.4929 207.682 88.8712Z" fill="#263238"/>
<path d="M207.474 88.1504L206.632 87.7222C206.632 87.7222 206.96 88.4929 207.474 88.1504Z" fill="#263238"/>
<path d="M211.678 88.9782L210.835 88.55C210.835 88.55 211.164 89.3351 211.678 88.9782Z" fill="#263238"/>
<path d="M209.28 95.1083C209.042 95.1272 208.804 95.1272 208.566 95.1083C208.55 95.1084 208.534 95.1051 208.519 95.0985C208.504 95.0919 208.491 95.0821 208.48 95.07C208.469 95.0578 208.461 95.0435 208.456 95.0279C208.451 95.0124 208.45 94.996 208.452 94.9798C208.454 94.9489 208.467 94.9199 208.49 94.8986C208.513 94.8774 208.542 94.8656 208.573 94.8657C209.086 94.9101 209.602 94.8346 210.08 94.645C210.558 94.4555 210.985 94.1572 211.328 93.7738C211.339 93.7616 211.352 93.7519 211.367 93.7452C211.382 93.7386 211.398 93.7351 211.414 93.7351C211.43 93.7351 211.446 93.7386 211.461 93.7452C211.475 93.7519 211.489 93.7616 211.499 93.7738C211.522 93.7965 211.535 93.8273 211.535 93.8594C211.535 93.8915 211.522 93.9223 211.499 93.945C210.933 94.5998 210.14 95.0155 209.28 95.1083Z" fill="#263238"/>
<path d="M216.388 81.5347C218.579 87.8002 218.267 94.6692 215.518 100.711C216.139 100.525 216.802 100.382 217.416 100.204C217.716 99.4117 217.951 98.5981 218.251 97.8131C218.151 98.5267 217.959 99.4117 217.859 100.161L219.536 99.8541C219.828 99.0905 220.071 98.2341 220.364 97.4705C220.235 98.1485 220.092 99.0977 219.957 99.7756C221.902 98.4495 223.275 96.4389 223.803 94.1449C224.343 91.6053 224.011 88.9579 222.861 86.6301C221.477 84.2109 219.058 83.2189 216.388 81.5347Z" fill="#263238"/>
<path d="M220.605 93.8666C220.261 94.9804 219.492 95.9137 218.464 96.4643C217.101 97.178 216.095 96.0504 216.202 94.5946C216.288 93.2886 217.108 91.3332 218.607 91.2047C218.938 91.1783 219.27 91.2361 219.573 91.3726C219.876 91.5092 220.139 91.72 220.339 91.9857C220.538 92.2513 220.667 92.563 220.714 92.8919C220.76 93.2208 220.723 93.5561 220.605 93.8666Z" fill="#DD8C6A"/>
<path d="M206.868 116.211C206.65 116.21 206.435 116.159 206.24 116.061C206.017 115.95 205.824 115.788 205.675 115.589C205.526 115.389 205.427 115.157 205.384 114.912C205.342 114.497 205.422 114.078 205.615 113.708C205.807 113.338 206.104 113.032 206.468 112.828C207.11 112.458 207.818 112.215 208.552 112.115H208.638H209.216C209.309 112.12 209.396 112.161 209.46 112.229C209.523 112.296 209.559 112.386 209.559 112.479C209.557 112.571 209.519 112.659 209.454 112.724C209.389 112.789 209.301 112.827 209.209 112.828C208.859 112.828 208.438 113.542 208.352 114.12V114.206C208.353 114.559 208.271 114.907 208.114 115.222C207.956 115.538 207.728 115.813 207.446 116.026C207.272 116.135 207.073 116.199 206.868 116.211ZM208.06 112.971C207.634 113.05 207.225 113.204 206.854 113.428C206.612 113.565 206.413 113.767 206.277 114.009C206.141 114.252 206.074 114.527 206.083 114.805C206.11 114.937 206.167 115.062 206.25 115.168C206.333 115.274 206.44 115.36 206.561 115.419C206.642 115.463 206.733 115.486 206.825 115.486C206.917 115.486 207.008 115.463 207.089 115.419C207.46 115.226 207.546 114.662 207.632 114.12V114.034C207.704 113.656 207.849 113.294 208.06 112.971Z" fill="white"/>
<path d="M211.227 116.447C210.986 116.447 210.75 116.375 210.549 116.24C210.288 116.001 210.087 115.704 209.963 115.373C209.839 115.042 209.795 114.686 209.836 114.334V114.249C209.836 113.685 209.465 112.921 209.122 112.871C209.031 112.861 208.947 112.814 208.889 112.742C208.832 112.67 208.805 112.578 208.815 112.486C208.823 112.394 208.866 112.309 208.935 112.249C209.004 112.189 209.095 112.159 209.186 112.165H209.764H209.85C210.571 112.339 211.251 112.649 211.855 113.078C212.194 113.32 212.455 113.656 212.605 114.044C212.756 114.432 212.791 114.855 212.705 115.262C212.638 115.503 212.514 115.723 212.344 115.906C212.174 116.089 211.962 116.227 211.727 116.311C211.571 116.387 211.401 116.433 211.227 116.447ZM210.257 113.085C210.426 113.439 210.526 113.822 210.549 114.213V114.306C210.549 114.848 210.607 115.412 210.949 115.655C211.028 115.702 211.117 115.729 211.209 115.736C211.301 115.742 211.393 115.726 211.477 115.69C211.605 115.644 211.72 115.569 211.814 115.472C211.908 115.374 211.978 115.256 212.02 115.126C212.057 114.855 212.019 114.579 211.911 114.328C211.803 114.076 211.628 113.859 211.406 113.699C211.06 113.432 210.672 113.224 210.257 113.085Z" fill="white"/>
<path d="M207.046 120.065C207.008 120.072 206.97 120.072 206.932 120.065C206.842 120.035 206.768 119.971 206.725 119.887C206.682 119.803 206.674 119.705 206.704 119.615C207.414 117.409 207.892 115.134 208.131 112.828C208.14 112.734 208.187 112.647 208.261 112.586C208.334 112.526 208.429 112.498 208.523 112.507C208.618 112.517 208.705 112.563 208.765 112.637C208.825 112.711 208.854 112.805 208.845 112.9C208.608 115.255 208.13 117.579 207.417 119.836C207.389 119.91 207.338 119.972 207.271 120.014C207.203 120.055 207.125 120.073 207.046 120.065Z" fill="white"/>
<path d="M209.901 121.842C209.83 121.841 209.762 121.82 209.703 121.781C209.645 121.742 209.599 121.686 209.573 121.621C209.295 120.904 209.138 120.147 209.109 119.38C209.108 118.6 209.172 117.822 209.301 117.053C209.358 116.668 209.416 116.282 209.451 115.897C209.632 114.83 209.438 113.733 208.902 112.793C208.875 112.754 208.857 112.71 208.848 112.664C208.838 112.618 208.838 112.571 208.847 112.525C208.856 112.479 208.874 112.435 208.9 112.396C208.926 112.357 208.959 112.323 208.998 112.297C209.037 112.27 209.081 112.252 209.127 112.243C209.173 112.233 209.22 112.233 209.266 112.242C209.312 112.251 209.356 112.269 209.395 112.295C209.434 112.321 209.468 112.354 209.494 112.393C210.125 113.468 210.36 114.731 210.158 115.961C210.122 116.361 210.065 116.761 210.008 117.153C209.884 117.879 209.822 118.615 209.822 119.351C209.848 120.038 209.988 120.716 210.236 121.357C210.269 121.445 210.267 121.542 210.23 121.629C210.193 121.715 210.123 121.784 210.036 121.82C209.993 121.835 209.947 121.842 209.901 121.842Z" fill="white"/>
<path d="M216.045 89.7203C215.659 89.3706 215.117 88.9353 214.732 88.5785C214.914 87.8028 214.976 87.0038 214.917 86.2092C214.739 86.8372 214.682 87.4795 214.503 88.1075L213.19 87.2368C212.878 86.9804 212.494 86.826 212.091 86.7943C212.162 86.1449 212.191 85.4812 212.269 84.8318C212.12 85.4099 211.948 86.0521 211.806 86.6302C211.292 86.5588 210.699 86.4375 210.193 86.3662C210.25 85.6525 210.335 84.9959 210.4 84.3037C210.178 84.8461 210.021 85.7738 209.8 86.3162L209.65 86.1092C208.189 85.7515 206.675 85.6668 205.183 85.8595C204.683 83.8969 205.283 81.1208 207.21 80.4857C213.74 78.309 219.085 83.4045 219.235 83.8256C220.212 86.516 218.407 88.3002 216.045 89.7203Z" fill="#263238"/>
<path d="M218.465 95.2012C218.465 95.324 218.429 95.444 218.361 95.5461C218.293 95.6482 218.196 95.7278 218.082 95.7748C217.969 95.8218 217.844 95.8341 217.723 95.8101C217.603 95.7862 217.492 95.7271 217.406 95.6402C217.319 95.5534 217.26 95.4428 217.236 95.3223C217.212 95.2019 217.224 95.077 217.271 94.9636C217.318 94.8501 217.397 94.7532 217.5 94.685C217.602 94.6167 217.722 94.5803 217.845 94.5803C218.009 94.5803 218.167 94.6457 218.284 94.7622C218.4 94.8786 218.465 95.0365 218.465 95.2012Z" fill="#33A852"/>
<path d="M192.431 245.339C188.984 247.231 188.598 247.266 184.795 247.987C183.96 248.144 184.252 250.128 186.222 250.171C189.44 250.271 189.169 250.171 191.931 250.228C194.272 250.285 197.091 250.485 198.953 250.563H199.018C199.221 250.549 199.41 250.454 199.544 250.3C199.678 250.147 199.745 249.946 199.731 249.743L199.324 245.504C199.313 245.414 199.27 245.331 199.203 245.27C199.137 245.208 199.051 245.172 198.961 245.168L193.651 245.018C193.223 245.013 192.801 245.124 192.431 245.339Z" fill="#263238"/>
<path d="M192.452 245.661C192.462 245.643 192.467 245.624 192.467 245.604C192.467 245.583 192.462 245.564 192.452 245.546C192.434 245.534 192.413 245.528 192.391 245.528C192.37 245.528 192.348 245.534 192.331 245.546C192.102 245.625 190.118 246.41 189.968 247.045C189.955 247.105 189.956 247.168 189.972 247.228C189.988 247.288 190.019 247.343 190.061 247.388C190.13 247.462 190.216 247.52 190.312 247.556C190.407 247.592 190.509 247.605 190.611 247.595C191.324 247.516 192.074 246.381 192.466 245.711L192.452 245.661ZM190.175 247.024C190.318 246.674 191.31 246.174 192.074 245.846C191.51 246.745 190.946 247.273 190.561 247.338C190.494 247.347 190.426 247.339 190.363 247.314C190.301 247.289 190.246 247.248 190.204 247.195C190.185 247.18 190.171 247.16 190.163 247.137C190.155 247.114 190.155 247.09 190.161 247.067L190.175 247.024Z" fill="#33A852"/>
<path d="M192.452 245.661C192.457 245.64 192.455 245.619 192.448 245.6C192.44 245.581 192.427 245.565 192.409 245.553C191.88 245.138 191.233 244.901 190.561 244.875C190.449 244.89 190.341 244.927 190.244 244.984C190.147 245.042 190.063 245.119 189.997 245.211C189.819 245.461 189.869 245.632 189.954 245.732C190.304 246.167 191.817 245.996 192.388 245.732C192.404 245.726 192.418 245.717 192.429 245.704C192.44 245.692 192.448 245.677 192.452 245.661ZM190.126 245.425L190.204 245.339C190.251 245.272 190.311 245.215 190.381 245.172C190.451 245.129 190.529 245.101 190.611 245.09C191.156 245.103 191.684 245.282 192.124 245.603C191.467 245.803 190.354 245.839 190.147 245.603C190.147 245.603 190.097 245.546 190.147 245.461L190.126 245.425Z" fill="#33A852"/>
<path d="M225.679 245.675C223.732 247.269 221.448 248.399 218.999 248.979C217.986 249.265 218.621 251.12 221.047 251.12C225.065 251.056 223.467 250.992 226.899 250.913C229.832 250.856 230.61 250.835 232.937 250.82H233.015C233.133 250.818 233.249 250.791 233.356 250.743C233.464 250.694 233.56 250.625 233.64 250.538C233.72 250.452 233.782 250.35 233.822 250.239C233.861 250.128 233.878 250.01 233.872 249.893L233.094 245.339C233.069 245.236 233.007 245.144 232.921 245.082C232.835 245.019 232.729 244.989 232.623 244.997L226.492 245.161C225.957 245.097 226.093 245.382 225.679 245.675Z" fill="#263238"/>
<path d="M225.65 246.032C225.664 246.013 225.672 245.991 225.672 245.967C225.672 245.944 225.664 245.922 225.65 245.903C225.641 245.88 225.625 245.859 225.605 245.844C225.585 245.829 225.561 245.82 225.536 245.818C225.229 245.818 222.567 245.903 222.146 246.531C222.11 246.588 222.091 246.653 222.091 246.72C222.091 246.787 222.11 246.853 222.146 246.91C222.204 247.015 222.284 247.106 222.382 247.177C222.479 247.247 222.592 247.295 222.71 247.316C223.552 247.488 224.922 246.603 225.679 246.053L225.65 246.032ZM222.396 246.603C222.703 246.289 224.08 246.132 225.115 246.082C224.073 246.795 223.181 247.145 222.717 247.067C222.639 247.053 222.566 247.022 222.503 246.975C222.439 246.927 222.388 246.866 222.353 246.795C222.337 246.773 222.329 246.747 222.329 246.72C222.329 246.693 222.337 246.667 222.353 246.645L222.396 246.603Z" fill="#33A852"/>
<path d="M225.651 246.032C225.664 246.014 225.67 245.993 225.67 245.971C225.67 245.949 225.664 245.928 225.651 245.91C225.601 245.875 224.709 244.711 223.753 244.562C223.478 244.51 223.194 244.56 222.954 244.704C222.633 244.897 222.626 245.09 222.683 245.218C222.911 245.775 224.767 246.153 225.537 246.103C225.561 246.101 225.583 246.093 225.603 246.081C225.623 246.069 225.639 246.052 225.651 246.032ZM223.004 244.954L223.097 244.861C223.273 244.757 223.481 244.722 223.682 244.761C224.299 244.949 224.845 245.317 225.252 245.818C224.388 245.782 223.068 245.432 222.932 245.104C222.932 245.104 222.932 245.025 223.025 244.947L223.004 244.954Z" fill="#33A852"/>
<path d="M162.856 132.946C161.85 134.93 165.197 137.364 165.197 137.364L166.781 138.984C167.041 139.267 167.396 139.443 167.778 139.48C168.16 139.517 168.542 139.411 168.851 139.184L170.414 138.07L170.464 138.035C170.785 137.789 170.998 137.429 171.058 137.029C171.118 136.63 171.02 136.222 170.785 135.894L169.736 134.466C169.311 133.882 168.766 133.395 168.137 133.039L165.133 131.312L162.856 132.946Z" fill="#FFC3BD"/>
<path d="M149.803 89.4778C150.182 88.6412 150.798 87.9346 151.576 87.4459C152.353 86.9572 153.257 86.708 154.176 86.7293C155.094 86.7506 155.985 87.0415 156.739 87.5657C157.493 88.0899 158.077 88.8244 158.416 89.6776L158.516 89.9274C159.133 91.6723 159.377 93.5275 159.23 95.3725C159.187 97.1923 159.13 99.0407 159.159 100.803C159.187 102.566 159.159 108.932 159.216 110.659C159.273 112.258 162.506 119.487 165.639 129.928C165.702 130.128 165.781 130.324 165.874 130.513L166.452 131.662C166.452 131.662 165.589 132.211 164.704 132.739C163.987 133.278 163.203 133.72 162.37 134.053C161.905 133.631 161.52 133.128 161.235 132.568C158.738 128.629 150.581 114.013 150.152 111.872C149.731 109.888 149.439 103.308 149.253 101.31C149.068 99.3119 148.925 97.3636 148.868 95.3939C148.824 94.4053 148.862 93.4146 148.982 92.4323C149.108 91.41 149.385 90.412 149.803 89.4706V89.4778Z" fill="#263238"/>
<path opacity="0.3" d="M149.803 89.4778C150.182 88.6412 150.798 87.9346 151.576 87.4459C152.353 86.9572 153.257 86.708 154.176 86.7293C155.094 86.7506 155.985 87.0415 156.739 87.5657C157.493 88.0899 158.077 88.8244 158.416 89.6776L158.516 89.9274C159.133 91.6723 159.377 93.5275 159.23 95.3725C159.187 97.1923 159.13 99.0407 159.159 100.803C159.187 102.566 159.159 108.932 159.216 110.659C159.273 112.258 162.506 119.487 165.639 129.928C165.702 130.128 165.781 130.324 165.874 130.513L166.452 131.662C166.452 131.662 165.589 132.211 164.704 132.739C163.987 133.278 163.203 133.72 162.37 134.053C161.905 133.631 161.52 133.128 161.235 132.568C158.738 128.629 150.581 114.013 150.152 111.872C149.731 109.888 149.439 103.308 149.253 101.31C149.068 99.3119 148.925 97.3636 148.868 95.3939C148.824 94.4053 148.862 93.4146 148.982 92.4323C149.108 91.41 149.385 90.412 149.803 89.4706V89.4778Z" fill="black"/>
<path d="M124.176 91.94C125.397 105.999 130.064 113.921 129.436 125.153C129.436 125.153 154.771 125.653 155.641 125.653C156.012 104.957 158.967 106.534 158.061 93.4316C158.218 89.1496 155.77 86.4735 153.293 86.0453L142.503 83.8115L128.594 86.2023C127.271 86.4283 126.082 87.1443 125.263 88.2076C124.445 89.2709 124.057 90.6035 124.176 91.94Z" fill="#33A852"/>
<path d="M144.073 220.662L147.356 246.603L153.75 246.146L152.023 220.662H144.073Z" fill="#FFC3BD"/>
<path d="M155.306 193.193C155.884 217.657 154.471 238.624 154.471 238.624L145.843 239.209C145.843 239.209 140.983 207.466 142.946 194.499C142.853 191.773 139.699 157.682 138.614 151.237C136.651 139.669 134.553 131.733 134.553 131.733L154.857 130.598C154.857 130.598 154.949 177.792 155.306 193.193Z" fill="#33A852"/>
<g opacity="0.2">
<path d="M143.724 140.625C143.724 140.625 143.067 167.423 141.897 182.117C141.29 174.174 139.699 157.682 138.614 151.238L143.724 140.625Z" fill="black"/>
</g>
<path d="M117.062 221.139L114.428 245.725L120.801 245.032L125.426 220.833L117.062 221.139Z" fill="#FFC3BD"/>
<path d="M113.63 238.538L123.414 238.182C123.414 238.182 131.749 208.144 135.268 192.272C138.679 174.581 145.045 130.427 145.045 130.427L128.78 129.171C120.117 144.822 123.235 182.288 121.701 192.779C114.35 205.889 113.63 238.538 113.63 238.538Z" fill="#33A852"/>
<path d="M154.693 122.748H130.879C130.879 122.748 126.968 136.529 127.004 136.393C127.039 136.258 154.95 137.735 154.95 137.735L154.693 122.748Z" fill="#33A852"/>
<path d="M154.95 244.069C159.175 246.21 159.639 246.253 164.227 246.981C165.241 247.145 164.941 249.543 162.607 249.671C158.732 249.907 159.039 249.75 155.749 249.935C152.93 250.092 148.848 250.428 146.6 250.592H146.529C146.406 250.588 146.285 250.56 146.173 250.51C146.061 250.459 145.96 250.387 145.876 250.298C145.792 250.209 145.726 250.103 145.683 249.988C145.639 249.874 145.619 249.751 145.623 249.628L145.965 244.497C145.975 244.388 146.024 244.287 146.102 244.211C146.181 244.135 146.284 244.09 146.393 244.083L153.48 243.719C153.993 243.692 154.504 243.813 154.95 244.069Z" fill="#263238"/>
<path d="M154.95 244.44C155.45 245.24 156.42 246.581 157.255 246.646C157.378 246.656 157.502 246.637 157.617 246.59C157.731 246.543 157.832 246.469 157.912 246.375C157.963 246.32 157.998 246.253 158.016 246.181C158.033 246.108 158.032 246.032 158.012 245.961C157.805 245.197 155.385 244.326 155.114 244.241C155.088 244.23 155.058 244.228 155.03 244.234C155.002 244.241 154.977 244.255 154.957 244.276C154.945 244.298 154.939 244.323 154.939 244.348C154.939 244.373 154.945 244.397 154.957 244.419L154.95 244.44ZM157.755 246.032C157.762 246.06 157.762 246.089 157.754 246.116C157.747 246.144 157.732 246.169 157.712 246.189C157.663 246.254 157.598 246.305 157.522 246.337C157.447 246.368 157.365 246.379 157.284 246.367C156.813 246.332 156.121 245.654 155.4 244.626C156.342 244.99 157.541 245.561 157.741 245.975L157.755 246.032Z" fill="#33A852"/>
<path d="M154.949 244.498C155.663 244.783 157.483 244.933 157.889 244.398C157.982 244.276 158.046 244.062 157.818 243.77C157.731 243.661 157.623 243.57 157.5 243.504C157.378 243.438 157.243 243.397 157.104 243.384C156.169 243.27 154.963 244.226 154.899 244.262C154.882 244.278 154.868 244.298 154.859 244.32C154.851 244.343 154.847 244.367 154.849 244.39C154.849 244.418 154.859 244.444 154.878 244.464C154.897 244.484 154.922 244.496 154.949 244.498ZM157.675 244.062C157.693 244.088 157.703 244.12 157.703 244.151C157.703 244.183 157.693 244.214 157.675 244.241C157.433 244.555 156.091 244.555 155.292 244.333C155.812 243.933 156.441 243.699 157.097 243.663C157.196 243.673 157.291 243.704 157.377 243.753C157.463 243.802 157.538 243.868 157.597 243.948L157.697 244.048L157.675 244.062Z" fill="#33A852"/>
<path d="M122.371 243.805C124.098 245.318 126.575 246.702 130.443 247.787C131.663 248.13 130.892 250.399 127.966 250.335C123.121 250.264 125.048 250.178 120.908 250.092C117.34 250.021 116.434 249.992 113.622 249.971H113.558C113.416 249.969 113.275 249.939 113.145 249.881C113.015 249.824 112.898 249.74 112.802 249.636C112.705 249.532 112.63 249.409 112.582 249.276C112.534 249.142 112.514 249 112.523 248.858L113.458 243.363C113.49 243.236 113.565 243.125 113.671 243.05C113.777 242.974 113.906 242.938 114.036 242.949L121.429 243.148C122.043 243.106 121.886 243.448 122.371 243.805Z" fill="#263238"/>
<path d="M122.391 244.254C123.298 244.918 124.946 245.974 125.96 245.775C126.109 245.755 126.252 245.7 126.376 245.615C126.5 245.529 126.602 245.415 126.673 245.282C126.719 245.215 126.743 245.135 126.743 245.054C126.743 244.972 126.719 244.893 126.673 244.825C126.167 244.076 122.948 243.976 122.584 243.976C122.552 243.975 122.52 243.985 122.494 244.005C122.468 244.024 122.449 244.052 122.441 244.083C122.425 244.105 122.415 244.131 122.415 244.158C122.415 244.185 122.425 244.212 122.441 244.233L122.391 244.254ZM126.388 244.968C126.407 244.994 126.417 245.025 126.417 245.057C126.417 245.089 126.407 245.121 126.388 245.147C126.344 245.231 126.281 245.305 126.204 245.362C126.128 245.419 126.039 245.457 125.945 245.475C125.389 245.568 124.304 245.139 123.048 244.283C124.297 244.347 125.96 244.54 126.331 244.918L126.388 244.968Z" fill="#33A852"/>
<path d="M122.521 244.291C123.463 244.355 125.704 243.898 125.976 243.227C126.054 243.07 126.04 242.835 125.654 242.606C125.364 242.435 125.023 242.372 124.691 242.428C123.535 242.613 122.457 244.012 122.4 244.062C122.385 244.083 122.377 244.108 122.377 244.133C122.377 244.159 122.385 244.184 122.4 244.205C122.428 244.248 122.472 244.279 122.521 244.291ZM125.583 242.913C125.683 243.013 125.654 243.077 125.697 243.106C125.533 243.505 123.942 243.927 122.9 243.976C123.388 243.371 124.047 242.927 124.791 242.699C125.036 242.647 125.291 242.691 125.505 242.82L125.619 242.935L125.583 242.913Z" fill="#33A852"/>
<path opacity="0.8" d="M124.177 91.94C125.397 105.999 130.064 113.921 129.436 125.153C129.436 125.153 154.771 125.653 155.642 125.653C156.013 104.957 158.967 106.534 158.061 93.4316C158.218 89.1496 155.656 86.4449 153.18 86.0167L142.475 83.8115L128.566 86.2023C127.248 86.4347 126.066 87.1534 125.253 88.216C124.44 89.2786 124.056 90.6076 124.177 91.94Z" fill="white"/>
<path d="M150.49 112.857L147.635 117.938L142.468 112.436C142.468 112.3 144.681 89.2066 144.681 89.2066L146.015 89.1067C145.887 91.9113 150.49 112.857 150.49 112.857Z" fill="#33A852"/>
<path d="M149.633 88.2288C150.856 98.099 149.846 108.118 146.679 117.546L148.82 140.625C149.241 143.972 151.389 144.629 153.309 144.807L157.248 144.493L155.821 122.47C155.821 122.47 159.039 98.2057 158.297 92.7105C157.805 89.0852 156.606 87.6721 155.749 86.9371C155.382 86.6284 154.942 86.4173 154.472 86.3233C152.973 86.0093 148.563 84.8175 148.763 84.896C148.962 84.9745 149.633 88.2288 149.633 88.2288Z" fill="#263238"/>
<path d="M147.542 78.1163C147 80.6926 146.165 84.2038 148.969 85.4027C150.19 85.9308 150.768 87.6436 149.597 88.1931C148.427 88.7426 140.848 88.1931 140.184 87.8791C138.543 87.037 137.387 86.4518 138.272 84.8104C139.813 82.0057 138.835 76.1395 138.628 73.3206L147.542 78.1163Z" fill="#FFC3BD"/>
<path d="M146.77 87.9219L146.421 89.0281C146.396 89.1552 146.334 89.272 146.242 89.3636C146.151 89.4551 146.034 89.5173 145.907 89.5419L144.572 89.6418C144.465 89.6426 144.36 89.6091 144.272 89.5462C144.185 89.4834 144.12 89.3944 144.087 89.2921L143.438 88.3073L145.1 87.3296L146.77 87.9219Z" fill="#33A852"/>
<path opacity="0.2" d="M140.397 77.3958C140.802 78.3857 141.383 79.2947 142.11 80.0791C143.145 81.2638 145.093 81.7847 146.977 81.7847C147.041 80.5372 147.227 79.299 147.534 78.088L147.141 77.881L140.397 77.3958Z" fill="black"/>
<path d="M137.108 144.721C143.531 145.157 145.315 144.493 146.207 139.483C146.207 139.483 147.905 121.521 147.57 117.546C147.57 117.546 143.288 109.196 142.446 103.394C141.533 96.9067 137.55 83.9182 136.401 84.0038C134.196 84.1537 125.968 87.0369 124.633 88.7996C122.863 91.1475 124.012 93.8594 124.433 96.7711C125.775 106.099 126.781 109.31 127.288 118.716C127.288 118.716 123.006 142.98 123.663 143.066C124.162 143.116 131.984 144.372 137.108 144.721Z" fill="#263238"/>
<path opacity="0.2" d="M129.437 125.153H140.398V125.646C140.398 126.342 140.122 127.01 139.629 127.503C139.137 127.995 138.469 128.272 137.772 128.272H132.063C131.366 128.272 130.698 127.995 130.206 127.503C129.713 127.01 129.437 126.342 129.437 125.646V125.153Z" fill="white"/>
<path opacity="0.2" d="M156.07 128.393H154.529C153.832 128.42 153.153 128.171 152.639 127.699C152.126 127.227 151.82 126.571 151.789 125.874V125.389L156.028 125.21L156.07 128.393Z" fill="white"/>
<path d="M151.859 74.5053C151.146 79.6079 145.229 82.5482 141.076 79.1083C138.671 77.1244 138.221 74.6551 137.593 70.7943C137.5 70.2091 137.408 69.5954 137.301 68.9388C137.129 67.9207 137.187 66.8769 137.472 65.8844C137.585 65.4698 137.74 65.068 137.936 64.6854C138.65 63.2412 139.848 62.0932 141.322 61.4413C142.795 60.7893 144.451 60.6746 146 61.1172C151.088 62.6016 152.494 69.9379 151.859 74.5053Z" fill="#FFC3BD"/>
<path d="M139.642 65.0994C140.334 66.2318 140.92 67.4264 141.39 68.6677C140.935 68.7714 140.497 68.9422 140.091 69.1744C139.72 69.4099 140.091 70.5232 140.284 70.9371C140.631 71.772 141.034 72.5826 141.49 73.3635C140.829 73.6444 140.137 73.8457 139.428 73.963C139.234 73.4215 138.916 72.9328 138.5 72.5357C138.259 72.2407 137.935 72.0251 137.569 71.9169C137.204 71.8088 136.815 71.813 136.452 71.9291C136.323 71.2939 132.591 68.425 135.702 66.5053C136.158 66.1436 136.66 65.8436 137.194 65.6132L137.908 65.3492C138.467 65.1686 139.054 65.0842 139.642 65.0994Z" fill="#263238"/>
<path d="M136.622 70.6516C138.214 70.2876 139.691 72.0361 140.191 73.3635C140.776 74.8336 140.076 76.3394 138.435 76.0468C137.824 75.9302 137.241 75.6935 136.722 75.3505C136.203 75.0076 135.756 74.565 135.409 74.0486C135.189 73.7644 135.044 73.4295 134.988 73.0746C134.931 72.7198 134.965 72.3564 135.086 72.018C135.207 71.6796 135.411 71.3771 135.679 71.1383C135.948 70.8995 136.272 70.7321 136.622 70.6516Z" fill="#FFC3BD"/>
<path d="M146.172 68.5107C146.436 68.5107 146.686 68.7891 146.729 69.2244C146.772 69.6597 146.622 69.9809 146.322 70.0094C146.022 70.038 145.78 69.7311 145.737 69.2958C145.694 68.8604 145.908 68.5678 146.172 68.5107Z" fill="#263238"/>
<path d="M150.746 68.2109C151.01 68.2109 151.26 68.4893 151.303 68.9246C151.345 69.3599 151.167 69.6811 150.896 69.7096C150.625 69.7381 150.382 69.4313 150.339 69.0316C150.296 68.632 150.482 68.2466 150.746 68.2109Z" fill="#263238"/>
<path d="M149.591 73.2992C149.935 73.3129 150.278 73.2503 150.596 73.1158C150.913 72.9813 151.196 72.7783 151.425 72.5213C150.422 71.6459 149.545 70.6346 148.821 69.5168L149.591 73.2992Z" fill="#F98C8C"/>
<path d="M145.08 67.8398C145.226 67.5791 145.431 67.3563 145.679 67.1891C145.927 67.0218 146.21 66.9147 146.507 66.8764H146.585C146.649 66.8659 146.705 66.8307 146.743 66.7785C146.78 66.7263 146.796 66.6614 146.785 66.598C146.773 66.5355 146.738 66.48 146.686 66.4429C146.634 66.4057 146.57 66.3898 146.507 66.3982C146.129 66.434 145.764 66.5595 145.444 66.7643C145.124 66.969 144.857 67.2472 144.666 67.5757C144.635 67.6304 144.627 67.6944 144.641 67.7551C144.656 67.8159 144.692 67.869 144.744 67.904C144.784 67.9143 144.826 67.9143 144.866 67.904C144.943 67.911 145.019 67.888 145.08 67.8398Z" fill="#263238"/>
<path d="M151.652 67.4259C151.702 67.3866 151.734 67.3295 151.742 67.2669C151.75 67.2043 151.733 67.141 151.695 67.0905C151.466 66.7879 151.167 66.5446 150.824 66.3807C150.482 66.2169 150.105 66.1373 149.725 66.1485C149.695 66.1511 149.665 66.16 149.638 66.1744C149.61 66.1889 149.586 66.2088 149.567 66.2328C149.548 66.2568 149.534 66.2845 149.525 66.3141C149.517 66.3438 149.515 66.3749 149.518 66.4054C149.527 66.4654 149.559 66.5196 149.607 66.5569C149.655 66.5941 149.715 66.6114 149.775 66.6052C150.076 66.6005 150.373 66.6672 150.642 66.8C150.911 66.9328 151.145 67.1278 151.324 67.3688C151.348 67.4005 151.379 67.4256 151.416 67.4418C151.452 67.458 151.491 67.4648 151.531 67.4616C151.573 67.4574 151.614 67.4453 151.652 67.4259Z" fill="#263238"/>
<path d="M143.688 113.585C142.796 110.445 141.768 107.276 139.906 104.6C139.235 103.629 138.478 102.737 137.765 101.745C136.808 100.482 135.928 99.1616 135.131 97.7917C135.916 97.0781 136.951 96.3644 137.793 95.7079L134.61 93.0745C135.411 90.0491 135.778 86.9256 135.702 83.797C136.052 83.5479 136.484 83.4454 136.908 83.5116C138.43 85.8735 139.538 88.4776 140.184 91.2119C142.012 98.5512 143.184 106.038 143.688 113.585Z" fill="#263238"/>
<path opacity="0.2" d="M147.191 116.761C147.141 116.696 147.098 116.618 147.049 116.539C145.022 113.385 135.801 98.9836 135.159 97.7846C135.951 97.071 136.986 96.3573 137.828 95.7007L134.645 93.0674C135.442 90.0413 135.81 86.9183 135.737 83.7899C136.084 83.5419 136.514 83.4395 136.936 83.5044C137.897 84.9949 138.696 86.5834 139.32 88.2431C139.681 89.21 139.979 90.1993 140.212 91.2047C142.017 98.2984 143.901 109.86 147.077 116.447L147.191 116.761Z" fill="white"/>
<path d="M151.788 115.105C151.738 111.836 151.788 108.511 152.808 105.406C153.172 104.286 153.657 103.208 154.036 102.088C154.521 100.661 155.998 98.8907 156.298 97.392C155.342 96.9567 154.157 96.5143 153.144 96.1646L155.434 92.7248C153.793 90.0628 151.288 87.8933 150.439 84.8746C150.034 84.7373 149.591 84.7628 149.204 84.9459C148.698 86.623 149.497 91.5044 149.54 92.5321C149.897 100.118 150.118 107.704 151.788 115.105Z" fill="#263238"/>
<path opacity="0.2" d="M156.297 97.3922C154.52 102.259 150.816 112.379 147.191 116.761C147.076 116.896 146.969 117.025 146.855 117.146L147.048 116.539C147.046 116.506 147.046 116.473 147.048 116.44C150.352 105.735 149.903 99.9185 149.553 92.5037C149.51 91.476 148.711 86.459 149.217 84.7891C149.408 84.6966 149.616 84.6426 149.828 84.6304C150.039 84.6181 150.252 84.6478 150.452 84.7177C151.287 87.7293 153.792 90.0273 155.448 92.6892C154.691 93.8382 153.928 94.98 153.164 96.129C154.127 96.5144 155.341 96.9569 156.297 97.3922Z" fill="white"/>
<path opacity="0.3" d="M123.877 94.0024C123.877 94.0024 126.068 98.9266 131.356 106.199C136.73 113.585 139.749 113.585 139.749 113.585L143.688 114.77C143.688 114.77 142.675 96.1433 131.228 93.3601C127.831 92.5108 123.149 94.0238 123.877 94.0024Z" fill="black"/>
<path d="M168.651 106.127L162.764 106.398V109.638L168.651 108.811V106.127Z" fill="#FFC3BD"/>
<path d="M166.961 108.261C166.84 111.116 170.322 111.765 170.322 111.765L172.135 113.249C172.425 113.499 172.795 113.636 173.177 113.636C173.559 113.636 173.929 113.499 174.219 113.249L175.718 111.972L175.76 111.936C176.072 111.65 176.258 111.252 176.276 110.829C176.295 110.407 176.146 109.994 175.86 109.681L174.64 108.332C174.147 107.782 173.541 107.344 172.863 107.048L168.652 106.127L166.961 108.261Z" fill="#FFC3BD"/>
<path d="M124.455 90.0772C123.241 92.4465 123.784 95.187 125.24 97.4136C128.551 102.452 139.47 109.146 141.654 110.623C146.592 113.992 166.632 110.067 166.632 110.067L166.924 105.121L145.515 104.051C145.515 104.051 138.328 92.0826 133.382 88.4287C130.892 86.6017 126.153 86.7587 124.455 90.0772Z" fill="#263238"/>
<path d="M140.305 60.4676C139.973 60.4293 139.636 60.4624 139.317 60.5645C138.998 60.6666 138.705 60.8355 138.457 61.0599C137.038 62.1279 136.047 63.6662 135.659 65.3989C135.567 65.7523 135.567 66.1232 135.659 66.4766C135.698 66.6569 135.791 66.8214 135.924 66.9486C136.058 67.0759 136.227 67.1601 136.409 67.1902C136.91 66.6663 137.536 66.2784 138.228 66.0626C139.623 65.6048 141.056 65.2729 142.51 65.0707C145.151 64.6692 147.758 64.0728 150.311 63.2865C150.817 63.1367 151.395 62.9083 151.531 62.4016C151.666 61.8949 150.575 61.0671 150.753 60.9029C151.031 60.6317 151.417 60.3891 151.417 60.0037C151.413 59.8508 151.371 59.7013 151.295 59.5684C151.189 59.319 151.035 59.0929 150.842 58.9031C150.648 58.7133 150.419 58.5635 150.168 58.4622C149.912 58.3747 149.632 58.3907 149.388 58.5067C149.144 58.6227 148.955 58.8296 148.862 59.0831C148.783 58.6208 148.678 58.1633 148.548 57.7129C148.422 57.5057 148.224 57.353 147.991 57.2847C147.635 57.1829 147.26 57.17 146.898 57.2472C146.536 57.3243 146.198 57.4891 145.914 57.7272C145.349 58.2083 144.866 58.7798 144.487 59.4185C143.745 60.5033 141.604 60.7673 140.305 60.4676Z" fill="#263238"/>
<path d="M146.971 74.0771C146.96 74.0664 146.951 74.0537 146.945 74.0396C146.939 74.0255 146.936 74.0103 146.936 73.995C146.936 73.9797 146.939 73.9645 146.945 73.9504C146.951 73.9363 146.96 73.9236 146.971 73.9129C146.991 73.8933 147.018 73.8823 147.046 73.8823C147.074 73.8823 147.101 73.8933 147.121 73.9129C147.447 74.2566 147.85 74.5184 148.296 74.6771C148.742 74.8358 149.22 74.887 149.69 74.8264C149.721 74.8244 149.752 74.8343 149.775 74.8543C149.799 74.8742 149.815 74.9025 149.818 74.9335C149.82 74.9626 149.811 74.9915 149.793 75.014C149.774 75.0366 149.747 75.0512 149.718 75.0548C149.216 75.1214 148.704 75.0674 148.227 74.8974C147.749 74.7274 147.318 74.4462 146.971 74.0771Z" fill="#263238"/>
<path d="M136.901 83.7399L138.714 83.1689C140.561 85.2012 142.859 86.7728 145.422 87.7577C144.264 88.4575 143.34 89.4859 142.767 90.7123C136.701 88.3144 136.901 83.7399 136.901 83.7399Z" fill="white"/>
<path d="M148.982 84.054L147.334 83.6187C147.334 83.6187 146.492 87.0513 144.758 87.4581C147.691 88.7641 148.112 90.2628 148.112 90.2628C152.479 89.0852 148.982 84.054 148.982 84.054Z" fill="white"/>
<path opacity="0.3" d="M145.557 118.395C145.547 118.525 145.499 118.649 145.419 118.752C145.339 118.855 145.23 118.932 145.106 118.974C144.982 119.015 144.849 119.019 144.723 118.985C144.597 118.951 144.484 118.881 144.397 118.783C144.311 118.685 144.256 118.563 144.238 118.434C144.22 118.305 144.241 118.173 144.298 118.055C144.355 117.938 144.445 117.84 144.557 117.773C144.67 117.707 144.799 117.675 144.929 117.681C145.018 117.687 145.104 117.71 145.183 117.748C145.262 117.787 145.333 117.841 145.392 117.908C145.45 117.974 145.495 118.051 145.523 118.135C145.552 118.218 145.563 118.307 145.557 118.395Z" fill="white"/>
</svg>
