<svg width="406" height="6" viewBox="0 0 406 6" fill="none" xmlns="http://www.w3.org/2000/svg">
<path d="M0.333333 3C0.333333 4.47276 1.52724 5.66667 3 5.66667C4.47276 5.66667 5.66667 4.47276 5.66667 3C5.66667 1.52724 4.47276 0.333333 3 0.333333C1.52724 0.333333 0.333333 1.52724 0.333333 3ZM400.333 3C400.333 4.47276 401.527 5.66667 403 5.66667C404.473 5.66667 405.667 4.47276 405.667 3C405.667 1.52724 404.473 0.333333 403 0.333333C401.527 0.333333 400.333 1.52724 400.333 3ZM3 3.5H403V2.5H3V3.5Z" fill="#2D2E87"/>
</svg>
