<svg width="389" height="6" viewBox="0 0 389 6" fill="none" xmlns="http://www.w3.org/2000/svg">
<path d="M0.333333 3C0.333333 4.47276 1.52724 5.66667 3 5.66667C4.47276 5.66667 5.66667 4.47276 5.66667 3C5.66667 1.52724 4.47276 0.333333 3 0.333333C1.52724 0.333333 0.333333 1.52724 0.333333 3ZM383.333 3C383.333 4.47276 384.527 5.66667 386 5.66667C387.473 5.66667 388.667 4.47276 388.667 3C388.667 1.52724 387.473 0.333333 386 0.333333C384.527 0.333333 383.333 1.52724 383.333 3ZM3 3.5H386V2.5H3V3.5Z" fill="#2D2E87"/>
</svg>
