<svg width="18" height="15" viewBox="0 0 18 15" fill="none" xmlns="http://www.w3.org/2000/svg">
<path d="M8.95511 14.2428C8.64374 14.2428 8.33237 14.0995 8.1335 13.8128L7.75049 13.2608C7.29039 12.5977 7.76498 11.6908 8.5721 11.6908H9.33812C10.1452 11.6908 10.6198 12.5977 10.1597 13.2608L9.77672 13.8128C9.57785 14.0995 9.26648 14.2428 8.95511 14.2428Z" fill="black"/>
<path d="M11.446 9.70997C11.1605 9.29911 10.7759 8.96695 10.3279 8.74425C9.87986 8.52155 9.38296 8.41551 8.88306 8.43597C8.40131 8.40275 7.91969 8.50433 7.49243 8.72935C7.06518 8.95437 6.70899 9.29393 6.46387 9.70997" stroke="black" stroke-width="2" stroke-linecap="round"/>
<path d="M13.9541 6.95494C12.6125 5.57607 10.787 4.77312 8.86401 4.71594C7.93089 4.73449 7.01138 4.94252 6.16113 5.32742C5.31089 5.71232 4.54762 6.26604 3.91797 6.95494" stroke="black" stroke-width="2" stroke-linecap="round"/>
<path d="M16.5 4.2C14.402 2.28192 11.7036 1.15097 8.86499 1C6.09852 1.11824 3.47426 2.25845 1.5 4.2" stroke="black" stroke-width="2" stroke-linecap="round"/>
</svg>
