<svg width="16" height="16" viewBox="0 0 16 16" fill="none" xmlns="http://www.w3.org/2000/svg">
<path d="M3.6124 8.99346L8.5124 13.8935C8.7124 14.0935 8.80824 14.3268 8.7999 14.5935C8.79157 14.8601 8.6874 15.0935 8.4874 15.2935C8.2874 15.4768 8.05407 15.5726 7.7874 15.581C7.52074 15.5893 7.2874 15.4935 7.0874 15.2935L0.487402 8.69346C0.387402 8.59346 0.316569 8.48512 0.274902 8.36846C0.233236 8.25179 0.212402 8.12679 0.212402 7.99346C0.212402 7.86012 0.233236 7.73512 0.274902 7.61846C0.316569 7.50179 0.387402 7.39346 0.487402 7.29346L7.0874 0.693457C7.27074 0.510124 7.4999 0.418457 7.7749 0.418457C8.0499 0.418457 8.2874 0.510124 8.4874 0.693457C8.6874 0.893457 8.7874 1.13096 8.7874 1.40596C8.7874 1.68096 8.6874 1.91846 8.4874 2.11846L3.6124 6.99346H14.7874C15.0707 6.99346 15.3082 7.08929 15.4999 7.28096C15.6916 7.47262 15.7874 7.71012 15.7874 7.99346C15.7874 8.27679 15.6916 8.51429 15.4999 8.70596C15.3082 8.89762 15.0707 8.99346 14.7874 8.99346H3.6124Z" fill="#8E8E8E"/>
</svg>
