<svg width="19" height="16" viewBox="0 0 19 16" fill="none" xmlns="http://www.w3.org/2000/svg">
<path d="M17 0C17.3978 0 17.7794 0.158035 18.0607 0.43934C18.342 0.720644 18.5 1.10218 18.5 1.5V16H15.5V1.5C15.5 1.10218 15.658 0.720644 15.9393 0.43934C16.2206 0.158035 16.6022 0 17 0V0Z" fill="black"/>
<path d="M12 4C12.3978 4 12.7794 4.15804 13.0607 4.43934C13.342 4.72064 13.5 5.10218 13.5 5.5V16H10.5V5.5C10.5 5.10218 10.658 4.72064 10.9393 4.43934C11.2206 4.15804 11.6022 4 12 4V4Z" fill="black"/>
<path d="M7 8C7.39782 8 7.77936 8.15804 8.06066 8.43934C8.34196 8.72064 8.5 9.10218 8.5 9.5V16H5.5V9.5C5.5 9.10218 5.65804 8.72064 5.93934 8.43934C6.22064 8.15804 6.60218 8 7 8V8Z" fill="black"/>
<path d="M2 12C2.39782 12 2.77936 12.158 3.06066 12.4393C3.34196 12.7206 3.5 13.1022 3.5 13.5V16H0.5V13.5C0.5 13.1022 0.658035 12.7206 0.93934 12.4393C1.22064 12.158 1.60218 12 2 12V12Z" fill="black"/>
</svg>
