<svg width="20" height="20" viewBox="0 0 20 20" fill="none" xmlns="http://www.w3.org/2000/svg">
<mask id="mask0_89_1917" style="mask-type:alpha" maskUnits="userSpaceOnUse" x="0" y="0" width="20" height="20">
<rect width="20" height="20" fill="#D9D9D9"/>
</mask>
<g mask="url(#mask0_89_1917)">
<path d="M9.125 12.875L12.0208 9.97916C12.1875 9.81249 12.3889 9.72916 12.625 9.72916C12.8611 9.72916 13.0625 9.81249 13.2292 9.97916C13.3958 10.1458 13.4792 10.3472 13.4792 10.5833C13.4792 10.8194 13.3958 11.0208 13.2292 11.1875L9.70833 14.7083C9.54167 14.875 9.34722 14.9583 9.125 14.9583C8.90278 14.9583 8.70833 14.875 8.54167 14.7083L6.77083 12.9375C6.60417 12.7708 6.52083 12.5694 6.52083 12.3333C6.52083 12.0972 6.60417 11.8958 6.77083 11.7292C6.9375 11.5625 7.13889 11.4792 7.375 11.4792C7.61111 11.4792 7.8125 11.5625 7.97917 11.7292L9.125 12.875ZM4.16667 18.3333C3.70833 18.3333 3.31597 18.1701 2.98958 17.8437C2.66319 17.5174 2.5 17.125 2.5 16.6667V4.99999C2.5 4.54166 2.66319 4.1493 2.98958 3.82291C3.31597 3.49652 3.70833 3.33332 4.16667 3.33332H5V2.49999C5 2.26388 5.07986 2.06596 5.23958 1.90624C5.39931 1.74652 5.59722 1.66666 5.83333 1.66666C6.06944 1.66666 6.26736 1.74652 6.42708 1.90624C6.58681 2.06596 6.66667 2.26388 6.66667 2.49999V3.33332H13.3333V2.49999C13.3333 2.26388 13.4132 2.06596 13.5729 1.90624C13.7326 1.74652 13.9306 1.66666 14.1667 1.66666C14.4028 1.66666 14.6007 1.74652 14.7604 1.90624C14.9201 2.06596 15 2.26388 15 2.49999V3.33332H15.8333C16.2917 3.33332 16.684 3.49652 17.0104 3.82291C17.3368 4.1493 17.5 4.54166 17.5 4.99999V16.6667C17.5 17.125 17.3368 17.5174 17.0104 17.8437C16.684 18.1701 16.2917 18.3333 15.8333 18.3333H4.16667ZM4.16667 16.6667H15.8333V8.33332H4.16667V16.6667Z" fill="#2D2E87"/>
</g>
</svg>
