<svg width="20" height="20" viewBox="0 0 20 20" fill="none" xmlns="http://www.w3.org/2000/svg">
<mask id="mask0_89_1927" style="mask-type:alpha" maskUnits="userSpaceOnUse" x="0" y="0" width="20" height="20">
<rect width="20" height="20" fill="#D9D9D9"/>
</mask>
<g mask="url(#mask0_89_1927)">
<path d="M9.99984 13.3333C10.6665 13.3333 11.2603 13.1354 11.7811 12.7396C12.3019 12.3437 12.6804 11.8333 12.9165 11.2083H7.08317C7.31928 11.8333 7.69775 12.3437 8.21859 12.7396C8.73942 13.1354 9.33317 13.3333 9.99984 13.3333ZM7.9165 9.99999C8.26373 9.99999 8.55887 9.87846 8.80192 9.63541C9.04498 9.39235 9.1665 9.09721 9.1665 8.74999C9.1665 8.40277 9.04498 8.10763 8.80192 7.86457C8.55887 7.62152 8.26373 7.49999 7.9165 7.49999C7.56928 7.49999 7.27414 7.62152 7.03109 7.86457C6.78803 8.10763 6.6665 8.40277 6.6665 8.74999C6.6665 9.09721 6.78803 9.39235 7.03109 9.63541C7.27414 9.87846 7.56928 9.99999 7.9165 9.99999ZM12.0832 9.99999C12.4304 9.99999 12.7255 9.87846 12.9686 9.63541C13.2116 9.39235 13.3332 9.09721 13.3332 8.74999C13.3332 8.40277 13.2116 8.10763 12.9686 7.86457C12.7255 7.62152 12.4304 7.49999 12.0832 7.49999C11.7359 7.49999 11.4408 7.62152 11.1978 7.86457C10.9547 8.10763 10.8332 8.40277 10.8332 8.74999C10.8332 9.09721 10.9547 9.39235 11.1978 9.63541C11.4408 9.87846 11.7359 9.99999 12.0832 9.99999ZM6.354 5.33332L8.68734 2.31249C8.854 2.09027 9.05192 1.92707 9.28109 1.82291C9.51025 1.71874 9.74984 1.66666 9.99984 1.66666C10.2498 1.66666 10.4894 1.71874 10.7186 1.82291C10.9478 1.92707 11.1457 2.09027 11.3123 2.31249L13.6457 5.33332L17.1873 6.52082C17.5484 6.63193 17.8332 6.8368 18.0415 7.13541C18.2498 7.43402 18.354 7.76388 18.354 8.12499C18.354 8.29166 18.3297 8.45832 18.2811 8.62499C18.2325 8.79166 18.1526 8.95138 18.0415 9.10416L15.7498 12.3542L15.8332 15.7708C15.8471 16.2569 15.6873 16.6667 15.354 17C15.0207 17.3333 14.6318 17.5 14.1873 17.5C14.1596 17.5 14.0068 17.4792 13.729 17.4375L9.99984 16.3958L6.27067 17.4375C6.20123 17.4653 6.12484 17.4826 6.0415 17.4896C5.95817 17.4965 5.88178 17.5 5.81234 17.5C5.36789 17.5 4.979 17.3333 4.64567 17C4.31234 16.6667 4.15262 16.2569 4.1665 15.7708L4.24984 12.3333L1.979 9.10416C1.86789 8.95138 1.78803 8.79166 1.73942 8.62499C1.69081 8.45832 1.6665 8.29166 1.6665 8.12499C1.6665 7.77777 1.7672 7.45485 1.96859 7.15624C2.16998 6.85763 2.45123 6.64582 2.81234 6.52082L6.354 5.33332Z" fill="#2D2E87"/>
</g>
</svg>
