<svg width="24" height="25" viewBox="0 0 24 25" fill="none" xmlns="http://www.w3.org/2000/svg">
<mask id="mask0_89_1119" style="mask-type:alpha" maskUnits="userSpaceOnUse" x="0" y="0" width="24" height="25">
<rect y="0.5" width="24" height="24" fill="#D9D9D9"/>
</mask>
<g mask="url(#mask0_89_1119)">
<path d="M4 19.5V10.5C4 10.1833 4.07083 9.88333 4.2125 9.6C4.35417 9.31667 4.55 9.08333 4.8 8.9L10.8 4.4C11.15 4.13333 11.55 4 12 4C12.45 4 12.85 4.13333 13.2 4.4L19.2 8.9C19.45 9.08333 19.6458 9.31667 19.7875 9.6C19.9292 9.88333 20 10.1833 20 10.5V19.5C20 20.05 19.8042 20.5208 19.4125 20.9125C19.0208 21.3042 18.55 21.5 18 21.5H15C14.7167 21.5 14.4792 21.4042 14.2875 21.2125C14.0958 21.0208 14 20.7833 14 20.5V15.5C14 15.2167 13.9042 14.9792 13.7125 14.7875C13.5208 14.5958 13.2833 14.5 13 14.5H11C10.7167 14.5 10.4792 14.5958 10.2875 14.7875C10.0958 14.9792 10 15.2167 10 15.5V20.5C10 20.7833 9.90417 21.0208 9.7125 21.2125C9.52083 21.4042 9.28333 21.5 9 21.5H6C5.45 21.5 4.97917 21.3042 4.5875 20.9125C4.19583 20.5208 4 20.05 4 19.5Z" fill="white"/>
</g>
</svg>
