<svg width="16" height="17" viewBox="0 0 16 17" fill="none" xmlns="http://www.w3.org/2000/svg">
<path d="M11.7712 11.6047L8.94251 14.4334C8.8188 14.5572 8.6719 14.6554 8.51021 14.7225C8.34852 14.7895 8.17521 14.824 8.00017 14.824C7.82514 14.824 7.65183 14.7895 7.49013 14.7225C7.32844 14.6554 7.18154 14.5572 7.05784 14.4334L4.22851 11.6047C3.48265 10.8588 2.97473 9.90852 2.76896 8.87396C2.5632 7.8394 2.66883 6.76706 3.07251 5.79254C3.47618 4.81801 4.15977 3.98508 5.03683 3.39905C5.91388 2.81303 6.94502 2.50024 7.99984 2.50024C9.05466 2.50024 10.0858 2.81303 10.9629 3.39905C11.8399 3.98508 12.5235 4.81801 12.9272 5.79254C13.3308 6.76706 13.4365 7.8394 13.2307 8.87396C13.0249 9.90852 12.517 10.8588 11.7712 11.6047V11.6047Z" stroke="black" stroke-width="2" stroke-linecap="round" stroke-linejoin="round"/>
<path d="M9.41421 9.24759C9.78929 8.87251 10 8.36381 10 7.83337C10 7.30294 9.78929 6.79423 9.41421 6.41916C9.03914 6.04409 8.53043 5.83337 8 5.83337C7.46957 5.83337 6.96086 6.04409 6.58579 6.41916C6.21071 6.79423 6 7.30294 6 7.83337C6 8.36381 6.21071 8.87251 6.58579 9.24759C6.96086 9.62266 7.46957 9.83337 8 9.83337C8.53043 9.83337 9.03914 9.62266 9.41421 9.24759Z" stroke="black" stroke-width="2" stroke-linecap="round" stroke-linejoin="round"/>
</svg>
