<svg width="20" height="20" viewBox="0 0 20 20" fill="none" xmlns="http://www.w3.org/2000/svg">
<mask id="mask0_89_1912" style="mask-type:alpha" maskUnits="userSpaceOnUse" x="0" y="0" width="20" height="20">
<rect width="20" height="20" fill="#D9D9D9"/>
</mask>
<g mask="url(#mask0_89_1912)">
<path d="M10 18.3333C9.54167 18.3333 9.14931 18.1701 8.82292 17.8437C8.49653 17.5174 8.33333 17.125 8.33333 16.6667H11.6667C11.6667 17.125 11.5035 17.5174 11.1771 17.8437C10.8507 18.1701 10.4583 18.3333 10 18.3333ZM7.5 15.8333C7.26389 15.8333 7.06597 15.7535 6.90625 15.5937C6.74653 15.434 6.66667 15.2361 6.66667 15C6.66667 14.7639 6.74653 14.566 6.90625 14.4062C7.06597 14.2465 7.26389 14.1667 7.5 14.1667H12.5C12.7361 14.1667 12.934 14.2465 13.0938 14.4062C13.2535 14.566 13.3333 14.7639 13.3333 15C13.3333 15.2361 13.2535 15.434 13.0938 15.5937C12.934 15.7535 12.7361 15.8333 12.5 15.8333H7.5ZM6.875 13.3333C5.91667 12.7639 5.15625 12 4.59375 11.0417C4.03125 10.0833 3.75 9.04166 3.75 7.91666C3.75 6.18055 4.35764 4.70485 5.57292 3.48957C6.78819 2.2743 8.26389 1.66666 10 1.66666C11.7361 1.66666 13.2118 2.2743 14.4271 3.48957C15.6424 4.70485 16.25 6.18055 16.25 7.91666C16.25 9.04166 15.9687 10.0833 15.4062 11.0417C14.8437 12 14.0833 12.7639 13.125 13.3333H6.875Z" fill="#2D2E87"/>
</g>
</svg>
