<svg width="24" height="24" viewBox="0 0 24 24" fill="none" xmlns="http://www.w3.org/2000/svg">
<path d="M3.63694 3.43408L12.3769 12.0051L3.70194 20.6551C3.56037 20.47 3.45023 20.2629 3.37594 20.0421C3.33693 19.7919 3.33693 19.5372 3.37594 19.2871V4.56708C3.34994 4.17208 3.44094 3.77708 3.63594 3.43408M16.1419 8.26708L13.2889 11.0931L4.65294 2.60008C4.93294 2.50308 5.23294 2.47608 5.52594 2.52208C5.98594 2.64808 6.42494 2.84208 6.82794 3.09508L14.6439 7.42008C15.1519 7.69308 15.6469 7.98008 16.1419 8.26708ZM13.2899 12.9301L16.1289 15.7181L14.0709 16.8641L7.79194 20.3541C7.27194 20.6411 6.74994 20.9151 6.24194 21.2281C6.02462 21.3635 5.78087 21.451 5.52701 21.4846C5.27315 21.5183 5.01503 21.4973 4.76994 21.4231L13.2899 12.9301ZM20.6499 12.0051C20.6578 12.3549 20.5697 12.7001 20.3951 13.0033C20.2206 13.3066 19.9663 13.5562 19.6599 13.7251L17.3139 15.0271L14.2269 12.0051L17.3269 8.93108C18.1219 9.37408 18.9039 9.81708 19.6849 10.2341C19.9966 10.408 20.2525 10.6667 20.4232 10.9801C20.5938 11.2936 20.6731 11.649 20.6499 12.0051Z" fill="black"/>
</svg>
