<svg width="25" height="25" viewBox="0 0 25 25" fill="none" xmlns="http://www.w3.org/2000/svg">
<mask id="mask0_89_964" style="mask-type:alpha" maskUnits="userSpaceOnUse" x="0" y="0" width="25" height="25">
<rect x="0.5" y="0.375" width="24" height="24" fill="#D9D9D9"/>
</mask>
<g mask="url(#mask0_89_964)">
<path d="M4.5 20.375C3.95 20.375 3.47917 20.1792 3.0875 19.7875C2.69583 19.3958 2.5 18.925 2.5 18.375V6.375C2.5 5.825 2.69583 5.35417 3.0875 4.9625C3.47917 4.57083 3.95 4.375 4.5 4.375H20.5C21.05 4.375 21.5208 4.57083 21.9125 4.9625C22.3042 5.35417 22.5 5.825 22.5 6.375V18.375C22.5 18.925 22.3042 19.3958 21.9125 19.7875C21.5208 20.1792 21.05 20.375 20.5 20.375H4.5ZM12.5 13.2C12.5833 13.2 12.6708 13.1875 12.7625 13.1625C12.8542 13.1375 12.9417 13.1 13.025 13.05L20.1 8.625C20.2333 8.54167 20.3333 8.4375 20.4 8.3125C20.4667 8.1875 20.5 8.05 20.5 7.9C20.5 7.56667 20.3583 7.31667 20.075 7.15C19.7917 6.98333 19.5 6.99167 19.2 7.175L12.5 11.375L5.8 7.175C5.5 6.99167 5.20833 6.9875 4.925 7.1625C4.64167 7.3375 4.5 7.58333 4.5 7.9C4.5 8.06667 4.53333 8.2125 4.6 8.3375C4.66667 8.4625 4.76667 8.55833 4.9 8.625L11.975 13.05C12.0583 13.1 12.1458 13.1375 12.2375 13.1625C12.3292 13.1875 12.4167 13.2 12.5 13.2Z" fill="white"/>
</g>
</svg>
