<svg width="272" height="201" viewBox="0 0 272 201" fill="none" xmlns="http://www.w3.org/2000/svg">
<path d="M244.745 187.07H226.728V187.206H244.745V187.07Z" fill="#EBEBEB"/>
<path d="M180.183 188.549H175.456V188.685H180.183V188.549Z" fill="#EBEBEB"/>
<path d="M226.184 182.021H215.745V182.157H226.184V182.021Z" fill="#EBEBEB"/>
<path d="M52.0339 182.935H28.5386V183.071H52.0339V182.935Z" fill="#EBEBEB"/>
<path d="M60.3239 182.935H56.8804V183.071H60.3239V182.935Z" fill="#EBEBEB"/>
<path d="M122.482 185.231H71.52V185.367H122.482V185.231Z" fill="#EBEBEB"/>
<path d="M129.689 154.054H24.6429C23.819 154.054 23.029 153.727 22.4464 153.144C21.8639 152.562 21.5366 151.772 21.5366 150.948V3.28998C21.5438 2.47087 21.8742 1.68776 22.456 1.1111C23.0377 0.534434 23.8237 0.210906 24.6429 0.210938H129.689C130.097 0.210938 130.501 0.291282 130.878 0.447385C131.255 0.603488 131.597 0.832293 131.886 1.12073C132.174 1.40918 132.403 1.75161 132.559 2.12847C132.715 2.50534 132.795 2.90926 132.795 3.31718V150.948C132.795 151.356 132.715 151.76 132.559 152.137C132.403 152.513 132.174 152.856 131.886 153.144C131.597 153.433 131.255 153.662 130.878 153.818C130.501 153.974 130.097 154.054 129.689 154.054ZM24.6429 0.319738C23.8555 0.321176 23.1009 0.634572 22.5442 1.19129C21.9875 1.74801 21.6741 2.50266 21.6726 3.28998V150.948C21.6741 151.735 21.9875 152.49 22.5442 153.047C23.1009 153.603 23.8555 153.917 24.6429 153.918H129.689C130.477 153.917 131.231 153.603 131.788 153.047C132.345 152.49 132.658 151.735 132.659 150.948V3.28998C132.658 2.50266 132.345 1.74801 131.788 1.19129C131.231 0.634572 130.477 0.321176 129.689 0.319738H24.6429Z" fill="#EBEBEB"/>
<path d="M247.357 154.054H142.31C141.487 154.054 140.696 153.727 140.114 153.144C139.531 152.562 139.204 151.772 139.204 150.948V3.28998C139.211 2.47087 139.542 1.68776 140.123 1.1111C140.705 0.534434 141.491 0.210906 142.31 0.210938H247.357C248.181 0.210938 248.971 0.538201 249.553 1.12073C250.136 1.70327 250.463 2.49335 250.463 3.31718V150.948C250.463 151.772 250.136 152.562 249.553 153.144C248.971 153.727 248.181 154.054 247.357 154.054ZM142.31 0.319738C141.523 0.321176 140.768 0.634572 140.212 1.19129C139.655 1.74801 139.342 2.50266 139.34 3.28998V150.948C139.342 151.735 139.655 152.49 140.212 153.047C140.768 153.603 141.523 153.917 142.31 153.918H247.357C248.144 153.917 248.899 153.603 249.455 153.047C250.012 152.49 250.326 151.735 250.327 150.948V3.28998C250.326 2.50266 250.012 1.74801 249.455 1.19129C248.899 0.634572 248.144 0.321176 247.357 0.319738H142.31Z" fill="#EBEBEB"/>
<path d="M272 178.317H0V178.453H272V178.317Z" fill="#EBEBEB"/>
<path d="M215.587 150.105H229.323C229.91 150.105 230.491 149.99 231.034 149.766C231.576 149.542 232.069 149.213 232.485 148.799C232.9 148.384 233.229 147.891 233.454 147.349C233.679 146.807 233.795 146.225 233.795 145.638V125.559C233.795 125.343 233.709 125.135 233.556 124.982C233.403 124.829 233.195 124.743 232.979 124.743C232.762 124.743 232.555 124.829 232.402 124.982C232.249 125.135 232.163 125.343 232.163 125.559V145.638C232.161 146.391 231.861 147.112 231.329 147.643C230.797 148.174 230.075 148.473 229.323 148.473H215.587V150.105Z" fill="#E0E0E0"/>
<path d="M211.66 169.357V150.654L210.572 150.306C209.969 150.117 209.443 149.741 209.069 149.232C208.695 148.723 208.494 148.109 208.494 147.477H218.852C218.851 148.109 218.65 148.723 218.276 149.232C217.902 149.741 217.376 150.117 216.773 150.306L215.685 150.654V169.357L224.292 173.203V174.835L213.667 171.125L203.048 174.835V173.203L211.66 169.357Z" fill="#E0E0E0"/>
<path d="M200.121 148.473H227.217C227.997 148.473 228.745 148.163 229.297 147.613C229.848 147.062 230.159 146.315 230.16 145.535C230.16 144.755 229.85 144.006 229.298 143.454C228.747 142.902 227.998 142.592 227.217 142.592H200.121C199.34 142.592 198.592 142.902 198.04 143.454C197.488 144.006 197.178 144.755 197.178 145.535C197.179 146.315 197.49 147.062 198.042 147.613C198.593 148.163 199.341 148.473 200.121 148.473Z" fill="#F0F0F0"/>
<path d="M231.999 132.626L233.462 111.731C233.516 110.954 233.26 110.188 232.75 109.6C232.24 109.012 231.518 108.649 230.742 108.592C229.966 108.538 229.2 108.794 228.613 109.304C228.025 109.814 227.664 110.536 227.608 111.312L226.145 132.223C226.09 133 226.345 133.767 226.855 134.356C227.365 134.945 228.088 135.307 228.865 135.362C229.643 135.415 230.411 135.156 230.998 134.643C231.586 134.13 231.946 133.404 231.999 132.626Z" fill="#EBEBEB"/>
<path d="M222.437 176.005C222.437 176.373 222.546 176.733 222.75 177.039C222.955 177.345 223.246 177.583 223.586 177.724C223.927 177.865 224.301 177.901 224.662 177.829C225.023 177.757 225.355 177.579 225.614 177.318C225.874 177.057 226.051 176.725 226.122 176.364C226.194 176.003 226.156 175.629 226.014 175.289C225.873 174.949 225.633 174.659 225.327 174.455C225.02 174.251 224.66 174.143 224.292 174.144C223.799 174.145 223.327 174.342 222.98 174.691C222.632 175.04 222.437 175.512 222.437 176.005Z" fill="#E0E0E0"/>
<path d="M201.188 176.005C201.188 176.372 201.297 176.732 201.501 177.038C201.705 177.344 201.996 177.583 202.336 177.723C202.676 177.864 203.05 177.901 203.411 177.829C203.772 177.757 204.103 177.58 204.364 177.32C204.624 177.06 204.801 176.728 204.873 176.367C204.945 176.007 204.908 175.632 204.767 175.293C204.626 174.953 204.388 174.662 204.082 174.458C203.776 174.253 203.416 174.144 203.048 174.144C202.555 174.144 202.081 174.34 201.732 174.689C201.384 175.038 201.188 175.511 201.188 176.005Z" fill="#E0E0E0"/>
<path d="M54.5403 150.105H40.7988C40.2119 150.105 39.6305 149.99 39.088 149.766C38.5455 149.542 38.0525 149.213 37.6372 148.799C37.2219 148.384 36.8924 147.891 36.6676 147.349C36.4429 146.807 36.3271 146.225 36.3271 145.638V125.559C36.3271 125.343 36.4131 125.135 36.5661 124.982C36.7192 124.829 36.9267 124.743 37.1431 124.743C37.3596 124.743 37.5671 124.829 37.7201 124.982C37.8732 125.135 37.9591 125.343 37.9591 125.559V145.638C37.9606 146.391 38.2604 147.112 38.7928 147.643C39.3252 148.174 40.0466 148.473 40.7988 148.473H54.5348L54.5403 150.105Z" fill="#E0E0E0"/>
<path d="M58.4691 169.357V150.654L59.5571 150.306C60.1595 150.117 60.686 149.741 61.0597 149.232C61.4335 148.723 61.6351 148.109 61.6352 147.477H51.2992C51.2992 148.109 51.5008 148.723 51.8746 149.232C52.2484 149.741 52.7748 150.117 53.3772 150.306L54.4652 150.654V169.357L45.8374 173.203V174.835L56.4617 171.125L67.086 174.835V173.203L58.4691 169.357Z" fill="#E0E0E0"/>
<path d="M70.0075 148.473H42.9108C42.1312 148.473 41.3835 148.163 40.8317 147.613C40.2799 147.062 39.9692 146.315 39.9678 145.535C39.9678 144.755 40.2778 144.006 40.8298 143.454C41.3817 142.902 42.1303 142.592 42.9108 142.592H70.0075C70.788 142.592 71.5366 142.902 72.0885 143.454C72.6404 144.006 72.9505 144.755 72.9505 145.535C72.9491 146.315 72.6383 147.062 72.0866 147.613C71.5348 148.163 70.7871 148.473 70.0075 148.473Z" fill="#F0F0F0"/>
<path d="M38.1281 132.626L36.6648 111.731C36.6109 110.954 36.8668 110.188 37.3766 109.6C37.8864 109.012 38.6085 108.649 39.3848 108.592C40.1608 108.538 40.9264 108.794 41.5139 109.304C42.1013 109.814 42.4625 110.536 42.5182 111.312L43.9816 132.223C44.0369 133 43.7815 133.767 43.2715 134.356C42.7614 134.945 42.0384 135.307 41.2616 135.362C40.4833 135.415 39.7161 135.156 39.1285 134.643C38.541 134.13 38.1812 133.404 38.1281 132.626Z" fill="#EBEBEB"/>
<path d="M47.6917 176.005C47.6917 176.373 47.5824 176.733 47.3777 177.039C47.1731 177.345 46.8822 177.583 46.5419 177.724C46.2016 177.865 45.8273 177.901 45.4662 177.829C45.1052 177.757 44.7737 177.579 44.5137 177.318C44.2537 177.057 44.077 176.725 44.0058 176.364C43.9346 176.003 43.9722 175.629 44.1139 175.289C44.2555 174.949 44.4948 174.659 44.8015 174.455C45.1082 174.251 45.4684 174.143 45.8366 174.144C46.3291 174.145 46.8009 174.342 47.1487 174.691C47.4964 175.04 47.6917 175.512 47.6917 176.005Z" fill="#E0E0E0"/>
<path d="M68.9407 176.005C68.9407 176.373 68.8314 176.733 68.6268 177.039C68.4221 177.345 68.1312 177.583 67.7909 177.724C67.4506 177.865 67.0763 177.901 66.7152 177.829C66.3542 177.757 66.0227 177.579 65.7627 177.318C65.5027 177.057 65.326 176.725 65.2548 176.364C65.1836 176.003 65.2213 175.629 65.3629 175.289C65.5046 174.949 65.7439 174.659 66.0505 174.455C66.3572 174.251 66.7174 174.143 67.0856 174.144C67.5781 174.145 68.05 174.342 68.3977 174.691C68.7454 175.04 68.9407 175.512 68.9407 176.005Z" fill="#E0E0E0"/>
<path d="M112.918 178.474H102.305L101.217 158.357H114.006L112.918 178.474Z" fill="#EBEBEB"/>
<path d="M104.753 178.474H100.401V177.582L104.753 177.038V178.474Z" fill="#E0E0E0"/>
<path d="M102.816 156.725H112.369C112.802 156.725 113.217 156.897 113.523 157.203C113.829 157.509 114.001 157.924 114.001 158.357H101.217C101.217 157.924 101.389 157.509 101.695 157.203C102.001 156.897 102.416 156.725 102.849 156.725H102.816Z" fill="#E0E0E0"/>
<path d="M91.1526 126.305H74.1743V124.27L91.1526 123.182V126.305Z" fill="#E0E0E0"/>
<path d="M116.269 128.377H66.0415V135.33H116.269V128.377Z" fill="#F0F0F0"/>
<path d="M126.681 126.305H55.8086V130.45H126.681V126.305Z" fill="#FAFAFA"/>
<path d="M120.099 178.474H123.297L117.759 130.45H114.006L120.099 178.474Z" fill="#E6E6E6"/>
<path d="M68.4845 130.45H64.7309L59.1875 178.474H62.3917L68.4845 130.45Z" fill="#E6E6E6"/>
<path d="M108.354 125.271C106.903 118.065 105.452 110.859 104.002 103.653C103.79 102.619 102.217 103.06 102.424 104.082L106.569 124.673H97.5933C97.3769 124.673 97.1694 124.759 97.0163 124.912C96.8633 125.065 96.7773 125.272 96.7773 125.489C96.7773 125.705 96.8633 125.913 97.0163 126.066C97.1694 126.219 97.3769 126.305 97.5933 126.305H107.565C107.69 126.302 107.812 126.271 107.924 126.214C108.035 126.158 108.132 126.077 108.208 125.978C108.284 125.878 108.336 125.763 108.361 125.641C108.386 125.519 108.384 125.392 108.354 125.271Z" fill="#E0E0E0"/>
<path d="M98.1914 119.472L100.988 79.4936C102.02 80.2324 102.845 81.2234 103.385 82.3719C103.925 83.5205 104.161 84.7882 104.072 86.0542L102.163 113.407C102.073 114.672 101.661 115.894 100.966 116.956C100.271 118.018 99.3159 118.884 98.1914 119.472Z" fill="#FAFAFA"/>
<path d="M119.979 114.685H115.432C114.56 114.685 113.854 115.391 113.854 116.263V124.727C113.854 125.598 114.56 126.305 115.432 126.305H119.979C120.851 126.305 121.557 125.598 121.557 124.727V116.263C121.557 115.391 120.851 114.685 119.979 114.685Z" fill="#F5F5F5"/>
<path d="M116.901 110.355C115.698 110.355 114.725 110.654 114.725 111.024C114.725 111.394 115.704 110.893 116.901 110.893C117.058 110.893 117.211 110.893 117.363 110.893V113.532H118.048V110.997C118.669 111.116 119.077 111.236 119.077 110.997C119.077 110.643 118.103 110.355 116.901 110.355Z" fill="#E0E0E0"/>
<path d="M118.93 112.694H116.476V115.147H118.93V112.694Z" fill="#F0F0F0"/>
<path d="M153.859 135.33H204.087V128.377H153.859V135.33Z" fill="#F0F0F0"/>
<path d="M143.451 130.45H214.324V126.305L143.451 126.305V130.45Z" fill="#FAFAFA"/>
<path d="M150.03 178.474H146.832L152.369 130.45H156.123L150.03 178.474Z" fill="#E6E6E6"/>
<path d="M201.65 130.45H205.398L210.941 178.474H207.737L201.65 130.45Z" fill="#E6E6E6"/>
<path d="M189.595 126.305H206.573V124.27L189.595 123.182V126.305Z" fill="#E0E0E0"/>
<path d="M155.438 89.8133V126.305H157.793L158.337 123.041C158.437 122.468 158.735 121.949 159.18 121.575C159.625 121.201 160.187 120.996 160.769 120.995H182.73C183.311 120.996 183.874 121.201 184.318 121.575C184.763 121.949 185.062 122.468 185.162 123.041L185.706 126.305H188.061V89.8133H155.438Z" fill="#F5F5F5"/>
<path d="M165.991 125.271C167.442 118.065 168.892 110.859 170.343 103.653C170.555 102.619 172.127 103.06 171.921 104.082L167.775 124.673H176.751C176.968 124.673 177.175 124.759 177.328 124.912C177.481 125.065 177.567 125.272 177.567 125.489C177.567 125.705 177.481 125.913 177.328 126.066C177.175 126.219 176.968 126.305 176.751 126.305H166.78C166.655 126.302 166.532 126.271 166.421 126.214C166.31 126.158 166.213 126.077 166.137 125.978C166.061 125.878 166.009 125.763 165.984 125.641C165.958 125.519 165.961 125.392 165.991 125.271Z" fill="#E0E0E0"/>
<path d="M176.152 119.472L173.356 79.4936C172.324 80.2324 171.499 81.2234 170.959 82.3719C170.419 83.5205 170.182 84.7882 170.272 86.0542L172.181 113.407C172.27 114.673 172.681 115.895 173.376 116.957C174.072 118.019 175.027 118.885 176.152 119.472Z" fill="#E0E0E0"/>
<path d="M118.407 50.7704H29.2837V105.078H118.407V50.7704Z" fill="#EBEBEB"/>
<path d="M119.07 50.7485H118.417V105.056H119.07V50.7485Z" fill="#E0E0E0"/>
<path d="M32.5195 53.126H31.981V101.993H32.5195V53.126Z" fill="#E0E0E0"/>
<path d="M115.502 53.126H31.9272V101.993H115.502V53.126Z" fill="white"/>
<path d="M61.5317 74.652V76.9803H66.9609V74.652H61.5317Z" fill="#F5F5F5"/>
<path d="M62.5923 92.1741V93.9857H68.0214V92.1741H62.5923Z" fill="#F5F5F5"/>
<path d="M63.4739 73.8904H45.8374V98.675H63.4739V73.8904Z" fill="#F0F0F0"/>
<path d="M61.373 96.178V97.9895H66.8022V96.178H61.373Z" fill="#F5F5F5"/>
<path d="M62.2769 79.6078V81.4193H67.706V79.6078H62.2769Z" fill="#F5F5F5"/>
<path d="M61.0854 84.1067V85.9182H66.5146V84.1067H61.0854Z" fill="#F5F5F5"/>
<path d="M59.9384 76.9367H47.916V79.0692H59.9384V76.9367Z" fill="#E6E6E6"/>
<path d="M60.1288 86.0488H48.1064L47.916 85.0805H59.933L60.1288 86.0488Z" fill="#E6E6E6"/>
<path d="M52.181 81.2017H47.916V83.3342H52.181V81.2017Z" fill="#E6E6E6"/>
<path d="M88.5033 69.4133H81.6162V79.3032H88.5033V69.4133Z" fill="#F5F5F5"/>
<path d="M42.8397 85.0858H35.9526V94.9757H42.8397V85.0858Z" fill="#F5F5F5"/>
<path d="M43.7752 56.6674H36.8882V63.5544H43.7752V56.6674Z" fill="#F5F5F5"/>
<path d="M76.4261 88.2411H69.5391V95.1281H76.4261V88.2411Z" fill="#F5F5F5"/>
<path d="M110.252 70.2673H92.6157V95.052H110.252V70.2673Z" fill="#F5F5F5"/>
<path d="M107.701 73.8522H95.0317V74.1242H107.701V73.8522Z" fill="#E0E0E0"/>
<path d="M101.5 74.1188H101.228V92.4733H101.5V74.1188Z" fill="#E0E0E0"/>
<path d="M107.32 74.1188H107.048V92.4733H107.32V74.1188Z" fill="#E0E0E0"/>
<path d="M96.3321 74.1188H96.0601V92.4733H96.3321V74.1188Z" fill="#E0E0E0"/>
<path d="M95.4224 74.1188H95.1504V92.4733H95.4224V74.1188Z" fill="#E0E0E0"/>
<path d="M107.048 75.0872H95.2866V75.3592H107.048V75.0872Z" fill="#E0E0E0"/>
<path d="M133.379 200.789C191.631 200.789 238.855 198.032 238.855 194.631C238.855 191.23 191.631 188.473 133.379 188.473C75.1256 188.473 27.9023 191.23 27.9023 194.631C27.9023 198.032 75.1256 200.789 133.379 200.789Z" fill="#F5F5F5"/>
<path d="M149.708 81.849C149.708 85.0535 148.437 88.127 146.172 90.3944C143.908 92.6618 140.836 93.9378 137.632 93.9422H133.236V105.464H121.312V110.191C121.244 113.354 119.941 116.364 117.681 118.576C115.421 120.789 112.384 122.028 109.221 122.028C106.058 122.028 103.021 120.789 100.761 118.576C98.5011 116.364 97.1979 113.354 97.1308 110.191V105.464H85.9951V93.9422H80.9359C77.7286 93.9422 74.6527 92.6681 72.3848 90.4002C70.1169 88.1323 68.8428 85.0563 68.8428 81.849C68.8428 78.6418 70.1169 75.5658 72.3848 73.2979C74.6527 71.03 77.7286 69.7559 80.9359 69.7559H85.9951V58.234H97.517V63.315C97.4829 64.9243 97.7704 66.5242 98.3626 68.021C98.9549 69.5177 99.84 70.8812 100.966 72.0314C102.092 73.1816 103.437 74.0955 104.92 74.7193C106.404 75.3432 107.998 75.6646 109.607 75.6646C111.217 75.6646 112.811 75.3432 114.294 74.7193C115.778 74.0955 117.123 73.1816 118.249 72.0314C119.375 70.8812 120.26 69.5177 120.852 68.021C121.444 66.5242 121.732 64.9243 121.698 63.315V58.2558H133.22V69.7777H137.632C140.832 69.782 143.901 71.055 146.164 73.3177C148.428 75.5805 149.703 78.6484 149.708 81.849Z" fill="#33A852"/>
<g opacity="0.5">
<path d="M149.708 81.849C149.708 85.0535 148.437 88.127 146.172 90.3944C143.908 92.6618 140.836 93.9378 137.632 93.9422H133.236V105.464H121.312V110.191C121.244 113.354 119.941 116.364 117.681 118.576C115.421 120.789 112.384 122.028 109.221 122.028C106.058 122.028 103.021 120.789 100.761 118.576C98.5011 116.364 97.1979 113.354 97.1308 110.191V105.464H85.9951V93.9422H80.9359C77.7286 93.9422 74.6527 92.6681 72.3848 90.4002C70.1169 88.1323 68.8428 85.0563 68.8428 81.849C68.8428 78.6418 70.1169 75.5658 72.3848 73.2979C74.6527 71.03 77.7286 69.7559 80.9359 69.7559H85.9951V58.234H97.517V63.315C97.4829 64.9243 97.7704 66.5242 98.3626 68.021C98.9549 69.5177 99.84 70.8812 100.966 72.0314C102.092 73.1816 103.437 74.0955 104.92 74.7193C106.404 75.3432 107.998 75.6646 109.607 75.6646C111.217 75.6646 112.811 75.3432 114.294 74.7193C115.778 74.0955 117.123 73.1816 118.249 72.0314C119.375 70.8812 120.26 69.5177 120.852 68.021C121.444 66.5242 121.732 64.9243 121.698 63.315V58.2558H133.22V69.7777H137.632C140.832 69.782 143.901 71.055 146.164 73.3177C148.428 75.5805 149.703 78.6484 149.708 81.849Z" fill="white"/>
</g>
<path d="M137.676 93.8824H132.617V105.404H179.847V93.8824H184.237C187.444 93.8824 190.52 92.6084 192.788 90.3405C195.056 88.0726 196.33 84.9966 196.33 81.7893C196.33 78.582 195.056 75.5061 192.788 73.2382C190.52 70.9703 187.444 69.6962 184.237 69.6962H179.847V58.1743H168.325V53.1151C168.325 49.9078 167.051 46.8319 164.783 44.564C162.515 42.2961 159.439 41.022 156.232 41.022C153.024 41.022 149.949 42.2961 147.681 44.564C145.413 46.8319 144.139 49.9078 144.139 53.1151V58.1743H132.617V69.6962H137.676C140.883 69.6962 143.959 70.9703 146.227 73.2382C148.495 75.5061 149.769 78.582 149.769 81.7893C149.769 84.9966 148.495 88.0726 146.227 90.3405C143.959 92.6084 140.883 93.8824 137.676 93.8824Z" fill="#33A852"/>
<g opacity="0.3">
<path d="M137.675 93.8824H132.616V105.404H179.846V93.8824H184.236C187.444 93.8824 190.52 92.6084 192.787 90.3405C195.055 88.0726 196.329 84.9966 196.329 81.7893C196.329 78.582 195.055 75.5061 192.787 73.2382C190.52 70.9703 187.444 69.6962 184.236 69.6962H179.846V58.1743H168.324V53.1151C168.324 49.9078 167.05 46.8319 164.782 44.564C162.514 42.2961 159.439 41.022 156.231 41.022C153.024 41.022 149.948 42.2961 147.68 44.564C145.412 46.8319 144.138 49.9078 144.138 53.1151V58.1743H132.616V69.6962H137.675C140.883 69.6962 143.959 70.9703 146.227 73.2382C148.494 75.5061 149.769 78.582 149.769 81.7893C149.769 84.9966 148.494 88.0726 146.227 90.3405C143.959 92.6084 140.883 93.8824 137.675 93.8824Z" fill="white"/>
</g>
<path d="M140.558 52.8321L139.541 52.5764C138.446 52.3511 137.379 52.0063 136.359 51.5482L136.223 51.483C135.222 50.9988 133.971 50.395 133.704 48.2897C133.699 48.1568 133.648 48.0298 133.56 47.9305C133.471 47.8312 133.351 47.7659 133.22 47.7457C123.896 47.2942 120.648 42.3601 120.643 36.8657C120.643 31.4801 124.184 26.3937 134.243 26.274C143.567 26.1598 148.234 31.899 147.951 37.8123C147.766 41.5876 144.807 46.7611 139.177 47.9361C138.486 48.17 137.256 48.2135 136.827 48.8337C136.731 48.984 136.68 49.1586 136.68 49.3369C136.68 49.5152 136.731 49.6898 136.827 49.8401C137.029 50.1492 137.276 50.4261 137.561 50.6615C138.562 51.5211 140.558 52.8321 140.558 52.8321Z" fill="white"/>
<path d="M140.559 53.104H140.494L139.476 52.8537C138.363 52.622 137.277 52.27 136.24 51.8038L136.109 51.7385C135.103 51.2544 133.721 50.5907 133.438 48.3331C133.438 48.2841 133.389 48.0176 133.204 48.0067C122.047 47.4627 120.377 40.7987 120.371 36.8764C120.371 33.6614 121.715 26.1651 134.243 25.9964C140.156 25.9366 143.491 28.1072 145.275 29.9568C146.283 30.9939 147.065 32.2279 147.574 33.5815C148.082 34.9351 148.305 36.3791 148.229 37.823C148.043 40.2848 147.071 42.6218 145.457 44.4903C143.844 46.3587 141.673 47.6599 139.264 48.2025C139.036 48.276 138.804 48.3341 138.568 48.3766C137.986 48.4963 137.328 48.6323 137.083 48.9913C137.016 49.0962 136.98 49.2179 136.98 49.3422C136.98 49.4665 137.016 49.5883 137.083 49.6931C137.271 49.9791 137.5 50.2358 137.763 50.4547C138.737 51.2924 140.711 52.5872 140.733 52.6035C140.786 52.6381 140.825 52.6905 140.843 52.7514C140.861 52.8122 140.857 52.8774 140.831 52.9353C140.809 52.9886 140.771 53.0336 140.722 53.0639C140.673 53.0942 140.616 53.1082 140.559 53.104ZM134.526 26.5404H134.249C122.204 26.6873 120.91 33.8028 120.915 36.8764C120.915 40.6083 122.52 46.9459 133.231 47.4627C133.432 47.4837 133.618 47.577 133.755 47.7251C133.892 47.8732 133.971 48.0661 133.977 48.2678C134.227 50.2262 135.347 50.7702 136.343 51.2489L136.479 51.3142C137.337 51.708 138.234 52.0089 139.155 52.2118C138.552 51.7929 137.861 51.287 137.387 50.879C137.083 50.6251 136.818 50.3261 136.604 49.9923C136.476 49.7996 136.408 49.5735 136.408 49.3422C136.408 49.1109 136.476 48.8848 136.604 48.6921C136.969 48.1481 137.741 47.9958 138.426 47.8544C138.671 47.8 138.911 47.751 139.09 47.6912C141.393 47.1844 143.471 45.9503 145.018 44.1712C146.565 42.3922 147.498 40.1626 147.68 37.8121C147.753 36.4421 147.541 35.0719 147.059 33.7874C146.577 32.503 145.835 31.3322 144.878 30.3484C143.203 28.5968 140.048 26.5404 134.526 26.5404Z" fill="#33A852"/>
<path d="M129.471 50.5473C130.119 49.8129 130.423 49.0785 130.26 48.404C129.923 46.9841 128.666 47.0059 127.856 46.7339C122.225 45.5534 119.266 41.4734 119.081 37.6981C118.798 31.7848 123.466 26.0401 132.79 26.1544C142.854 26.2795 146.39 31.3659 146.39 36.7461C146.39 42.2241 143.126 47.1582 133.812 47.6261C133.502 47.6261 133.361 47.9253 133.323 48.1701C133.062 50.2753 131.811 50.8901 130.81 51.3633L130.674 51.4286C129.653 51.8843 128.586 52.229 127.491 52.4568L126.474 52.707C126.474 52.707 128.585 51.5374 129.471 50.5473Z" fill="white"/>
<path d="M126.458 52.9789C126.404 52.9797 126.35 52.9641 126.305 52.934C126.259 52.9039 126.223 52.8608 126.203 52.8102C126.178 52.7491 126.177 52.6812 126.199 52.6191C126.221 52.5571 126.265 52.5052 126.322 52.473C126.322 52.473 128.422 51.3034 129.249 50.3622C129.864 49.655 130.109 49.0186 129.978 48.4637C129.744 47.479 129.031 47.3104 128.281 47.1309C128.096 47.0874 127.911 47.0438 127.737 46.9894C121.807 45.7491 118.957 41.4298 118.777 37.7088C118.701 36.2641 118.925 34.8193 119.433 33.4649C119.941 32.1104 120.724 30.8754 121.731 29.8371C123.515 27.993 126.85 25.8006 132.763 25.8768C145.275 26.0346 146.641 33.5254 146.635 36.7568C146.635 40.679 144.96 47.3485 133.802 47.887C133.617 47.887 133.574 48.159 133.568 48.2134C133.286 50.4656 131.904 51.1347 130.897 51.6189L130.767 51.6842C129.719 52.1497 128.625 52.5017 127.503 52.7341L126.48 52.9843L126.458 52.9789ZM132.491 26.4208C126.964 26.4208 123.787 28.4771 122.155 30.2288C121.199 31.2125 120.456 32.3834 119.974 33.6678C119.492 34.9522 119.281 36.3225 119.354 37.6925C119.522 41.2067 122.237 45.3085 127.911 46.4726C128.09 46.5325 128.259 46.5706 128.455 46.6141C129.206 46.7936 130.239 47.0384 130.549 48.344C130.723 49.0838 130.44 49.8835 129.701 50.7322C129.223 51.2289 128.69 51.6688 128.112 52.0432C128.962 51.844 129.789 51.5597 130.582 51.1946L130.718 51.1293C131.708 50.6506 132.834 50.1066 133.084 48.1482C133.087 47.9457 133.165 47.7515 133.303 47.6029C133.44 47.4543 133.628 47.3618 133.83 47.343C144.535 46.8262 146.14 40.4886 146.146 36.7514C146.146 33.6995 144.856 26.584 132.807 26.4154L132.491 26.4208Z" fill="#33A852"/>
<path d="M129.685 37.2845L132.056 39.6563L137.415 35.3152" fill="white"/>
<path d="M132.056 40.2004C131.984 40.2008 131.913 40.1871 131.847 40.1601C131.781 40.133 131.72 40.0931 131.669 40.0427L129.298 37.6708C129.241 37.6221 129.194 37.5621 129.162 37.4946C129.129 37.4271 129.111 37.3536 129.108 37.2786C129.105 37.2037 129.118 37.129 129.145 37.0592C129.172 36.9894 129.214 36.926 129.267 36.873C129.32 36.82 129.383 36.7785 129.453 36.7511C129.523 36.7238 129.597 36.7112 129.672 36.714C129.747 36.7169 129.821 36.7353 129.888 36.7679C129.956 36.8006 130.016 36.8468 130.065 36.9038L132.094 38.9275L137.071 34.8964C137.126 34.8471 137.19 34.8095 137.26 34.7858C137.33 34.7621 137.404 34.7529 137.477 34.7586C137.551 34.7644 137.622 34.785 137.688 34.8192C137.753 34.8535 137.811 34.9006 137.857 34.9578C137.904 35.015 137.938 35.0811 137.958 35.152C137.978 35.2229 137.984 35.2971 137.975 35.3703C137.965 35.4434 137.941 35.5138 137.904 35.5773C137.866 35.6408 137.816 35.696 137.757 35.7396L132.398 40.0916C132.3 40.1657 132.179 40.2041 132.056 40.2004Z" fill="#33A852"/>
<path d="M201.345 24.3808C201.486 24.4317 201.64 24.4354 201.783 24.3912C201.926 24.347 202.051 24.2575 202.139 24.136L206.263 18.3805C206.316 18.308 206.354 18.2256 206.375 18.1382C206.396 18.0507 206.399 17.96 206.384 17.8713C206.37 17.7826 206.337 17.6977 206.289 17.6217C206.241 17.5457 206.179 17.48 206.105 17.4285C205.958 17.324 205.775 17.2819 205.597 17.3115C205.418 17.341 205.259 17.4398 205.153 17.5863L201.03 23.3418C200.976 23.4143 200.938 23.4967 200.917 23.5841C200.896 23.6716 200.893 23.7623 200.908 23.851C200.923 23.9397 200.955 24.0245 201.003 24.1006C201.051 24.1766 201.114 24.2423 201.187 24.2938C201.236 24.3301 201.289 24.3594 201.345 24.3808Z" fill="#33A852"/>
<path d="M206.219 31.9588C206.331 31.9996 206.451 32.0108 206.568 31.9914L213.406 30.8599C213.574 30.8196 213.721 30.7168 213.817 30.5724C213.913 30.4279 213.951 30.2525 213.922 30.0815C213.894 29.9104 213.802 29.7564 213.665 29.6505C213.528 29.5446 213.355 29.4947 213.183 29.5108L206.345 30.6423C206.196 30.668 206.061 30.7417 205.959 30.852C205.857 30.9623 205.794 31.1031 205.779 31.2528C205.765 31.4024 205.801 31.5526 205.88 31.6801C205.96 31.8077 206.079 31.9056 206.219 31.9588Z" fill="#33A852"/>
<path d="M185.211 27.1987C185.365 27.2533 185.535 27.2505 185.687 27.191C185.84 27.1314 185.967 27.019 186.044 26.8741C186.121 26.7293 186.143 26.5616 186.107 26.4016C186.071 26.2415 185.979 26.0997 185.847 26.0019L179.918 21.7533C179.773 21.6757 179.605 21.653 179.445 21.6895C179.285 21.7259 179.144 21.819 179.047 21.9516C178.95 22.0841 178.904 22.2472 178.919 22.4107C178.933 22.5743 179.005 22.7272 179.123 22.8413L185.053 27.0899C185.1 27.1339 185.153 27.1706 185.211 27.1987Z" fill="#33A852"/>
<path d="M209.788 44.8187C209.943 44.8764 210.114 44.8759 210.269 44.8173C210.424 44.7588 210.553 44.6461 210.631 44.5002C210.709 44.3542 210.732 44.1849 210.695 44.0234C210.658 43.862 210.564 43.7194 210.43 43.6219L204.854 39.6235C204.781 39.571 204.698 39.5335 204.61 39.513C204.522 39.4925 204.432 39.4895 204.343 39.5041C204.254 39.5188 204.169 39.5508 204.092 39.5984C204.016 39.6459 203.949 39.7081 203.897 39.7813C203.844 39.8545 203.807 39.9374 203.786 40.0251C203.766 40.1129 203.763 40.2038 203.777 40.2927C203.792 40.3816 203.824 40.4667 203.871 40.5433C203.919 40.6198 203.981 40.6862 204.054 40.7387L209.63 44.7317C209.679 44.7668 209.732 44.7961 209.788 44.8187Z" fill="#33A852"/>
<path d="M192.658 22.5149C192.771 22.5562 192.892 22.5675 193.01 22.5476C193.127 22.5277 193.238 22.4773 193.33 22.4014C193.423 22.3255 193.494 22.2268 193.536 22.115C193.579 22.0032 193.591 21.8823 193.572 21.7642L192.392 14.6323C192.383 14.5386 192.355 14.4477 192.31 14.3653C192.264 14.2829 192.203 14.2107 192.128 14.1532C192.053 14.0957 191.968 14.0542 191.877 14.0312C191.785 14.0083 191.69 14.0043 191.598 14.0197C191.505 14.035 191.416 14.0693 191.337 14.1205C191.258 14.1716 191.19 14.2384 191.138 14.3168C191.086 14.3952 191.051 14.4835 191.034 14.5762C191.018 14.6688 191.021 14.7639 191.043 14.8554L192.223 21.9709C192.24 22.0924 192.289 22.2071 192.366 22.3029C192.442 22.3986 192.544 22.4719 192.658 22.5149Z" fill="#33A852"/>
<g opacity="0.5">
<path d="M201.345 24.3808C201.486 24.4317 201.64 24.4354 201.783 24.3912C201.926 24.347 202.051 24.2575 202.139 24.136L206.263 18.3805C206.316 18.308 206.354 18.2256 206.375 18.1382C206.396 18.0507 206.399 17.96 206.384 17.8713C206.37 17.7826 206.337 17.6977 206.289 17.6217C206.241 17.5457 206.179 17.48 206.105 17.4285C205.958 17.324 205.775 17.2819 205.597 17.3115C205.418 17.341 205.259 17.4398 205.153 17.5863L201.03 23.3418C200.976 23.4143 200.938 23.4967 200.917 23.5841C200.896 23.6716 200.893 23.7623 200.908 23.851C200.923 23.9397 200.955 24.0245 201.003 24.1006C201.051 24.1766 201.114 24.2423 201.187 24.2938C201.236 24.3301 201.289 24.3594 201.345 24.3808Z" fill="white"/>
<path d="M206.219 31.9588C206.331 31.9996 206.451 32.0108 206.568 31.9914L213.406 30.8599C213.574 30.8196 213.721 30.7168 213.817 30.5724C213.913 30.4279 213.951 30.2525 213.922 30.0815C213.894 29.9104 213.802 29.7564 213.665 29.6505C213.528 29.5446 213.355 29.4947 213.183 29.5108L206.345 30.6423C206.196 30.668 206.061 30.7417 205.959 30.852C205.857 30.9623 205.794 31.1031 205.779 31.2528C205.765 31.4024 205.801 31.5526 205.88 31.6801C205.96 31.8077 206.079 31.9056 206.219 31.9588Z" fill="white"/>
<path d="M185.211 27.1987C185.365 27.2533 185.535 27.2505 185.687 27.191C185.84 27.1314 185.967 27.019 186.044 26.8741C186.121 26.7293 186.143 26.5616 186.107 26.4016C186.071 26.2415 185.979 26.0997 185.847 26.0019L179.918 21.7533C179.773 21.6757 179.605 21.653 179.445 21.6895C179.285 21.7259 179.144 21.819 179.047 21.9516C178.95 22.0841 178.904 22.2472 178.919 22.4107C178.933 22.5743 179.005 22.7272 179.123 22.8413L185.053 27.0899C185.1 27.1339 185.153 27.1706 185.211 27.1987Z" fill="white"/>
<path d="M209.788 44.8187C209.943 44.8764 210.114 44.8759 210.269 44.8173C210.424 44.7588 210.553 44.6461 210.631 44.5002C210.709 44.3542 210.732 44.1849 210.695 44.0234C210.658 43.862 210.564 43.7194 210.43 43.6219L204.854 39.6235C204.781 39.571 204.698 39.5335 204.61 39.513C204.522 39.4925 204.432 39.4895 204.343 39.5041C204.254 39.5188 204.169 39.5508 204.092 39.5984C204.016 39.6459 203.949 39.7081 203.897 39.7813C203.844 39.8545 203.807 39.9374 203.786 40.0251C203.766 40.1129 203.763 40.2038 203.777 40.2927C203.792 40.3816 203.824 40.4667 203.871 40.5433C203.919 40.6198 203.981 40.6862 204.054 40.7387L209.63 44.7317C209.679 44.7668 209.732 44.7961 209.788 44.8187Z" fill="white"/>
<path d="M192.658 22.5149C192.771 22.5562 192.892 22.5675 193.01 22.5476C193.127 22.5277 193.238 22.4773 193.33 22.4014C193.423 22.3255 193.494 22.2268 193.536 22.115C193.579 22.0032 193.591 21.8823 193.572 21.7642L192.392 14.6323C192.383 14.5386 192.355 14.4477 192.31 14.3653C192.264 14.2829 192.203 14.2107 192.128 14.1532C192.053 14.0957 191.968 14.0542 191.877 14.0312C191.785 14.0083 191.69 14.0043 191.598 14.0197C191.505 14.035 191.416 14.0693 191.337 14.1205C191.258 14.1716 191.19 14.2384 191.138 14.3168C191.086 14.3952 191.051 14.4835 191.034 14.5762C191.018 14.6688 191.021 14.7639 191.043 14.8554L192.223 21.9709C192.24 22.0924 192.289 22.2071 192.366 22.3029C192.442 22.3986 192.544 22.4719 192.658 22.5149Z" fill="white"/>
</g>
<path d="M186.717 29.1463C188.206 27.3067 190.343 26.108 192.689 25.7969C195.035 25.4857 197.411 26.0859 199.328 27.4737C201.245 28.8616 202.557 30.9316 202.994 33.2576C203.431 35.5836 202.959 37.9885 201.677 39.9773C199.501 42.9748 195.655 43.274 192.429 44.5578C191.428 44.9549 189.491 47.7402 189.491 47.7402L183.148 43.1434C183.148 43.1434 185.188 40.4234 185.253 39.3626C185.465 35.8973 184.546 32.1437 186.717 29.1463Z" fill="#33A852"/>
<path opacity="0.4" d="M186.717 29.1463C188.206 27.3067 190.343 26.108 192.689 25.7969C195.035 25.4857 197.411 26.0859 199.328 27.4737C201.245 28.8616 202.557 30.9316 202.994 33.2576C203.431 35.5836 202.959 37.9885 201.677 39.9773C199.501 42.9748 195.655 43.274 192.429 44.5578C191.428 44.9549 189.491 47.7402 189.491 47.7402L183.148 43.1434C183.148 43.1434 185.188 40.4234 185.253 39.3626C185.465 35.8973 184.546 32.1437 186.717 29.1463Z" fill="white"/>
<path d="M183.328 46.7067L186.048 48.6651C186.286 48.8384 186.557 48.963 186.844 49.0317C187.131 49.1003 187.429 49.1117 187.721 49.0653C188.012 49.0188 188.292 48.9153 188.543 48.7608C188.795 48.6062 189.013 48.4036 189.186 48.1646L182.838 43.5732C182.49 44.0545 182.346 44.6539 182.438 45.2407C182.529 45.8276 182.849 46.3545 183.328 46.7067Z" fill="#263238"/>
<path d="M183.328 49.5951C183.722 49.8794 184.212 49.9961 184.691 49.9196C185.17 49.8432 185.6 49.5797 185.885 49.1871L182.92 47.0383C182.636 47.4317 182.519 47.9218 182.596 48.4011C182.672 48.8804 182.936 49.3098 183.328 49.5951Z" fill="#263238"/>
<path opacity="0.5" d="M183.328 49.5951C183.722 49.8794 184.212 49.9961 184.691 49.9196C185.17 49.8432 185.6 49.5797 185.885 49.1871L182.92 47.0383C182.636 47.4317 182.519 47.9218 182.596 48.4011C182.672 48.8804 182.936 49.3098 183.328 49.5951Z" fill="white"/>
<g opacity="0.7">
<path d="M183.328 46.7067L186.048 48.6651C186.286 48.8384 186.557 48.963 186.844 49.0317C187.131 49.1003 187.429 49.1117 187.721 49.0653C188.012 49.0188 188.292 48.9153 188.543 48.7608C188.795 48.6062 189.013 48.4036 189.186 48.1646L182.838 43.5732C182.49 44.0545 182.346 44.6539 182.438 45.2407C182.529 45.8276 182.849 46.3545 183.328 46.7067Z" fill="white"/>
</g>
<path opacity="0.3" d="M188.605 28.3955C185.216 33.1229 184.34 40.5974 187.99 43.2086C191.64 45.8198 198.87 41.9574 201.819 37.8665C203.625 35.3478 202.134 31.1808 198.484 28.5696C194.834 25.9584 190.4 25.8768 188.605 28.3955Z" fill="white"/>
<path opacity="0.4" d="M187.631 34.6623C187.026 35.5041 186.685 36.5062 186.65 37.542C186.615 38.5778 186.888 39.6007 187.435 40.4813C187.981 41.3619 188.777 42.0605 189.72 42.4889C190.664 42.9173 191.714 43.0561 192.736 42.8878C193.759 42.7195 194.709 42.2517 195.465 41.5435C196.222 40.8353 196.752 39.9186 196.987 38.9093C197.223 37.9001 197.154 36.8436 196.789 35.8736C196.424 34.9036 195.779 34.0637 194.937 33.4601C193.808 32.6515 192.405 32.324 191.035 32.5494C189.665 32.7748 188.441 33.5348 187.631 34.6623Z" fill="white"/>
<path opacity="0.4" d="M188.164 36.6591C186.978 38.2911 187.958 39.7707 189.611 40.9566C191.265 42.1426 192.957 42.5886 194.143 40.9566C195.329 39.3246 194.328 37.8667 192.679 36.6808C191.031 35.4949 189.345 35.0271 188.164 36.6591Z" fill="white"/>
<path d="M58.0229 48.2189L59.878 49.7639L70.6057 40.5975L84.3036 43.3664L94.743 33.52L95.6786 34.8038L98.1538 29.2224L92.0828 29.8698L93.0185 31.1536L83.8575 41.2992L70.1433 38.6336L58.0229 48.2189Z" fill="#33A852"/>
<g opacity="0.3">
<path d="M58.0229 48.2189L59.878 49.7639L70.6057 40.5975L84.3036 43.3664L94.743 33.52L95.6786 34.8038L98.1538 29.2224L92.0828 29.8698L93.0185 31.1536L83.8575 41.2992L70.1433 38.6336L58.0229 48.2189Z" fill="white"/>
</g>
<path d="M159.446 128.443C159.761 133.371 158.543 139.714 157.379 144.442C156.416 148.348 155.747 149.425 155.491 151.155C155.214 153.124 155.812 156.051 155.66 158.526C155.078 168.318 151.096 188.119 151.096 188.119L147.755 187.907L147.842 149.572L150.018 112.427L163.2 115.941C164.516 123.155 159.446 128.443 159.446 128.443Z" fill="#DD8C6A"/>
<path d="M176.408 188.799L173.372 188.712L164.946 151.285L156.427 115.071L170.087 114.663C173.351 121.191 170.038 127.719 170.038 127.719C171.74 132.359 172.388 138.784 172.622 143.653C172.817 147.668 172.464 148.897 172.725 150.621C173.03 152.591 173.987 155.207 174.558 157.639C176.8 167.29 176.408 188.799 176.408 188.799Z" fill="#DD8C6A"/>
<path d="M131.92 81.5878L133.508 83.6768C135.091 84.1664 135.059 86.5219 135.059 86.5219C135.402 86.7885 138.622 88.823 139.373 89.4813L137.474 91.5267C136.653 90.2701 133.797 88.143 133.797 88.143C133.797 88.143 129.913 85.7658 129.276 84.9171C128.64 84.0685 129.7 81.5443 129.7 81.5443L131.92 81.5878Z" fill="#DD8C6A"/>
<path d="M136.315 86.7341C138.921 88.6327 142.767 91.5431 142.767 91.5431C144.815 89.2799 146.976 87.1212 149.241 85.0749C150.645 83.7423 152.252 82.6406 154.001 81.8109L153.332 89.6391C151.27 91.4125 144.807 96.7764 142.283 96.5588C140.2 96.3792 136.332 91.913 134.123 89.1495L136.315 86.7341Z" fill="#263238"/>
<path opacity="0.2" d="M146.962 94.4915C148.338 92.1686 152.114 86.0704 152.114 86.0704L153.017 88.1213L152.407 90.3734C151.45 91.1785 148.344 93.4851 146.962 94.4915Z" fill="black"/>
<path d="M171.747 85.7713C171.193 92.9399 170.165 100.064 168.668 107.096C168.668 107.096 176.637 113.624 174.053 140.438C174.053 140.438 165.991 144.007 146.962 139.763L150.58 106.976C150.58 106.976 149.742 85.668 152.005 83.2907C154.007 81.18 162.738 78.3947 169.413 81.7022C170.162 82.0719 170.784 82.6564 171.2 83.3811C171.615 84.1059 171.806 84.938 171.747 85.7713Z" fill="#33A852"/>
<path opacity="0.4" d="M171.747 85.7713C171.193 92.9399 170.165 100.064 168.668 107.096C168.668 107.096 176.637 113.624 174.053 140.438C174.053 140.438 165.991 144.007 146.962 139.763L150.58 106.976C150.58 106.976 149.742 85.668 152.005 83.2907C154.007 81.18 162.738 78.3947 169.413 81.7022C170.162 82.0719 170.784 82.6564 171.2 83.3811C171.615 84.1059 171.806 84.938 171.747 85.7713Z" fill="black"/>
<path opacity="0.3" d="M162.481 106.378C162.481 106.378 156.644 107.39 152.542 106.378V108.88C152.542 108.88 155.594 109.321 162.481 108.88V106.378Z" fill="black"/>
<path d="M165.876 72.5628C165.104 74.7388 164.097 78.6284 164.924 80.8642C165.023 81.124 165.029 81.4097 164.943 81.6739C164.857 81.938 164.684 82.1648 164.451 82.3167C162.77 83.5298 160.034 84.4927 157.977 84.2914C155.339 84.0031 156.024 82.1154 156.699 81.109C156.878 80.837 157.161 80.4508 157.482 80.391C160.077 79.9503 160.572 78.0028 160.371 76.039L165.876 72.5628Z" fill="#DD8C6A"/>
<path opacity="0.3" d="M163.636 73.9828L160.372 76.0228C160.415 76.5042 160.415 76.9885 160.372 77.4698C161.026 77.45 161.665 77.2707 162.234 76.9473C162.803 76.624 163.284 76.1666 163.636 75.6148C164.016 74.9239 163.902 74.1079 163.636 73.9828Z" fill="black"/>
<path d="M157.309 73.678L155.835 76.3273C156.292 76.3654 156.705 76.5177 157.162 76.5558C157.391 76.1968 157.663 75.8432 157.891 75.4678C157.804 75.8377 157.505 76.2348 157.413 76.5993C158.224 76.7485 159.047 76.8268 159.871 76.8332C159.913 76.7115 159.929 76.5826 159.919 76.4544C159.908 76.3262 159.872 76.2015 159.812 76.088C159.375 75.1041 158.604 74.3064 157.636 73.8358L157.309 73.678Z" fill="#263238"/>
<path d="M166.905 68.9889C165.953 72.378 165.567 74.4289 163.45 75.7998C160.268 77.8887 156.378 75.3918 156.286 71.7905C156.215 68.5265 157.787 63.5434 161.443 62.907C162.694 62.685 163.981 62.9673 165.024 63.6921C166.067 64.417 166.78 65.5253 167.008 66.7748C167.143 67.511 167.108 68.2685 166.905 68.9889Z" fill="#DD8C6A"/>
<path d="M158.956 68.9888C158.546 69.6274 158.052 70.2075 157.487 70.7133C157.621 70.8536 157.784 70.9636 157.964 71.0359C158.144 71.1081 158.337 71.141 158.531 71.1322L158.956 68.9888Z" fill="#FF5652"/>
<path d="M162.684 67.743C162.711 67.7484 162.738 67.7484 162.765 67.743C162.805 67.723 162.835 67.6889 162.85 67.6475C162.865 67.6061 162.864 67.5605 162.847 67.5199C162.739 67.2755 162.575 67.0602 162.368 66.8918C162.161 66.7234 161.917 66.6068 161.655 66.5516C161.611 66.5454 161.567 66.5567 161.531 66.5832C161.496 66.6097 161.472 66.6492 161.465 66.693C161.459 66.737 161.47 66.7817 161.497 66.8173C161.523 66.853 161.563 66.8767 161.606 66.8834C161.812 66.9308 162.004 67.0258 162.167 67.1609C162.33 67.296 162.458 67.4675 162.542 67.6614C162.557 67.6862 162.577 67.7068 162.602 67.7211C162.627 67.7354 162.655 67.743 162.684 67.743Z" fill="#263238"/>
<path d="M157.336 66.1436C157.361 66.1585 157.389 66.1664 157.418 66.1664C157.446 66.1664 157.475 66.1585 157.499 66.1436C157.678 66.034 157.88 65.9684 158.089 65.9523C158.298 65.9363 158.508 65.9701 158.702 66.0512C158.741 66.0701 158.787 66.0728 158.829 66.0585C158.87 66.0443 158.905 66.0143 158.925 65.975C158.935 65.9558 158.941 65.9347 158.943 65.913C158.945 65.8912 158.943 65.8693 158.936 65.8486C158.93 65.8278 158.919 65.8085 158.905 65.7919C158.891 65.7753 158.873 65.7617 158.854 65.752C158.609 65.6451 158.342 65.5983 158.075 65.6153C157.808 65.6323 157.549 65.7127 157.32 65.8499C157.301 65.8601 157.284 65.8741 157.27 65.8909C157.257 65.9077 157.247 65.927 157.24 65.9478C157.234 65.9685 157.232 65.9903 157.235 66.0117C157.237 66.0332 157.244 66.054 157.254 66.0729C157.275 66.1035 157.303 66.1279 157.336 66.1436Z" fill="#263238"/>
<path d="M164.8 79.7545L160.992 82.703C160.83 82.8292 160.641 82.9161 160.439 82.9572C160.238 82.9982 160.03 82.9921 159.831 82.9395C159.633 82.8868 159.449 82.789 159.295 82.6536C159.14 82.5182 159.019 82.3489 158.941 82.159L158.076 80.1788L157.064 80.44C156.948 80.4675 156.843 80.527 156.759 80.6116C156.675 80.6962 156.617 80.8026 156.591 80.9187C156.39 81.8489 155.65 84.1228 155.693 86.1628C155.693 86.1628 158.027 83.0403 159.343 85.287C159.343 85.287 161.063 83.2579 162.45 86.7667C163.338 85.4906 164.124 84.1464 164.8 82.7465C165.512 81.0819 165.991 80.1788 165.991 80.1788L164.8 79.7545Z" fill="white"/>
<path d="M165.257 79.9232C163.589 87.127 162.452 94.4435 161.857 101.814C161.09 112.846 160.932 116.181 165.295 115.702C169.658 115.223 173.232 114.674 172.595 113.085C171.959 111.497 169.582 107.923 169.728 106.1C169.875 104.278 171.393 90.0743 171.567 87.9255C171.741 85.7767 173.036 81.2669 165.257 79.9232Z" fill="#263238"/>
<path d="M166.001 109.968C165.947 109.675 166.991 108.614 168.177 107.874C168.967 107.402 169.806 107.018 170.679 106.726C170.679 106.726 173.117 103.859 173.791 103.081L175.673 104.713C174.447 105.842 173.28 107.033 172.175 108.282L171.164 110.42C170.8 110.936 170.311 111.351 169.744 111.628C169.106 111.924 168.441 112.159 167.758 112.329C167.627 112.364 167.488 112.356 167.362 112.306C167.236 112.256 167.129 112.167 167.056 112.052C166.602 111.414 166.246 110.712 166.001 109.968Z" fill="#DD8C6A"/>
<path d="M157.602 80.2931C157.602 80.2931 154.028 87.0169 153.794 98.2451C153.56 109.473 154.05 115.425 151.972 115.767C149.894 116.11 149.431 114.679 149.431 114.679C149.431 114.679 150.046 108.587 150.046 107.101C150.046 105.616 149.393 96.624 150.046 90.1993C150.699 83.7747 150.046 84.1664 151.134 83.4483C152.222 82.7302 154.686 80.8861 157.602 80.2931Z" fill="#263238"/>
<path opacity="0.2" d="M170.353 100.029L168.209 87.7296C168.209 87.7296 169.977 89.5302 171.289 90.9119C171.038 93.4252 170.668 96.9721 170.353 100.029Z" fill="black"/>
<path d="M169.38 81.3323C169.38 81.3323 167.928 85.0369 168.211 87.7297C168.331 88.8721 176.447 97.5761 176.447 97.5761L170.327 105.693L173.482 108.413C173.482 108.413 182.186 99.7956 182.257 97.4619C182.328 95.1281 172.65 82.3169 169.38 81.3323Z" fill="#263238"/>
<path d="M161.448 68.5863C161.394 68.8691 161.198 69.065 161.013 69.0323C160.828 68.9997 160.719 68.7386 160.779 68.4503C160.839 68.1619 161.029 67.9715 161.214 68.0042C161.399 68.0368 161.503 68.2979 161.448 68.5863Z" fill="#263238"/>
<path d="M158.244 67.9552C158.19 68.2381 157.994 68.4394 157.809 68.4013C157.624 68.3632 157.521 68.1075 157.575 67.8247C157.629 67.5418 157.825 67.3405 158.01 67.3786C158.195 67.4167 158.304 67.6669 158.244 67.9552Z" fill="#263238"/>
<path d="M158.086 67.4058L157.444 67.0794C157.444 67.0794 157.695 67.6669 158.086 67.4058Z" fill="#263238"/>
<path d="M161.29 68.0368L160.648 67.7104C160.648 67.7104 160.899 68.3088 161.29 68.0368Z" fill="#263238"/>
<path d="M159.463 72.7098C159.282 72.7242 159.1 72.7242 158.919 72.7098C158.906 72.7099 158.894 72.7073 158.883 72.7023C158.871 72.6972 158.861 72.6898 158.853 72.6806C158.845 72.6713 158.839 72.6604 158.835 72.6485C158.831 72.6367 158.83 72.6242 158.832 72.6119C158.833 72.5883 158.843 72.5661 158.861 72.55C158.878 72.5338 158.901 72.5248 158.924 72.5248C159.315 72.5587 159.708 72.5011 160.072 72.3566C160.437 72.2122 160.763 71.9848 161.024 71.6925C161.032 71.6832 161.042 71.6758 161.054 71.6707C161.065 71.6657 161.077 71.663 161.089 71.663C161.102 71.663 161.114 71.6657 161.125 71.6707C161.136 71.6758 161.146 71.6832 161.155 71.6925C161.172 71.7098 161.182 71.7333 161.182 71.7578C161.182 71.7823 161.172 71.8057 161.155 71.8231C160.723 72.3221 160.119 72.639 159.463 72.7098Z" fill="#263238"/>
<path d="M164.881 62.3629C166.551 67.139 166.313 72.375 164.218 76.9802C164.691 76.8388 165.197 76.73 165.665 76.594C165.893 75.9901 166.073 75.37 166.301 74.7716C166.225 75.3156 166.078 75.9901 166.002 76.5613L167.28 76.3274C167.504 75.7453 167.688 75.0925 167.912 74.5104C167.814 75.0272 167.705 75.7508 167.601 76.2676C169.084 75.2567 170.131 73.724 170.534 71.9754C170.945 70.0395 170.692 68.0215 169.816 66.2471C168.76 64.4029 166.916 63.6468 164.881 62.3629Z" fill="#263238"/>
<path d="M168.096 71.7632C167.833 72.6122 167.247 73.3237 166.464 73.7434C165.425 74.2874 164.658 73.4279 164.739 72.3181C164.805 71.3226 165.43 69.832 166.573 69.7341C166.825 69.714 167.078 69.758 167.309 69.8621C167.54 69.9662 167.741 70.1269 167.893 70.3294C168.045 70.5319 168.143 70.7695 168.179 71.0202C168.214 71.2709 168.186 71.5265 168.096 71.7632Z" fill="#DD8C6A"/>
<path d="M157.624 88.7958C157.458 88.7948 157.294 88.7557 157.145 88.6816C156.976 88.5968 156.828 88.4734 156.715 88.3213C156.602 88.1692 156.525 87.9926 156.493 87.8058C156.461 87.4892 156.522 87.1702 156.669 86.888C156.816 86.6058 157.042 86.3726 157.32 86.2173C157.809 85.9346 158.348 85.7498 158.908 85.6733H158.973H159.414C159.485 85.6774 159.551 85.7085 159.6 85.7601C159.648 85.8117 159.675 85.8799 159.675 85.9507C159.674 86.021 159.645 86.088 159.595 86.1377C159.546 86.1874 159.479 86.2159 159.408 86.2173C159.142 86.2173 158.821 86.7613 158.756 87.2019V87.2672C158.756 87.5361 158.694 87.8015 158.574 88.0422C158.454 88.2829 158.28 88.4925 158.065 88.6544C157.932 88.7381 157.781 88.7868 157.624 88.7958ZM158.533 86.3261C158.208 86.386 157.896 86.504 157.613 86.6742C157.429 86.7791 157.277 86.9324 157.173 87.1174C157.07 87.3024 157.019 87.5122 157.026 87.7242C157.046 87.8249 157.09 87.9195 157.153 88.0007C157.217 88.0818 157.298 88.1473 157.39 88.192C157.452 88.2253 157.521 88.2428 157.592 88.2428C157.662 88.2428 157.731 88.2253 157.793 88.192C158.076 88.0451 158.141 87.6154 158.206 87.2019V87.1366C158.261 86.8478 158.372 86.5725 158.533 86.3261Z" fill="white"/>
<path d="M160.947 88.9754C160.763 88.9758 160.583 88.9208 160.43 88.8177C160.231 88.6359 160.078 88.4095 159.983 88.157C159.889 87.9044 159.856 87.6331 159.886 87.3652V87.2999C159.886 86.8701 159.604 86.2881 159.342 86.25C159.273 86.2418 159.209 86.2063 159.165 86.1513C159.121 86.0963 159.101 86.0262 159.109 85.9562C159.114 85.8865 159.147 85.8217 159.2 85.7759C159.253 85.7301 159.322 85.7069 159.391 85.7114H159.832H159.897C160.447 85.8441 160.965 86.0805 161.426 86.4077C161.684 86.5923 161.883 86.848 161.998 87.1437C162.113 87.4393 162.139 87.762 162.073 88.0724C162.022 88.2557 161.928 88.424 161.798 88.5632C161.669 88.7024 161.507 88.8083 161.328 88.8721C161.209 88.9303 161.08 88.9654 160.947 88.9754ZM160.207 86.4132C160.336 86.6826 160.412 86.9745 160.43 87.2727V87.3434C160.43 87.7569 160.474 88.1866 160.735 88.3716C160.795 88.4074 160.863 88.4286 160.933 88.4333C161.003 88.438 161.073 88.4262 161.138 88.3988C161.235 88.3636 161.323 88.3066 161.394 88.2321C161.466 88.1576 161.52 88.0676 161.551 87.969C161.579 87.7623 161.551 87.5517 161.468 87.36C161.386 87.1683 161.253 87.0027 161.083 86.881C160.82 86.677 160.524 86.5189 160.207 86.4132Z" fill="white"/>
<path d="M157.76 91.7335C157.731 91.7392 157.702 91.7392 157.673 91.7335C157.604 91.711 157.547 91.6624 157.515 91.5981C157.482 91.5339 157.476 91.4593 157.499 91.3907C158.04 89.7088 158.405 87.9749 158.587 86.2173C158.594 86.1452 158.63 86.0788 158.686 86.0329C158.742 85.987 158.814 85.9653 158.886 85.9725C158.958 85.9797 159.024 86.0153 159.07 86.0714C159.116 86.1275 159.138 86.1996 159.131 86.2717C158.951 88.0669 158.586 89.8389 158.043 91.5594C158.021 91.6156 157.982 91.6631 157.931 91.6946C157.88 91.7261 157.82 91.7398 157.76 91.7335Z" fill="white"/>
<path d="M159.936 93.088C159.882 93.0877 159.83 93.0715 159.785 93.0415C159.741 93.0115 159.706 92.969 159.686 92.9193C159.474 92.3734 159.355 91.7962 159.332 91.2112C159.331 90.6169 159.381 90.0237 159.479 89.4377C159.523 89.144 159.566 88.8502 159.593 88.5564C159.731 87.7429 159.583 86.9068 159.175 86.19C159.155 86.1604 159.141 86.1271 159.133 86.0921C159.126 86.057 159.126 86.0209 159.133 85.9858C159.14 85.9507 159.153 85.9173 159.173 85.8874C159.193 85.8576 159.218 85.832 159.248 85.812C159.278 85.792 159.311 85.778 159.346 85.7709C159.381 85.7637 159.417 85.7636 159.452 85.7704C159.487 85.7772 159.521 85.7909 159.551 85.8106C159.58 85.8303 159.606 85.8558 159.626 85.8854C160.107 86.7052 160.286 87.6675 160.132 88.6054C160.105 88.91 160.061 89.2147 160.018 89.5139C159.923 90.0674 159.876 90.6279 159.876 91.1894C159.896 91.7129 160.003 92.2295 160.192 92.718C160.217 92.7852 160.215 92.8596 160.187 92.9256C160.159 92.9915 160.106 93.0439 160.039 93.0716C160.006 93.0828 159.971 93.0883 159.936 93.088Z" fill="white"/>
<path d="M164.619 68.6025C164.326 68.336 163.912 68.0041 163.618 67.7321C163.758 67.1409 163.805 66.5318 163.76 65.9261C163.624 66.4048 163.58 66.8944 163.444 67.3731L162.443 66.7094C162.205 66.514 161.913 66.3963 161.606 66.3721C161.66 65.8771 161.682 65.3712 161.742 64.8761C161.627 65.3168 161.497 65.8064 161.388 66.247C160.996 66.1926 160.545 66.1001 160.159 66.0457C160.202 65.5017 160.267 65.0013 160.316 64.4736C160.148 64.887 160.028 65.5942 159.859 66.0077L159.745 65.8499C158.631 65.5772 157.477 65.5127 156.34 65.6595C155.959 64.1635 156.416 62.0473 157.885 61.5632C162.862 59.904 166.937 63.7881 167.051 64.1091C167.796 66.16 166.42 67.52 164.619 68.6025Z" fill="#263238"/>
<path d="M166.465 72.7805C166.465 72.8741 166.437 72.9656 166.385 73.0434C166.333 73.1212 166.259 73.1819 166.172 73.2177C166.086 73.2535 165.991 73.2629 165.899 73.2447C165.807 73.2264 165.723 73.1813 165.657 73.1151C165.591 73.0489 165.545 72.9646 165.527 72.8728C165.509 72.781 165.518 72.6858 165.554 72.5994C165.59 72.5129 165.651 72.439 165.728 72.387C165.806 72.3349 165.898 72.3072 165.991 72.3072C166.117 72.3072 166.237 72.3571 166.326 72.4458C166.415 72.5346 166.465 72.6549 166.465 72.7805Z" fill="#33A852"/>
<path d="M146.619 187.227C143.991 188.669 143.698 188.696 140.798 189.245C140.162 189.365 140.385 190.877 141.886 190.91C144.339 190.986 144.133 190.91 146.238 190.954C148.022 190.997 150.171 191.15 151.591 191.209H151.64C151.795 191.198 151.939 191.126 152.041 191.009C152.143 190.892 152.194 190.739 152.184 190.584L151.874 187.352C151.865 187.284 151.832 187.221 151.782 187.174C151.731 187.127 151.665 187.1 151.596 187.097L147.549 186.982C147.223 186.978 146.901 187.063 146.619 187.227Z" fill="#263238"/>
<path d="M146.635 187.472C146.643 187.459 146.647 187.444 146.647 187.429C146.647 187.413 146.643 187.398 146.635 187.385C146.622 187.376 146.605 187.371 146.589 187.371C146.572 187.371 146.556 187.376 146.543 187.385C146.369 187.445 144.856 188.043 144.742 188.527C144.732 188.573 144.733 188.621 144.745 188.667C144.757 188.712 144.781 188.754 144.813 188.789C144.866 188.846 144.931 188.889 145.004 188.917C145.076 188.944 145.154 188.954 145.232 188.946C145.776 188.886 146.347 188.022 146.646 187.51L146.635 187.472ZM144.9 188.511C145.009 188.245 145.765 187.864 146.347 187.614C145.917 188.299 145.487 188.702 145.194 188.75C145.143 188.758 145.091 188.752 145.043 188.732C144.995 188.713 144.953 188.682 144.922 188.642C144.907 188.63 144.896 188.615 144.89 188.598C144.885 188.58 144.884 188.561 144.889 188.544L144.9 188.511Z" fill="#33A852"/>
<path d="M146.635 187.472C146.639 187.457 146.638 187.441 146.632 187.426C146.626 187.411 146.616 187.399 146.602 187.39C146.199 187.074 145.706 186.893 145.193 186.874C145.108 186.884 145.026 186.913 144.952 186.957C144.878 187.001 144.814 187.059 144.764 187.129C144.628 187.32 144.666 187.45 144.731 187.526C144.998 187.858 146.151 187.728 146.586 187.526C146.598 187.522 146.609 187.515 146.618 187.505C146.626 187.496 146.632 187.484 146.635 187.472ZM144.862 187.292L144.921 187.227C144.957 187.176 145.003 187.132 145.056 187.099C145.11 187.067 145.169 187.045 145.232 187.037C145.647 187.047 146.049 187.184 146.385 187.428C145.884 187.581 145.036 187.608 144.878 187.428C144.878 187.428 144.84 187.385 144.878 187.32L144.862 187.292Z" fill="#33A852"/>
<path d="M171.963 187.483C170.479 188.698 168.738 189.559 166.872 190.002C166.099 190.219 166.583 191.634 168.433 191.634C171.496 191.585 170.277 191.536 172.894 191.476C175.13 191.432 175.722 191.416 177.496 191.405H177.556C177.646 191.403 177.734 191.383 177.816 191.346C177.898 191.309 177.971 191.256 178.032 191.19C178.093 191.124 178.14 191.046 178.17 190.962C178.201 190.877 178.214 190.788 178.209 190.698L177.616 187.227C177.596 187.148 177.55 187.078 177.484 187.031C177.418 186.983 177.338 186.96 177.257 186.966L172.584 187.091C172.176 187.042 172.279 187.26 171.963 187.483Z" fill="#263238"/>
<path d="M171.941 187.755C171.952 187.741 171.958 187.724 171.958 187.706C171.958 187.688 171.952 187.671 171.941 187.657C171.934 187.639 171.923 187.623 171.907 187.612C171.892 187.6 171.874 187.593 171.854 187.592C171.62 187.592 169.591 187.657 169.27 188.136C169.243 188.179 169.228 188.229 169.228 188.28C169.228 188.331 169.243 188.381 169.27 188.424C169.314 188.504 169.376 188.574 169.45 188.628C169.524 188.681 169.61 188.718 169.7 188.734C170.342 188.865 171.387 188.19 171.963 187.771L171.941 187.755ZM169.461 188.19C169.695 187.951 170.745 187.831 171.533 187.793C170.739 188.337 170.059 188.604 169.706 188.544C169.646 188.534 169.59 188.51 169.542 188.474C169.494 188.438 169.455 188.391 169.428 188.337C169.416 188.32 169.41 188.3 169.41 188.28C169.41 188.259 169.416 188.239 169.428 188.223L169.461 188.19Z" fill="#33A852"/>
<path d="M171.942 187.755C171.951 187.741 171.956 187.725 171.956 187.709C171.956 187.692 171.951 187.676 171.942 187.662C171.904 187.635 171.224 186.749 170.495 186.634C170.286 186.595 170.069 186.633 169.886 186.743C169.641 186.89 169.636 187.037 169.679 187.135C169.853 187.559 171.268 187.847 171.855 187.809C171.873 187.808 171.89 187.802 171.905 187.792C171.92 187.783 171.933 187.77 171.942 187.755ZM169.924 186.933L169.995 186.863C170.129 186.784 170.288 186.756 170.441 186.787C170.911 186.93 171.328 187.21 171.637 187.592C170.979 187.565 169.973 187.298 169.869 187.048C169.869 187.048 169.869 186.988 169.94 186.928L169.924 186.933Z" fill="#33A852"/>
<path d="M124.075 101.553C123.308 103.065 125.859 104.92 125.859 104.92L127.067 106.155C127.265 106.37 127.535 106.505 127.827 106.533C128.118 106.561 128.409 106.481 128.645 106.307L129.836 105.459L129.874 105.431C130.119 105.244 130.281 104.969 130.327 104.665C130.373 104.36 130.298 104.05 130.119 103.799L129.319 102.711C128.995 102.266 128.58 101.895 128.101 101.623L125.81 100.307L124.075 101.553Z" fill="#FFC3BD"/>
<path d="M114.125 68.4177C114.413 67.78 114.883 67.2413 115.476 66.8688C116.069 66.4963 116.758 66.3063 117.458 66.3226C118.158 66.3388 118.837 66.5605 119.412 66.9601C119.987 67.3597 120.432 67.9196 120.691 68.57L120.767 68.7604C121.237 70.0905 121.423 71.5047 121.311 72.9111C121.278 74.2983 121.235 75.7073 121.256 77.0509C121.278 78.3946 121.256 83.2471 121.3 84.5636C121.343 85.7821 123.808 91.2928 126.196 99.2516C126.244 99.4046 126.304 99.5537 126.375 99.6977L126.816 100.573C126.816 100.573 126.158 100.992 125.483 101.395C124.937 101.806 124.339 102.142 123.704 102.396C123.35 102.074 123.057 101.691 122.839 101.264C120.935 98.2615 114.717 87.1204 114.391 85.4884C114.07 83.976 113.847 78.9604 113.706 77.4372C113.564 75.914 113.455 74.4289 113.412 72.9274C113.378 72.1738 113.408 71.4186 113.499 70.6698C113.595 69.8906 113.806 69.1298 114.125 68.4122V68.4177Z" fill="#263238"/>
<path opacity="0.3" d="M114.125 68.4177C114.413 67.78 114.883 67.2413 115.476 66.8688C116.069 66.4963 116.758 66.3063 117.458 66.3226C118.158 66.3388 118.837 66.5605 119.412 66.9601C119.987 67.3597 120.432 67.9196 120.691 68.57L120.767 68.7604C121.237 70.0905 121.423 71.5047 121.311 72.9111C121.278 74.2983 121.235 75.7073 121.256 77.0509C121.278 78.3946 121.256 83.2471 121.3 84.5636C121.343 85.7821 123.808 91.2928 126.196 99.2516C126.244 99.4046 126.304 99.5537 126.375 99.6977L126.816 100.573C126.816 100.573 126.158 100.992 125.483 101.395C124.937 101.806 124.339 102.142 123.704 102.396C123.35 102.074 123.057 101.691 122.839 101.264C120.935 98.2615 114.717 87.1204 114.391 85.4884C114.07 83.976 113.847 78.9604 113.706 77.4372C113.564 75.914 113.455 74.4289 113.412 72.9274C113.378 72.1738 113.408 71.4186 113.499 70.6698C113.595 69.8906 113.806 69.1298 114.125 68.4122V68.4177Z" fill="black"/>
<path d="M94.5899 70.2944C95.5202 81.0112 99.0779 87.0496 98.5992 95.6122C98.5992 95.6122 117.911 95.993 118.575 95.993C118.858 80.217 121.11 81.4192 120.419 71.4314C120.539 68.1674 118.673 66.1274 116.785 65.801L108.56 64.0983L97.9573 65.9207C96.949 66.093 96.0426 66.6388 95.4186 67.4493C94.7946 68.2598 94.4987 69.2756 94.5899 70.2944Z" fill="#33A852"/>
<path d="M109.757 168.416L112.259 188.19L117.133 187.842L115.817 168.416H109.757Z" fill="#FFC3BD"/>
<path d="M118.32 147.477C118.76 166.125 117.683 182.108 117.683 182.108L111.106 182.554C111.106 182.554 107.401 158.357 108.897 148.473C108.827 146.394 106.422 120.408 105.595 115.495C104.099 106.677 102.5 100.628 102.5 100.628L117.977 99.7628C117.977 99.7628 118.048 135.738 118.32 147.477Z" fill="#33A852"/>
<g opacity="0.2">
<path d="M109.491 107.406C109.491 107.406 108.99 127.833 108.098 139.034C107.636 132.98 106.423 120.408 105.596 115.495L109.491 107.406Z" fill="black"/>
</g>
<path d="M89.167 168.78L87.1597 187.521L92.0176 186.993L95.5427 168.546L89.167 168.78Z" fill="#FFC3BD"/>
<path d="M86.5508 182.043L94.009 181.771C94.009 181.771 100.363 158.874 103.045 146.775C105.645 133.29 110.498 99.6324 110.498 99.6324L98.0999 98.6749C91.4957 110.605 93.873 139.165 92.7034 147.162C87.1002 157.155 86.5508 182.043 86.5508 182.043Z" fill="#33A852"/>
<path d="M117.853 93.7788H99.6992C99.6992 93.7788 96.7181 104.283 96.7453 104.18C96.7725 104.077 118.048 105.203 118.048 105.203L117.853 93.7788Z" fill="#33A852"/>
<path d="M118.048 186.259C121.268 187.891 121.622 187.923 125.12 188.478C125.892 188.603 125.664 190.431 123.885 190.529C120.931 190.709 121.165 190.589 118.657 190.73C116.508 190.85 113.397 191.106 111.683 191.231H111.629C111.535 191.228 111.443 191.207 111.358 191.168C111.272 191.13 111.195 191.075 111.131 191.007C111.067 190.939 111.017 190.858 110.984 190.771C110.951 190.683 110.935 190.59 110.938 190.496L111.199 186.585C111.207 186.502 111.244 186.425 111.304 186.367C111.364 186.309 111.442 186.274 111.525 186.27L116.927 185.992C117.319 185.971 117.708 186.064 118.048 186.259Z" fill="#263238"/>
<path d="M118.048 186.542C118.429 187.151 119.169 188.174 119.805 188.223C119.899 188.231 119.994 188.216 120.081 188.181C120.168 188.145 120.245 188.088 120.306 188.016C120.345 187.974 120.372 187.923 120.385 187.868C120.399 187.813 120.398 187.755 120.382 187.701C120.224 187.118 118.38 186.455 118.173 186.389C118.153 186.381 118.131 186.38 118.109 186.385C118.088 186.389 118.069 186.401 118.054 186.417C118.045 186.433 118.04 186.452 118.04 186.471C118.04 186.49 118.045 186.509 118.054 186.525L118.048 186.542ZM120.186 187.755C120.192 187.776 120.192 187.798 120.186 187.819C120.18 187.84 120.169 187.859 120.154 187.875C120.116 187.924 120.066 187.963 120.009 187.987C119.952 188.011 119.889 188.019 119.827 188.011C119.468 187.983 118.941 187.467 118.391 186.683C119.109 186.961 120.023 187.396 120.175 187.711L120.186 187.755Z" fill="#33A852"/>
<path d="M118.047 186.585C118.591 186.803 119.978 186.917 120.289 186.509C120.359 186.417 120.408 186.253 120.234 186.03C120.168 185.947 120.086 185.878 119.992 185.828C119.899 185.778 119.796 185.746 119.69 185.737C118.978 185.65 118.058 186.379 118.009 186.406C117.996 186.418 117.985 186.433 117.979 186.45C117.972 186.467 117.97 186.486 117.971 186.504C117.971 186.524 117.979 186.544 117.993 186.56C118.007 186.575 118.027 186.584 118.047 186.585ZM120.125 186.253C120.139 186.273 120.147 186.297 120.147 186.321C120.147 186.346 120.139 186.369 120.125 186.389C119.94 186.629 118.918 186.629 118.308 186.46C118.705 186.155 119.185 185.976 119.685 185.949C119.76 185.957 119.832 185.98 119.898 186.018C119.964 186.055 120.021 186.106 120.066 186.166L120.142 186.243L120.125 186.253Z" fill="#33A852"/>
<path d="M93.2143 186.057C94.5308 187.211 96.4184 188.266 99.3669 189.093C100.297 189.354 99.7096 191.084 97.4792 191.035C93.7855 190.981 95.2543 190.915 92.0991 190.85C89.3791 190.796 88.6882 190.774 86.5448 190.758H86.4959C86.3875 190.756 86.2806 190.733 86.1815 190.689C86.0824 190.645 85.9933 190.582 85.9195 190.502C85.8457 190.423 85.7889 190.329 85.7524 190.227C85.7158 190.125 85.7004 190.017 85.7071 189.909L86.4197 185.72C86.4439 185.624 86.5014 185.539 86.5821 185.482C86.6628 185.424 86.7614 185.396 86.8603 185.405L92.4962 185.557C92.964 185.524 92.8444 185.785 93.2143 186.057Z" fill="#263238"/>
<path d="M93.2295 186.4C93.9204 186.906 95.177 187.711 95.9495 187.559C96.0635 187.544 96.1723 187.502 96.2669 187.437C96.3615 187.372 96.4391 187.285 96.4935 187.184C96.5283 187.132 96.547 187.071 96.547 187.009C96.547 186.947 96.5283 186.887 96.4935 186.835C96.1073 186.264 93.6538 186.188 93.3764 186.188C93.3517 186.187 93.3274 186.195 93.3077 186.21C93.2879 186.225 93.2737 186.246 93.2676 186.27C93.2548 186.286 93.2478 186.306 93.2478 186.327C93.2478 186.347 93.2548 186.368 93.2676 186.384L93.2295 186.4ZM96.2759 186.944C96.2905 186.964 96.2983 186.988 96.2983 187.012C96.2983 187.037 96.2905 187.06 96.2759 187.08C96.2424 187.145 96.1946 187.201 96.1362 187.244C96.0777 187.288 96.0102 187.317 95.9386 187.33C95.5143 187.401 94.6874 187.075 93.73 186.422C94.682 186.471 95.9495 186.618 96.2324 186.906L96.2759 186.944Z" fill="#33A852"/>
<path d="M93.3284 186.427C94.0465 186.476 95.7547 186.128 95.9614 185.617C96.0212 185.497 96.0103 185.318 95.7166 185.144C95.4955 185.013 95.2354 184.965 94.9822 185.008C94.1009 185.149 93.2795 186.215 93.236 186.253C93.2245 186.269 93.2183 186.288 93.2183 186.308C93.2183 186.327 93.2245 186.346 93.236 186.362C93.2572 186.395 93.2904 186.418 93.3284 186.427ZM95.6622 185.378C95.7384 185.454 95.7166 185.503 95.7492 185.524C95.6241 185.829 94.411 186.15 93.6167 186.188C93.9893 185.727 94.4914 185.388 95.0584 185.214C95.2449 185.175 95.4393 185.208 95.6024 185.307L95.6894 185.394L95.6622 185.378Z" fill="#33A852"/>
<path opacity="0.8" d="M94.5903 70.2944C95.5205 81.0112 99.0783 87.0496 98.5996 95.6122C98.5996 95.6122 117.912 95.993 118.575 95.993C118.858 80.217 121.11 81.4192 120.419 71.4314C120.539 68.1674 118.586 66.1056 116.698 65.7792L108.538 64.0983L97.9359 65.9207C96.9316 66.0978 96.0304 66.6457 95.4109 67.4557C94.7913 68.2657 94.4984 69.2788 94.5903 70.2944Z" fill="white"/>
<path d="M114.648 86.239L112.472 90.1123L108.534 85.9181C108.534 85.8147 110.22 68.2109 110.22 68.2109L111.237 68.1347C111.139 70.2726 114.648 86.239 114.648 86.239Z" fill="#33A852"/>
<path d="M113.995 67.4655C114.927 74.9894 114.158 82.6265 111.743 89.8131L113.375 107.406C113.696 109.957 115.334 110.458 116.797 110.594L119.8 110.354L118.712 93.5667C118.712 93.5667 121.165 75.0707 120.599 70.8819C120.224 68.1183 119.31 67.0412 118.657 66.4809C118.377 66.2456 118.042 66.0847 117.684 66.0131C116.541 65.7737 113.179 64.8652 113.332 64.9251C113.484 64.9849 113.995 67.4655 113.995 67.4655Z" fill="#263238"/>
<path d="M112.401 59.757C111.988 61.7208 111.351 64.3973 113.489 65.3112C114.42 65.7138 114.86 67.0194 113.968 67.4383C113.076 67.8572 107.299 67.4383 106.793 67.1989C105.542 66.557 104.66 66.1109 105.335 64.8597C106.51 62.7218 105.765 58.2501 105.607 56.1013L112.401 59.757Z" fill="#FFC3BD"/>
<path d="M111.813 67.2316L111.546 68.0748C111.528 68.1717 111.48 68.2608 111.41 68.3306C111.341 68.4004 111.252 68.4477 111.155 68.4665L110.137 68.5427C110.055 68.5432 109.975 68.5177 109.909 68.4698C109.842 68.4219 109.793 68.354 109.768 68.2761L109.272 67.5254L110.54 66.7801L111.813 67.2316Z" fill="#33A852"/>
<path opacity="0.2" d="M106.955 59.2078C107.264 59.9624 107.706 60.6553 108.261 61.2532C109.049 62.1562 110.535 62.5534 111.971 62.5534C112.019 61.6024 112.162 60.6586 112.395 59.7354L112.096 59.5777L106.955 59.2078Z" fill="black"/>
<path d="M104.448 110.528C109.344 110.86 110.704 110.354 111.384 106.536C111.384 106.536 112.678 92.843 112.423 89.8129C112.423 89.8129 109.159 83.4481 108.517 79.0254C107.82 74.0805 104.785 64.1797 103.909 64.245C102.228 64.3592 95.9558 66.5569 94.9385 67.9006C93.5894 69.6904 94.4652 71.7576 94.7862 73.9771C95.8089 81.0872 96.576 83.5352 96.9622 90.7051C96.9622 90.7051 93.6982 109.201 94.1987 109.266C94.5795 109.304 100.542 110.262 104.448 110.528Z" fill="#263238"/>
<path opacity="0.2" d="M98.6001 95.6122H106.956V95.9875C106.956 96.5185 106.745 97.0277 106.37 97.4031C105.994 97.7786 105.485 97.9895 104.954 97.9895H100.602C100.071 97.9895 99.5619 97.7786 99.1864 97.4031C98.811 97.0277 98.6001 96.5185 98.6001 95.9875V95.6122Z" fill="white"/>
<path opacity="0.2" d="M118.902 98.082H117.727C117.196 98.1027 116.678 97.9123 116.287 97.5525C115.895 97.1928 115.662 96.6928 115.638 96.1617V95.7918L118.87 95.6558L118.902 98.082Z" fill="white"/>
<path d="M115.692 57.0044C115.148 60.894 110.638 63.1353 107.472 60.5132C105.639 59.0009 105.296 57.1186 104.818 54.1756C104.747 53.7295 104.676 53.2617 104.595 52.7612C104.463 51.9851 104.508 51.1894 104.725 50.4329C104.811 50.1169 104.93 49.8106 105.079 49.5189C105.623 48.4181 106.537 47.543 107.66 47.046C108.783 46.549 110.045 46.4616 111.226 46.7989C115.105 47.9305 116.176 53.5228 115.692 57.0044Z" fill="#FFC3BD"/>
<path d="M106.379 49.8346C106.907 50.6978 107.353 51.6084 107.712 52.5546C107.365 52.6337 107.031 52.7638 106.722 52.9408C106.439 53.1203 106.722 53.969 106.869 54.2845C107.133 54.9209 107.44 55.5388 107.788 56.1341C107.284 56.3482 106.756 56.5016 106.216 56.5911C106.068 56.1783 105.826 55.8058 105.509 55.5031C105.325 55.2782 105.078 55.1139 104.799 55.0314C104.521 54.949 104.224 54.9522 103.947 55.0407C103.849 54.5565 101.004 52.3696 103.376 50.9063C103.724 50.6305 104.106 50.4019 104.513 50.2263L105.057 50.025C105.484 49.8873 105.931 49.823 106.379 49.8346Z" fill="#263238"/>
<path d="M104.077 54.0669C105.29 53.7894 106.416 55.1222 106.797 56.1341C107.243 57.2547 106.71 58.4025 105.459 58.1795C104.993 58.0906 104.549 57.9102 104.153 57.6488C103.757 57.3873 103.417 57.05 103.152 56.6563C102.985 56.4397 102.874 56.1844 102.831 55.9139C102.788 55.6434 102.814 55.3664 102.906 55.1084C102.998 54.8505 103.154 54.6199 103.358 54.4379C103.563 54.2558 103.81 54.1282 104.077 54.0669Z" fill="#FFC3BD"/>
<path d="M111.357 52.4348C111.558 52.4348 111.749 52.647 111.781 52.9788C111.814 53.3107 111.7 53.5555 111.471 53.5772C111.243 53.599 111.058 53.3651 111.025 53.0332C110.993 52.7014 111.156 52.4783 111.357 52.4348Z" fill="#263238"/>
<path d="M114.844 52.2064C115.045 52.2064 115.235 52.4186 115.268 52.7504C115.301 53.0823 115.165 53.3271 114.958 53.3488C114.751 53.3706 114.566 53.1367 114.533 52.832C114.501 52.5274 114.642 52.2336 114.844 52.2064Z" fill="#263238"/>
<path d="M113.963 56.085C114.226 56.0955 114.487 56.0477 114.729 55.9452C114.971 55.8427 115.187 55.6879 115.362 55.492C114.596 54.8247 113.928 54.0538 113.376 53.2018L113.963 56.085Z" fill="#F98C8C"/>
<path d="M110.524 51.9234C110.636 51.7248 110.792 51.5549 110.981 51.4274C111.17 51.2999 111.386 51.2183 111.612 51.189H111.672C111.72 51.181 111.763 51.1542 111.792 51.1144C111.82 51.0747 111.832 51.0252 111.824 50.9769C111.815 50.9292 111.788 50.8869 111.748 50.8586C111.709 50.8303 111.66 50.8181 111.612 50.8246C111.324 50.8518 111.046 50.9475 110.802 51.1036C110.558 51.2597 110.354 51.4718 110.209 51.7222C110.185 51.7638 110.179 51.8126 110.19 51.8589C110.201 51.9052 110.229 51.9457 110.268 51.9724C110.299 51.9802 110.331 51.9802 110.361 51.9724C110.42 51.9777 110.478 51.9602 110.524 51.9234Z" fill="#263238"/>
<path d="M115.534 51.6079C115.572 51.5779 115.596 51.5344 115.602 51.4866C115.609 51.4389 115.596 51.3907 115.567 51.3522C115.392 51.1215 115.164 50.936 114.903 50.8111C114.642 50.6862 114.355 50.6255 114.065 50.6341C114.042 50.6361 114.019 50.6428 113.999 50.6539C113.978 50.6649 113.96 50.68 113.945 50.6983C113.93 50.7166 113.919 50.7377 113.913 50.7603C113.906 50.783 113.905 50.8066 113.908 50.8299C113.914 50.8757 113.939 50.917 113.975 50.9454C114.012 50.9737 114.058 50.987 114.104 50.9823C114.332 50.9786 114.559 51.0295 114.764 51.1307C114.969 51.2319 115.148 51.3806 115.284 51.5643C115.302 51.5884 115.326 51.6076 115.354 51.6199C115.381 51.6323 115.412 51.6375 115.442 51.6351C115.474 51.6318 115.505 51.6226 115.534 51.6079Z" fill="#263238"/>
<path d="M109.464 86.7938C108.784 84.4002 108 81.9849 106.58 79.9449C106.069 79.205 105.492 78.525 104.948 77.7689C104.219 76.8058 103.549 75.7993 102.941 74.7551C103.539 74.2111 104.328 73.6671 104.97 73.1666L102.544 71.1593C103.154 68.8531 103.434 66.4721 103.376 64.0873C103.643 63.8974 103.973 63.8193 104.296 63.8697C105.455 65.6702 106.3 67.6552 106.793 69.7394C108.186 75.334 109.08 81.0412 109.464 86.7938Z" fill="#263238"/>
<path opacity="0.2" d="M112.134 89.2147C112.096 89.1657 112.063 89.1059 112.025 89.046C110.48 86.6415 103.452 75.6636 102.962 74.7497C103.566 74.2057 104.355 73.6617 104.997 73.1612L102.57 71.1539C103.178 68.8472 103.458 66.4666 103.403 64.0819C103.667 63.8928 103.995 63.8147 104.317 63.8643C105.049 65.0004 105.658 66.2113 106.134 67.4764C106.409 68.2135 106.636 68.9676 106.814 69.734C108.19 75.1414 109.626 83.9542 112.047 88.9753L112.134 89.2147Z" fill="white"/>
<path d="M115.638 87.9525C115.6 85.461 115.638 82.926 116.416 80.5596C116.693 79.7055 117.063 78.8841 117.351 78.03C117.721 76.942 118.847 75.5929 119.076 74.4505C118.347 74.1186 117.444 73.7814 116.671 73.5148L118.417 70.8927C117.166 68.8636 115.257 67.2098 114.609 64.9087C114.301 64.804 113.963 64.8235 113.668 64.9631C113.282 66.2415 113.891 69.9625 113.924 70.7458C114.196 76.5286 114.365 82.3113 115.638 87.9525Z" fill="#263238"/>
<path opacity="0.2" d="M119.075 74.4505C117.72 78.1606 114.897 85.8745 112.134 89.2147C112.047 89.318 111.965 89.416 111.878 89.5084L112.025 89.0461C112.023 89.0207 112.023 88.9952 112.025 88.9699C114.544 80.8099 114.201 76.3763 113.934 70.7241C113.902 69.9408 113.292 66.1165 113.679 64.8435C113.824 64.773 113.982 64.7318 114.144 64.7225C114.305 64.7132 114.467 64.7358 114.62 64.7891C115.256 67.0848 117.166 68.8365 118.428 70.8656C117.851 71.7414 117.269 72.6118 116.687 73.4876C117.421 73.7814 118.346 74.1187 119.075 74.4505Z" fill="white"/>
<path opacity="0.3" d="M94.3619 71.8665C94.3619 71.8665 96.0319 75.6201 100.063 81.1635C104.159 86.7939 106.46 86.7939 106.46 86.7939L109.463 87.6969C109.463 87.6969 108.691 73.4985 99.9651 71.3769C97.3756 70.7296 93.807 71.8829 94.3619 71.8665Z" fill="black"/>
<path d="M128.492 81.109L124.004 81.3157V83.7855L128.492 83.1544V81.109Z" fill="#FFC3BD"/>
<path d="M127.204 82.7356C127.112 84.9116 129.766 85.4066 129.766 85.4066L131.148 86.5381C131.369 86.7281 131.651 86.8325 131.942 86.8325C132.234 86.8325 132.515 86.7281 132.737 86.5381L133.879 85.5644L133.912 85.5372C134.149 85.3191 134.291 85.0156 134.305 84.6934C134.319 84.3712 134.205 84.0564 133.988 83.8181L133.057 82.79C132.681 82.3702 132.219 82.0362 131.703 81.8108L128.493 81.109L127.204 82.7356Z" fill="#FFC3BD"/>
<path d="M94.8023 68.8746C93.8775 70.6806 94.2909 72.7696 95.4006 74.4669C97.9248 78.3075 106.248 83.4102 107.913 84.5363C111.677 87.104 126.953 84.112 126.953 84.112L127.176 80.3421L110.856 79.5261C110.856 79.5261 105.378 70.4032 101.608 67.6179C99.7091 66.2253 96.097 66.345 94.8023 68.8746Z" fill="#263238"/>
<path d="M106.884 46.3039C106.631 46.2747 106.374 46.2999 106.131 46.3777C105.888 46.4556 105.665 46.5843 105.476 46.7554C104.394 47.5695 103.638 48.7421 103.343 50.0629C103.273 50.3322 103.273 50.615 103.343 50.8843C103.373 51.0218 103.443 51.1472 103.545 51.2442C103.647 51.3412 103.775 51.4054 103.914 51.4283C104.296 51.029 104.774 50.7333 105.301 50.5688C106.365 50.2199 107.457 49.9668 108.565 49.8127C110.578 49.5066 112.566 49.0521 114.511 48.4527C114.898 48.3384 115.338 48.1644 115.442 47.7781C115.545 47.3919 114.713 46.7608 114.849 46.6357C115.061 46.429 115.355 46.244 115.355 45.9503C115.352 45.8337 115.32 45.7197 115.262 45.6184C115.181 45.4283 115.064 45.256 114.916 45.1113C114.769 44.9666 114.594 44.8524 114.403 44.7752C114.208 44.7085 113.994 44.7207 113.808 44.8091C113.622 44.8976 113.478 45.0553 113.407 45.2485C113.347 44.8961 113.267 44.5474 113.168 44.204C113.072 44.0461 112.921 43.9297 112.743 43.8776C112.472 43.8 112.186 43.7902 111.91 43.849C111.634 43.9078 111.376 44.0335 111.16 44.2149C110.729 44.5817 110.361 45.0173 110.072 45.5042C109.507 46.3311 107.875 46.5324 106.884 46.3039Z" fill="#263238"/>
<path d="M111.966 56.678C111.958 56.6699 111.951 56.6602 111.946 56.6494C111.942 56.6387 111.939 56.6271 111.939 56.6154C111.939 56.6038 111.942 56.5922 111.946 56.5815C111.951 56.5707 111.958 56.561 111.966 56.5529C111.981 56.5379 112.002 56.5295 112.023 56.5295C112.044 56.5295 112.065 56.5379 112.08 56.5529C112.329 56.8148 112.636 57.0144 112.976 57.1354C113.316 57.2564 113.68 57.2954 114.039 57.2492C114.062 57.2476 114.086 57.2552 114.104 57.2704C114.122 57.2856 114.134 57.3072 114.137 57.3308C114.138 57.353 114.131 57.375 114.117 57.3922C114.103 57.4094 114.082 57.4205 114.06 57.4233C113.677 57.474 113.287 57.4329 112.923 57.3033C112.559 57.1738 112.231 56.9594 111.966 56.678Z" fill="#263238"/>
<path d="M104.29 64.0437L105.672 63.6085C107.08 65.1577 108.831 66.3556 110.785 67.1064C109.902 67.6398 109.198 68.4238 108.762 69.3586C104.138 67.5308 104.29 64.0437 104.29 64.0437Z" fill="white"/>
<path d="M113.499 64.2833L112.243 63.9514C112.243 63.9514 111.601 66.5681 110.279 66.8781C112.515 67.8737 112.836 69.0161 112.836 69.0161C116.165 68.1185 113.499 64.2833 113.499 64.2833Z" fill="white"/>
<path opacity="0.3" d="M110.888 90.4605C110.881 90.5598 110.844 90.6545 110.783 90.733C110.722 90.8114 110.639 90.8701 110.544 90.9017C110.45 90.9332 110.348 90.9362 110.252 90.9103C110.156 90.8844 110.07 90.8307 110.004 90.756C109.938 90.6813 109.896 90.5889 109.883 90.4903C109.869 90.3917 109.885 90.2914 109.928 90.2018C109.972 90.1122 110.04 90.0373 110.126 89.9866C110.212 89.9359 110.31 89.9115 110.41 89.9165C110.477 89.9207 110.542 89.9381 110.603 89.9677C110.663 89.9973 110.717 90.0386 110.762 90.0891C110.806 90.1397 110.84 90.1985 110.862 90.2622C110.884 90.326 110.893 90.3934 110.888 90.4605Z" fill="white"/>
</svg>
