<svg width="360" height="240" viewBox="0 0 360 240" fill="none" xmlns="http://www.w3.org/2000/svg">
<path d="M0 0H360V240H0V0Z" fill="#2D2E87"/>
<path d="M32.4536 49.9286V153H8.63571V49.9286H32.4536Z" fill="#383AA0"/>
<path d="M85.0927 154.114C77.4784 154.114 70.607 152.489 64.4784 149.239C58.4427 145.989 53.6605 141.346 50.132 135.311C46.6963 129.275 44.9784 122.218 44.9784 114.139C44.9784 106.154 46.7427 99.1429 50.2713 93.1071C53.7998 86.9786 58.6284 82.2893 64.757 79.0393C70.8855 75.7893 77.757 74.1643 85.3713 74.1643C92.9855 74.1643 99.857 75.7893 105.986 79.0393C112.114 82.2893 116.943 86.9786 120.471 93.1071C124 99.1429 125.764 106.154 125.764 114.139C125.764 122.125 123.953 129.182 120.332 135.311C116.803 141.346 111.928 145.989 105.707 149.239C99.5784 152.489 92.707 154.114 85.0927 154.114ZM85.0927 133.5C89.6427 133.5 93.4963 131.829 96.6534 128.486C99.9034 125.143 101.528 120.361 101.528 114.139C101.528 107.918 99.9498 103.136 96.7927 99.7929C93.7284 96.45 89.9213 94.7786 85.3713 94.7786C80.7284 94.7786 76.8748 96.45 73.8105 99.7929C70.7463 103.043 69.2141 107.825 69.2141 114.139C69.2141 120.361 70.6998 125.143 73.6713 128.486C76.7355 131.829 80.5427 133.5 85.0927 133.5Z" fill="#383AA0"/>
<path d="M133.664 114.139C133.664 106.061 135.289 99.0036 138.539 92.9679C141.882 86.9321 146.479 82.2893 152.329 79.0393C158.271 75.7893 165.05 74.1643 172.664 74.1643C182.414 74.1643 190.539 76.7179 197.039 81.825C203.632 86.9321 207.95 94.1286 209.993 103.414H184.643C182.507 97.4714 178.375 94.5 172.246 94.5C167.882 94.5 164.4 96.2179 161.8 99.6536C159.2 102.996 157.9 107.825 157.9 114.139C157.9 120.454 159.2 125.329 161.8 128.764C164.4 132.107 167.882 133.779 172.246 133.779C178.375 133.779 182.507 130.807 184.643 124.864H209.993C207.95 133.964 203.632 141.114 197.039 146.314C190.446 151.514 182.321 154.114 172.664 154.114C165.05 154.114 158.271 152.489 152.329 149.239C146.479 145.989 141.882 141.346 138.539 135.311C135.289 129.275 133.664 122.218 133.664 114.139Z" fill="#383AA0"/>
<path d="M295.997 112.886C295.997 115.114 295.858 117.436 295.579 119.85H241.676C242.047 124.679 243.58 128.393 246.272 130.993C249.058 133.5 252.447 134.754 256.44 134.754C262.383 134.754 266.515 132.246 268.837 127.232H294.187C292.887 132.339 290.519 136.936 287.083 141.021C283.74 145.107 279.515 148.311 274.408 150.632C269.301 152.954 263.59 154.114 257.276 154.114C249.662 154.114 242.883 152.489 236.94 149.239C230.997 145.989 226.355 141.346 223.012 135.311C219.669 129.275 217.997 122.218 217.997 114.139C217.997 106.061 219.622 99.0036 222.872 92.9679C226.215 86.9321 230.858 82.2893 236.801 79.0393C242.744 75.7893 249.569 74.1643 257.276 74.1643C264.797 74.1643 271.483 75.7429 277.333 78.9C283.183 82.0571 287.733 86.5607 290.983 92.4107C294.326 98.2607 295.997 105.086 295.997 112.886ZM271.622 106.618C271.622 102.532 270.23 99.2821 267.444 96.8679C264.658 94.4536 261.176 93.2464 256.997 93.2464C253.005 93.2464 249.615 94.4071 246.83 96.7286C244.137 99.05 242.465 102.346 241.815 106.618H271.622Z" fill="#383AA0"/>
<path d="M332.38 88.2321C335.166 83.9607 338.648 80.6179 342.827 78.2036C347.005 75.6964 351.648 74.4429 356.755 74.4429V99.6536H350.209C344.266 99.6536 339.809 100.954 336.837 103.554C333.866 106.061 332.38 110.518 332.38 116.925V153H308.562V75.2786H332.38V88.2321Z" fill="#383AA0"/>
</svg>
