<svg width="25" height="24" viewBox="0 0 25 24" fill="none" xmlns="http://www.w3.org/2000/svg">
<path fill-rule="evenodd" clip-rule="evenodd" d="M20.5 0C21.5609 0 22.5783 0.421428 23.3284 1.17157C24.0786 1.92172 24.5 2.93913 24.5 4V20C24.5 21.0609 24.0786 22.0783 23.3284 22.8284C22.5783 23.5786 21.5609 24 20.5 24H4.5C3.43913 24 2.42172 23.5786 1.67157 22.8284C0.921428 22.0783 0.5 21.0609 0.5 20V4C0.5 2.93913 0.921428 1.92172 1.67157 1.17157C2.42172 0.421428 3.43913 0 4.5 0H20.5ZM7.16667 9.33333C6.81304 9.33333 6.47391 9.47381 6.22386 9.72386C5.97381 9.97391 5.83333 10.313 5.83333 10.6667V17.3333C5.83333 17.687 5.97381 18.0261 6.22386 18.2761C6.47391 18.5262 6.81304 18.6667 7.16667 18.6667C7.52029 18.6667 7.85943 18.5262 8.10948 18.2761C8.35952 18.0261 8.5 17.687 8.5 17.3333V10.6667C8.5 10.313 8.35952 9.97391 8.10948 9.72386C7.85943 9.47381 7.52029 9.33333 7.16667 9.33333ZM11.1667 8C10.813 8 10.4739 8.14048 10.2239 8.39052C9.97381 8.64057 9.83333 8.97971 9.83333 9.33333V17.3333C9.83333 17.687 9.97381 18.0261 10.2239 18.2761C10.4739 18.5262 10.813 18.6667 11.1667 18.6667C11.5203 18.6667 11.8594 18.5262 12.1095 18.2761C12.3595 18.0261 12.5 17.687 12.5 17.3333V12.4533C12.9067 11.9947 13.5933 11.456 14.3573 11.1293C14.8013 10.94 15.4693 10.8627 15.9333 11.0093C16.0873 11.0484 16.2244 11.1363 16.324 11.26C16.3933 11.3533 16.5 11.5613 16.5 12V17.3333C16.5 17.687 16.6405 18.0261 16.8905 18.2761C17.1406 18.5262 17.4797 18.6667 17.8333 18.6667C18.187 18.6667 18.5261 18.5262 18.7761 18.2761C19.0262 18.0261 19.1667 17.687 19.1667 17.3333V12C19.1667 11.1067 18.94 10.312 18.468 9.67467C18.0337 9.09674 17.4258 8.67297 16.7333 8.46533C15.5307 8.088 14.1987 8.29733 13.3093 8.67867C13.0246 8.80113 12.7473 8.94003 12.4787 9.09467C12.4228 8.78745 12.2608 8.5096 12.0211 8.30955C11.7813 8.1095 11.4789 7.99995 11.1667 8ZM7.16667 5.33333C6.81304 5.33333 6.47391 5.47381 6.22386 5.72386C5.97381 5.97391 5.83333 6.31304 5.83333 6.66667C5.83333 7.02029 5.97381 7.35943 6.22386 7.60948C6.47391 7.85952 6.81304 8 7.16667 8C7.52029 8 7.85943 7.85952 8.10948 7.60948C8.35952 7.35943 8.5 7.02029 8.5 6.66667C8.5 6.31304 8.35952 5.97391 8.10948 5.72386C7.85943 5.47381 7.52029 5.33333 7.16667 5.33333Z" fill="white"/>
</svg>
